<ttFont>
<head>
    <!-- Most of this table will be recalculated by the compiler -->
    <tableVersion value="1.0"/>
    <fontRevision value="1.06"/>
    <checkSumAdjustment value="0x3c0993f6"/>
    <magicNumber value="0x5f0f3cf5"/>
    <flags value="00000000 00001011"/>
    <unitsPerEm value="2048"/>
    <created value="Mon Jan 02 15:04:27 2012"/>
    <modified value="Wed Sep 23 21:36:38 2015"/>
    <xMin value="-1242"/>
    <yMin value="-806"/>
    <xMax value="2882"/>
    <yMax value="2759"/>
    <macStyle value="00000000 00000000"/>
    <lowestRecPPEM value="9"/>
    <fontDirectionHint value="2"/>
    <indexToLocFormat value="1"/>
    <glyphDataFormat value="0"/>
  </head>
    <TTGlyph name=".notdef" xMin="193" yMin="0" xMax="1034" yMax="1462">
      <contour>
        <pt x="193" y="1462" on="1"/>
        <pt x="1034" y="1462" on="1"/>
        <pt x="1034" y="0" on="1"/>
        <pt x="193" y="0" on="1"/>
      </contour>
      <contour>
        <pt x="297" y="104" on="1"/>
        <pt x="930" y="104" on="1"/>
        <pt x="930" y="1358" on="1"/>
        <pt x="297" y="1358" on="1"/>
      </contour>
    </TTGlyph>
    <TTGlyph name="asciicircum" xMin="60" yMin="549" xMax="1068" yMax="1473">
      <contour>
        <pt x="60" y="549" on="1"/>
        <pt x="519" y="1473" on="1"/>
        <pt x="621" y="1473" on="1"/>
        <pt x="1068" y="549" on="1"/>
        <pt x="907" y="549" on="1"/>
        <pt x="570" y="1284" on="1"/>
        <pt x="221" y="549" on="1"/>
      </contour>
    </TTGlyph>
    <TTGlyph name="asciitilde" xMin="102" yMin="525" xMax="1026" yMax="1274">
      <contour>
        <pt x="530" y="590" on="1"/>
        <pt x="493" y="606" on="0"/>
        <pt x="438" y="628" on="0"/>
        <pt x="393" y="641" on="0"/>
        <pt x="352" y="646" on="0"/>
        <pt x="330" y="646" on="1"/>
        <pt x="302" y="646" on="0"/>
        <pt x="242" y="627" on="0"/>
        <pt x="183" y="594" on="0"/>
        <pt x="127" y="550" on="0"/>
        <pt x="102" y="525" on="1"/>
        <pt x="102" y="687" on="1"/>
        <pt x="202" y="795" on="0"/>
        <pt x="350" y="795" on="1"/>
        <pt x="379" y="795" on="0"/>
        <pt x="429" y="790" on="0"/>
        <pt x="484" y="777" on="0"/>
        <pt x="551" y="752" on="0"/>
        <pt x="598" y="732" on="1"/>
        <pt x="635" y="716" on="0"/>
        <pt x="690" y="694" on="0"/>
        <pt x="737" y="681" on="0"/>
        <pt x="777" y="676" on="0"/>
        <pt x="799" y="676" on="1"/>
        <pt x="827" y="676" on="0"/>
        <pt x="887" y="695" on="0"/>
        <pt x="946" y="728" on="0"/>
        <pt x="1002" y="772" on="0"/>
        <pt x="1026" y="797" on="1"/>
        <pt x="1026" y="635" on="1"/>
        <pt x="927" y="527" on="0"/>
        <pt x="778" y="527" on="1"/>
        <pt x="749" y="527" on="0"/>
        <pt x="699" y="532" on="0"/>
        <pt x="644" y="545" on="0"/>
        <pt x="577" y="570" on="0"/>
      </contour>
      <contour>
        <pt x="453" y="1274" on="1"/>
      </contour>
    </TTGlyph>
    <TTGlyph name="asterisk" xMin="150" yMin="600" xMax="1112" yMax="1836">
      <contour>
        <pt x="732" y="1525" on="1"/>
        <pt x="689" y="1132" on="1"/>
        <pt x="1086" y="1243" on="1"/>
        <pt x="1112" y="1050" on="1"/>
        <pt x="734" y="1022" on="1"/>
        <pt x="979" y="696" on="1"/>
        <pt x="801" y="600" on="1"/>
        <pt x="625" y="958" on="1"/>
        <pt x="467" y="600" on="1"/>
        <pt x="283" y="696" on="1"/>
        <pt x="525" y="1022" on="1"/>
        <pt x="150" y="1050" on="1"/>
        <pt x="179" y="1243" on="1"/>
        <pt x="570" y="1132" on="1"/>
        <pt x="527" y="1525" on="1"/>
      </contour>
      <contour>
        <pt x="453" y="1274" on="1"/>
      </contour>
      <contour>
        <pt x="448" y="1836" on="1"/>
      </contour>
    </TTGlyph>
    <TTGlyph name="backslash" xMin="86" yMin="-548" xMax="793" yMax="1836">
      <contour>
        <pt x="254" y="1703" on="1"/>
        <pt x="793" y="-339" on="1"/>
        <pt x="625" y="-339" on="1"/>
        <pt x="86" y="1703" on="1"/>
      </contour>
      <contour>
        <pt x="453" y="1274" on="1"/>
      </contour>
      <contour>
        <pt x="448" y="1836" on="1"/>
      </contour>
      <contour>
        <pt x="479" y="-548" on="1"/>
      </contour>
    </TTGlyph>
    <TTGlyph name="bar" xMin="348" yMin="-548" xMax="626" yMax="1836">
      <contour>
        <pt x="479" y="1703" on="1"/>
        <pt x="626" y="1703" on="1"/>
        <pt x="626" y="-339" on="1"/>
        <pt x="479" y="-339" on="1"/>
      </contour>
      <contour>
        <pt x="353" y="1274" on="1"/>
      </contour>
      <contour>
        <pt x="348" y="1836" on="1"/>
      </contour>
      <contour>
        <pt x="479" y="-548" on="1"/>
      </contour>
    </TTGlyph>
    <TTGlyph name="braceleft" xMin="90" yMin="-548" xMax="691" yMax="1836">
      <contour>
        <pt x="507" y="-37" on="1"/>
        <pt x="507" y="-84" on="0"/>
        <pt x="533" y="-144" on="0"/>
        <pt x="580" y="-178" on="0"/>
        <pt x="648" y="-191" on="0"/>
        <pt x="691" y="-192" on="1"/>
        <pt x="691" y="-339" on="1"/>
        <pt x="615" y="-338" on="0"/>
        <pt x="487" y="-305" on="0"/>
        <pt x="394" y="-236" on="0"/>
        <pt x="341" y="-128" on="0"/>
        <pt x="341" y="-51" on="1"/>
        <pt x="341" y="421" on="1"/>
        <pt x="341" y="522" on="0"/>
        <pt x="212" y="606" on="0"/>
        <pt x="90" y="606" on="1"/>
        <pt x="90" y="758" on="1"/>
        <pt x="212" y="758" on="0"/>
        <pt x="341" y="842" on="0"/>
        <pt x="341" y="943" on="1"/>
        <pt x="341" y="1416" on="1"/>
        <pt x="341" y="1492" on="0"/>
        <pt x="394" y="1600" on="0"/>
        <pt x="487" y="1669" on="0"/>
        <pt x="615" y="1702" on="0"/>
        <pt x="691" y="1703" on="1"/>
        <pt x="691" y="1557" on="1"/>
        <pt x="648" y="1556" on="0"/>
        <pt x="580" y="1543" on="0"/>
        <pt x="533" y="1509" on="0"/>
        <pt x="507" y="1449" on="0"/>
        <pt x="507" y="1402" on="1"/>
        <pt x="507" y="931" on="1"/>
        <pt x="507" y="828" on="0"/>
        <pt x="397" y="707" on="0"/>
        <pt x="291" y="687" on="1"/>
        <pt x="291" y="676" on="1"/>
        <pt x="397" y="656" on="0"/>
        <pt x="507" y="537" on="0"/>
        <pt x="507" y="433" on="1"/>
      </contour>
      <contour>
        <pt x="253" y="1274" on="1"/>
      </contour>
      <contour>
        <pt x="248" y="1836" on="1"/>
      </contour>
      <contour>
        <pt x="479" y="-548" on="1"/>
      </contour>
    </TTGlyph>
    <TTGlyph name="braceright" xMin="110" yMin="-548" xMax="711" yMax="1836">
      <contour>
        <pt x="293" y="433" on="1"/>
        <pt x="293" y="537" on="0"/>
        <pt x="403" y="656" on="0"/>
        <pt x="510" y="676" on="1"/>
        <pt x="510" y="687" on="1"/>
        <pt x="403" y="707" on="0"/>
        <pt x="293" y="828" on="0"/>
        <pt x="293" y="931" on="1"/>
        <pt x="293" y="1402" on="1"/>
        <pt x="293" y="1449" on="0"/>
        <pt x="268" y="1509" on="0"/>
        <pt x="221" y="1543" on="0"/>
        <pt x="152" y="1556" on="0"/>
        <pt x="110" y="1557" on="1"/>
        <pt x="110" y="1703" on="1"/>
        <pt x="185" y="1702" on="0"/>
        <pt x="314" y="1669" on="0"/>
        <pt x="407" y="1600" on="0"/>
        <pt x="460" y="1492" on="0"/>
        <pt x="460" y="1416" on="1"/>
        <pt x="460" y="943" on="1"/>
        <pt x="460" y="892" on="0"/>
        <pt x="492" y="822" on="0"/>
        <pt x="556" y="778" on="0"/>
        <pt x="650" y="758" on="0"/>
        <pt x="711" y="758" on="1"/>
        <pt x="711" y="606" on="1"/>
        <pt x="588" y="606" on="0"/>
        <pt x="460" y="522" on="0"/>
        <pt x="460" y="421" on="1"/>
        <pt x="460" y="-51" on="1"/>
        <pt x="460" y="-128" on="0"/>
        <pt x="407" y="-236" on="0"/>
        <pt x="314" y="-305" on="0"/>
        <pt x="185" y="-338" on="0"/>
        <pt x="110" y="-339" on="1"/>
        <pt x="110" y="-192" on="1"/>
        <pt x="152" y="-191" on="0"/>
        <pt x="221" y="-178" on="0"/>
        <pt x="268" y="-144" on="0"/>
        <pt x="293" y="-84" on="0"/>
        <pt x="293" y="-37" on="1"/>
      </contour>
      <contour>
        <pt x="553" y="1274" on="1"/>
      </contour>
      <contour>
        <pt x="548" y="1836" on="1"/>
      </contour>
      <contour>
        <pt x="479" y="-548" on="1"/>
      </contour>
    </TTGlyph>
    <TTGlyph name="bracketleft" xMin="221" yMin="-548" xMax="618" yMax="1836">
      <contour>
        <pt x="618" y="-339" on="1"/>
        <pt x="221" y="-339" on="1"/>
        <pt x="221" y="1704" on="1"/>
        <pt x="618" y="1704" on="1"/>
        <pt x="618" y="1561" on="1"/>
        <pt x="386" y="1561" on="1"/>
        <pt x="386" y="-196" on="1"/>
        <pt x="618" y="-196" on="1"/>
      </contour>
      <contour>
        <pt x="453" y="1274" on="1"/>
      </contour>
      <contour>
        <pt x="448" y="1836" on="1"/>
      </contour>
      <contour>
        <pt x="479" y="-548" on="1"/>
      </contour>
    </TTGlyph>
    <TTGlyph name="bracketright" xMin="110" yMin="-548" xMax="508" yMax="1836">
      <contour>
        <pt x="110" y="-196" on="1"/>
        <pt x="341" y="-196" on="1"/>
        <pt x="341" y="1560" on="1"/>
        <pt x="110" y="1560" on="1"/>
        <pt x="110" y="1703" on="1"/>
        <pt x="508" y="1703" on="1"/>
        <pt x="508" y="-339" on="1"/>
        <pt x="110" y="-339" on="1"/>
      </contour>
      <contour>
        <pt x="253" y="1274" on="1"/>
      </contour>
      <contour>
        <pt x="248" y="1836" on="1"/>
      </contour>
      <contour>
        <pt x="479" y="-548" on="1"/>
      </contour>
    </TTGlyph>
    <TTGlyph name="colon" xMin="175" yMin="-29" xMax="429" yMax="1274">
      <contour>
        <pt x="175" y="111" on="1"/>
        <pt x="175" y="149" on="0"/>
        <pt x="195" y="202" on="0"/>
        <pt x="229" y="235" on="0"/>
        <pt x="275" y="250" on="0"/>
        <pt x="302" y="250" on="1"/>
        <pt x="328" y="250" on="0"/>
        <pt x="375" y="235" on="0"/>
        <pt x="409" y="202" on="0"/>
        <pt x="429" y="149" on="0"/>
        <pt x="429" y="111" on="1"/>
        <pt x="429" y="74" on="0"/>
        <pt x="409" y="21" on="0"/>
        <pt x="375" y="-13" on="0"/>
        <pt x="328" y="-29" on="0"/>
        <pt x="302" y="-29" on="1"/>
        <pt x="275" y="-29" on="0"/>
        <pt x="229" y="-13" on="0"/>
        <pt x="195" y="21" on="0"/>
        <pt x="175" y="74" on="0"/>
      </contour>
      <contour>
        <pt x="175" y="987" on="1"/>
        <pt x="175" y="1026" on="0"/>
        <pt x="195" y="1079" on="0"/>
        <pt x="229" y="1112" on="0"/>
        <pt x="275" y="1126" on="0"/>
        <pt x="302" y="1126" on="1"/>
        <pt x="328" y="1126" on="0"/>
        <pt x="375" y="1112" on="0"/>
        <pt x="409" y="1079" on="0"/>
        <pt x="429" y="1026" on="0"/>
        <pt x="429" y="987" on="1"/>
        <pt x="429" y="950" on="0"/>
        <pt x="409" y="898" on="0"/>
        <pt x="375" y="864" on="0"/>
        <pt x="328" y="848" on="0"/>
        <pt x="302" y="848" on="1"/>
        <pt x="275" y="848" on="0"/>
        <pt x="229" y="864" on="0"/>
        <pt x="195" y="898" on="0"/>
        <pt x="175" y="950" on="0"/>
      </contour>
      <contour>
        <pt x="302" y="1274" on="1"/>
      </contour>
    </TTGlyph>
    <TTGlyph name="comma" xMin="63" yMin="-264" xMax="377" yMax="238">
      <contour>
        <pt x="362" y="238" on="1"/>
        <pt x="377" y="215" on="1"/>
        <pt x="363" y="161" on="0"/>
        <pt x="324" y="39" on="0"/>
        <pt x="277" y="-85" on="0"/>
        <pt x="226" y="-208" on="0"/>
        <pt x="201" y="-264" on="1"/>
        <pt x="63" y="-264" on="1"/>
        <pt x="78" y="-203" on="0"/>
        <pt x="107" y="-71" on="0"/>
        <pt x="134" y="60" on="0"/>
        <pt x="156" y="185" on="0"/>
        <pt x="164" y="238" on="1"/>
      </contour>
    </TTGlyph>
    <TTGlyph name="divide" xMin="102" yMin="195" xMax="1026" yMax="1274">
      <contour>
        <pt x="102" y="585" on="1"/>
        <pt x="102" y="735" on="1"/>
        <pt x="1026" y="735" on="1"/>
        <pt x="1026" y="585" on="1"/>
      </contour>
      <contour>
        <pt x="449" y="320" on="1"/>
        <pt x="449" y="355" on="0"/>
        <pt x="467" y="402" on="0"/>
        <pt x="498" y="432" on="0"/>
        <pt x="539" y="445" on="0"/>
        <pt x="563" y="445" on="1"/>
        <pt x="586" y="445" on="0"/>
        <pt x="628" y="432" on="0"/>
        <pt x="660" y="402" on="0"/>
        <pt x="678" y="355" on="0"/>
        <pt x="678" y="320" on="1"/>
        <pt x="678" y="287" on="0"/>
        <pt x="660" y="240" on="0"/>
        <pt x="628" y="209" on="0"/>
        <pt x="586" y="195" on="0"/>
        <pt x="563" y="195" on="1"/>
        <pt x="539" y="195" on="0"/>
        <pt x="498" y="209" on="0"/>
        <pt x="467" y="240" on="0"/>
        <pt x="449" y="287" on="0"/>
      </contour>
      <contour>
        <pt x="449" y="1018" on="1"/>
        <pt x="449" y="1053" on="0"/>
        <pt x="467" y="1100" on="0"/>
        <pt x="498" y="1130" on="0"/>
        <pt x="539" y="1143" on="0"/>
        <pt x="563" y="1143" on="1"/>
        <pt x="586" y="1143" on="0"/>
        <pt x="628" y="1130" on="0"/>
        <pt x="660" y="1100" on="0"/>
        <pt x="678" y="1053" on="0"/>
        <pt x="678" y="1018" on="1"/>
        <pt x="678" y="985" on="0"/>
        <pt x="660" y="938" on="0"/>
        <pt x="628" y="907" on="0"/>
        <pt x="586" y="893" on="0"/>
        <pt x="563" y="893" on="1"/>
        <pt x="539" y="893" on="0"/>
        <pt x="498" y="907" on="0"/>
        <pt x="467" y="938" on="0"/>
        <pt x="449" y="985" on="0"/>
      </contour>
      <contour>
        <pt x="453" y="1274" on="1"/>
      </contour>
    </TTGlyph>
    <TTGlyph name="eight" xMin="106" yMin="-20" xMax="1024" yMax="1485">
      <contour>
        <pt x="565" y="1485" on="1"/>
        <pt x="649" y="1485" on="0"/>
        <pt x="798" y="1441" on="0"/>
        <pt x="911" y="1353" on="0"/>
        <pt x="977" y="1221" on="0"/>
        <pt x="977" y="1133" on="1"/>
        <pt x="977" y="1066" on="0"/>
        <pt x="937" y="958" on="0"/>
        <pt x="867" y="871" on="0"/>
        <pt x="771" y="802" on="0"/>
        <pt x="715" y="774" on="1"/>
        <pt x="773" y="743" on="0"/>
        <pt x="884" y="667" on="0"/>
        <pt x="971" y="572" on="0"/>
        <pt x="1024" y="454" on="0"/>
        <pt x="1024" y="381" on="1"/>
        <pt x="1024" y="289" on="0"/>
        <pt x="957" y="140" on="0"/>
        <pt x="836" y="36" on="0"/>
        <pt x="667" y="-20" on="0"/>
        <pt x="565" y="-20" on="1"/>
        <pt x="455" y="-20" on="0"/>
        <pt x="284" y="34" on="0"/>
        <pt x="167" y="135" on="0"/>
        <pt x="106" y="281" on="0"/>
        <pt x="106" y="373" on="1"/>
        <pt x="106" y="448" on="0"/>
        <pt x="151" y="568" on="0"/>
        <pt x="227" y="664" on="0"/>
        <pt x="331" y="738" on="0"/>
        <pt x="389" y="766" on="1"/>
        <pt x="340" y="797" on="0"/>
        <pt x="254" y="870" on="0"/>
        <pt x="191" y="960" on="0"/>
        <pt x="154" y="1069" on="0"/>
        <pt x="154" y="1135" on="1"/>
        <pt x="154" y="1222" on="0"/>
        <pt x="221" y="1353" on="0"/>
        <pt x="335" y="1441" on="0"/>
        <pt x="484" y="1485" on="0"/>
      </contour>
      <contour>
        <pt x="285" y="371" on="1"/>
        <pt x="285" y="318" on="0"/>
        <pt x="317" y="229" on="0"/>
        <pt x="385" y="166" on="0"/>
        <pt x="489" y="131" on="0"/>
        <pt x="561" y="131" on="1"/>
        <pt x="631" y="131" on="0"/>
        <pt x="738" y="166" on="0"/>
        <pt x="810" y="231" on="0"/>
        <pt x="846" y="323" on="0"/>
        <pt x="846" y="379" on="1"/>
        <pt x="846" y="431" on="0"/>
        <pt x="807" y="515" on="0"/>
        <pt x="734" y="587" on="0"/>
        <pt x="632" y="651" on="0"/>
        <pt x="569" y="682" on="1"/>
        <pt x="539" y="696" on="1"/>
        <pt x="413" y="636" on="0"/>
        <pt x="285" y="481" on="0"/>
      </contour>
      <contour>
        <pt x="563" y="1333" on="1"/>
        <pt x="457" y="1333" on="0"/>
        <pt x="332" y="1227" on="0"/>
        <pt x="332" y="1126" on="1"/>
        <pt x="332" y="1069" on="0"/>
        <pt x="367" y="987" on="0"/>
        <pt x="429" y="923" on="0"/>
        <pt x="516" y="872" on="0"/>
        <pt x="567" y="848" on="1"/>
        <pt x="615" y="870" on="0"/>
        <pt x="700" y="922" on="0"/>
        <pt x="763" y="988" on="0"/>
        <pt x="799" y="1072" on="0"/>
        <pt x="799" y="1126" on="1"/>
        <pt x="799" y="1227" on="0"/>
        <pt x="673" y="1333" on="0"/>
      </contour>
      <contour>
        <pt x="967" y="696" on="1"/>
      </contour>
    </TTGlyph>
    <TTGlyph name="ellipsis" xMin="147" yMin="-29" xMax="1499" yMax="250">
      <contour>
        <pt x="147" y="111" on="1"/>
        <pt x="147" y="149" on="0"/>
        <pt x="167" y="202" on="0"/>
        <pt x="201" y="235" on="0"/>
        <pt x="247" y="250" on="0"/>
        <pt x="274" y="250" on="1"/>
        <pt x="300" y="250" on="0"/>
        <pt x="347" y="235" on="0"/>
        <pt x="381" y="202" on="0"/>
        <pt x="401" y="149" on="0"/>
        <pt x="401" y="111" on="1"/>
        <pt x="401" y="74" on="0"/>
        <pt x="381" y="21" on="0"/>
        <pt x="347" y="-13" on="0"/>
        <pt x="300" y="-29" on="0"/>
        <pt x="274" y="-29" on="1"/>
        <pt x="247" y="-29" on="0"/>
        <pt x="201" y="-13" on="0"/>
        <pt x="167" y="21" on="0"/>
        <pt x="147" y="74" on="0"/>
      </contour>
      <contour>
        <pt x="696" y="111" on="1"/>
        <pt x="696" y="149" on="0"/>
        <pt x="716" y="202" on="0"/>
        <pt x="750" y="235" on="0"/>
        <pt x="796" y="250" on="0"/>
        <pt x="823" y="250" on="1"/>
        <pt x="849" y="250" on="0"/>
        <pt x="896" y="235" on="0"/>
        <pt x="930" y="202" on="0"/>
        <pt x="950" y="149" on="0"/>
        <pt x="950" y="111" on="1"/>
        <pt x="950" y="74" on="0"/>
        <pt x="930" y="21" on="0"/>
        <pt x="896" y="-13" on="0"/>
        <pt x="849" y="-29" on="0"/>
        <pt x="823" y="-29" on="1"/>
        <pt x="796" y="-29" on="0"/>
        <pt x="750" y="-13" on="0"/>
        <pt x="716" y="21" on="0"/>
        <pt x="696" y="74" on="0"/>
      </contour>
      <contour>
        <pt x="1245" y="111" on="1"/>
        <pt x="1245" y="149" on="0"/>
        <pt x="1264" y="202" on="0"/>
        <pt x="1299" y="235" on="0"/>
        <pt x="1345" y="250" on="0"/>
        <pt x="1372" y="250" on="1"/>
        <pt x="1398" y="250" on="0"/>
        <pt x="1445" y="235" on="0"/>
        <pt x="1479" y="202" on="0"/>
        <pt x="1499" y="149" on="0"/>
        <pt x="1499" y="111" on="1"/>
        <pt x="1499" y="74" on="0"/>
        <pt x="1479" y="21" on="0"/>
        <pt x="1445" y="-13" on="0"/>
        <pt x="1398" y="-29" on="0"/>
        <pt x="1372" y="-29" on="1"/>
        <pt x="1318" y="-29" on="0"/>
        <pt x="1245" y="37" on="0"/>
      </contour>
    </TTGlyph>
    <TTGlyph name="emdash" xMin="82" yMin="535" xMax="1966" yMax="1274">
      <contour>
        <pt x="82" y="535" on="1"/>
        <pt x="82" y="703" on="1"/>
        <pt x="1966" y="703" on="1"/>
        <pt x="1966" y="535" on="1"/>
      </contour>
      <contour>
        <pt x="453" y="1274" on="1"/>
      </contour>
    </TTGlyph>
    <TTGlyph name="endash" xMin="82" yMin="535" xMax="942" yMax="1274">
      <contour>
        <pt x="82" y="535" on="1"/>
        <pt x="82" y="703" on="1"/>
        <pt x="942" y="703" on="1"/>
        <pt x="942" y="535" on="1"/>
      </contour>
      <contour>
        <pt x="453" y="1274" on="1"/>
      </contour>
    </TTGlyph>
    <TTGlyph name="equal" xMin="102" yMin="381" xMax="1026" yMax="1274">
      <contour>
        <pt x="102" y="791" on="1"/>
        <pt x="102" y="940" on="1"/>
        <pt x="1026" y="940" on="1"/>
        <pt x="1026" y="791" on="1"/>
      </contour>
      <contour>
        <pt x="102" y="381" on="1"/>
        <pt x="102" y="531" on="1"/>
        <pt x="1026" y="531" on="1"/>
        <pt x="1026" y="381" on="1"/>
      </contour>
      <contour>
        <pt x="453" y="1274" on="1"/>
      </contour>
    </TTGlyph>
    <TTGlyph name="exclam" xMin="299" yMin="-29" xMax="553" yMax="1462">
      <contour>
        <pt x="488" y="414" on="1"/>
        <pt x="367" y="414" on="1"/>
        <pt x="316" y="1462" on="1"/>
        <pt x="539" y="1462" on="1"/>
      </contour>
      <contour>
        <pt x="299" y="111" on="1"/>
        <pt x="299" y="149" on="0"/>
        <pt x="319" y="202" on="0"/>
        <pt x="353" y="235" on="0"/>
        <pt x="399" y="250" on="0"/>
        <pt x="426" y="250" on="1"/>
        <pt x="452" y="250" on="0"/>
        <pt x="499" y="235" on="0"/>
        <pt x="533" y="202" on="0"/>
        <pt x="553" y="149" on="0"/>
        <pt x="553" y="111" on="1"/>
        <pt x="553" y="74" on="0"/>
        <pt x="533" y="21" on="0"/>
        <pt x="499" y="-13" on="0"/>
        <pt x="452" y="-29" on="0"/>
        <pt x="426" y="-29" on="1"/>
        <pt x="399" y="-29" on="0"/>
        <pt x="353" y="-13" on="0"/>
        <pt x="319" y="21" on="0"/>
        <pt x="299" y="74" on="0"/>
      </contour>
    </TTGlyph>
    <TTGlyph name="five" xMin="131" yMin="-20" xMax="1014" yMax="1462">
      <contour>
        <pt x="545" y="897" on="1"/>
        <pt x="644" y="897" on="0"/>
        <pt x="815" y="842" on="0"/>
        <pt x="942" y="734" on="0"/>
        <pt x="1014" y="574" on="0"/>
        <pt x="1014" y="469" on="1"/>
        <pt x="1014" y="355" on="0"/>
        <pt x="946" y="173" on="0"/>
        <pt x="812" y="47" on="0"/>
        <pt x="615" y="-20" on="0"/>
        <pt x="487" y="-20" on="1"/>
        <pt x="436" y="-20" on="0"/>
        <pt x="337" y="-10" on="0"/>
        <pt x="246" y="9" on="0"/>
        <pt x="164" y="39" on="0"/>
        <pt x="131" y="59" on="1"/>
        <pt x="131" y="231" on="1"/>
        <pt x="164" y="208" on="0"/>
        <pt x="253" y="172" on="0"/>
        <pt x="351" y="148" on="0"/>
        <pt x="450" y="135" on="0"/>
        <pt x="492" y="135" on="1"/>
        <pt x="571" y="135" on="0"/>
        <pt x="695" y="172" on="0"/>
        <pt x="781" y="250" on="0"/>
        <pt x="827" y="368" on="0"/>
        <pt x="827" y="449" on="1"/>
        <pt x="827" y="592" on="0"/>
        <pt x="651" y="743" on="0"/>
        <pt x="483" y="743" on="1"/>
        <pt x="456" y="743" on="0"/>
        <pt x="393" y="738" on="0"/>
        <pt x="330" y="730" on="0"/>
        <pt x="273" y="721" on="0"/>
        <pt x="252" y="717" on="1"/>
        <pt x="162" y="774" on="1"/>
        <pt x="217" y="1462" on="1"/>
        <pt x="907" y="1462" on="1"/>
        <pt x="907" y="1296" on="1"/>
        <pt x="375" y="1296" on="1"/>
        <pt x="336" y="877" on="1"/>
        <pt x="368" y="883" on="0"/>
        <pt x="473" y="897" on="0"/>
      </contour>
    </TTGlyph>
    <TTGlyph name="four" xMin="23" yMin="0" xMax="1087" yMax="1470">
      <contour>
        <pt x="1087" y="328" on="1"/>
        <pt x="874" y="328" on="1"/>
        <pt x="874" y="0" on="1"/>
        <pt x="698" y="0" on="1"/>
        <pt x="698" y="328" on="1"/>
        <pt x="23" y="328" on="1"/>
        <pt x="23" y="487" on="1"/>
        <pt x="686" y="1470" on="1"/>
        <pt x="874" y="1470" on="1"/>
        <pt x="874" y="494" on="1"/>
        <pt x="1087" y="494" on="1"/>
      </contour>
      <contour>
        <pt x="698" y="494" on="1"/>
        <pt x="698" y="850" on="1"/>
        <pt x="698" y="906" on="0"/>
        <pt x="701" y="1029" on="0"/>
        <pt x="705" y="1146" on="0"/>
        <pt x="710" y="1248" on="0"/>
        <pt x="711" y="1282" on="1"/>
        <pt x="702" y="1282" on="1"/>
        <pt x="695" y="1262" on="0"/>
        <pt x="674" y="1213" on="0"/>
        <pt x="649" y="1164" on="0"/>
        <pt x="623" y="1118" on="0"/>
        <pt x="612" y="1102" on="1"/>
        <pt x="201" y="494" on="1"/>
      </contour>
    </TTGlyph>
    <TTGlyph name="glyph00136" xMin="60" yMin="-200" xMax="1595" yMax="1836">
      <component glyphName="uni0905" x="0" y="0" flags="0x204"/>
      <component glyphName="uni0946" x="1565" y="0" flags="0x4"/>
      <component glyphName="uni093C" x="1151" y="194" flags="0x4"/>
    </TTGlyph>
    <TTGlyph name="glyph00137" xMin="60" yMin="-200" xMax="1595" yMax="1295">
      <component glyphName="uni0905" x="0" y="0" flags="0x204"/>
      <component glyphName="uni093C" x="1151" y="194" flags="0x4"/>
    </TTGlyph>
    <TTGlyph name="glyph00138" xMin="60" yMin="-200" xMax="2125" yMax="1295">
      <component glyphName="uni0906" x="0" y="0" flags="0x204"/>
      <component glyphName="uni093C" x="1151" y="194" flags="0x4"/>
    </TTGlyph>
    <TTGlyph name="glyph00139" xMin="0" yMin="-413" xMax="1000" yMax="1274">
      <component glyphName="uni0907" x="0" y="0" flags="0x204"/>
      <component glyphName="uni093C" x="977" y="-19" flags="0x4"/>
    </TTGlyph>
    <TTGlyph name="glyph00140" xMin="0" yMin="-413" xMax="1013" yMax="1836">
      <component glyphName="uni0907" x="0" y="0" flags="0x204"/>
      <component glyphName="glyph00181" x="970" y="0" flags="0x4"/>
      <component glyphName="uni093C" x="977" y="-19" flags="0x4"/>
    </TTGlyph>
    <TTGlyph name="glyph00141" xMin="0" yMin="-394" xMax="1152" yMax="1274">
      <component glyphName="uni0909" x="0" y="0" flags="0x204"/>
      <component glyphName="uni093C" x="1147" y="0" flags="0x4"/>
    </TTGlyph>
    <TTGlyph name="glyph00142" xMin="0" yMin="-394" xMax="1597" yMax="1274">
      <component glyphName="uni090A" x="0" y="0" flags="0x204"/>
      <component glyphName="uni093C" x="1147" y="0" flags="0x4"/>
    </TTGlyph>
    <TTGlyph name="glyph00143" xMin="0" yMin="-260" xMax="1776" yMax="1274">
      <component glyphName="uni090B" x="0" y="0" flags="0x204"/>
      <component glyphName="uni093C" x="1051" y="134" flags="0x4"/>
    </TTGlyph>
    <TTGlyph name="glyph00144" xMin="0" yMin="-390" xMax="1465" yMax="1274">
      <component glyphName="uni090C" x="0" y="0" flags="0x204"/>
      <component glyphName="uni093C" x="1051" y="4" flags="0x4"/>
    </TTGlyph>
    <TTGlyph name="glyph00145" xMin="0" yMin="-376" xMax="1163" yMax="1836">
      <component glyphName="uni090F" x="0" y="0" flags="0x204"/>
      <component glyphName="uni0945" x="953" y="0" flags="0x4"/>
      <component glyphName="uni093C" x="927" y="132" flags="0x4"/>
    </TTGlyph>
    <TTGlyph name="glyph00146" xMin="0" yMin="-376" xMax="1163" yMax="1836">
      <component glyphName="uni090F" x="0" y="0" flags="0x204"/>
      <component glyphName="uni0946" x="1152" y="0" flags="0x4"/>
      <component glyphName="uni093C" x="927" y="132" flags="0x4"/>
    </TTGlyph>
    <TTGlyph name="glyph00147" xMin="0" yMin="-376" xMax="1163" yMax="1274">
      <component glyphName="uni090F" x="0" y="0" flags="0x204"/>
      <component glyphName="uni093C" x="927" y="132" flags="0x4"/>
    </TTGlyph>
    <TTGlyph name="glyph00148" xMin="0" yMin="-376" xMax="1163" yMax="1836">
      <component glyphName="uni090F" x="0" y="0" flags="0x204"/>
      <component glyphName="uni0947" x="1152" y="0" flags="0x4"/>
      <component glyphName="uni093C" x="927" y="132" flags="0x4"/>
    </TTGlyph>
    <TTGlyph name="glyph00149" xMin="60" yMin="-200" xMax="2176" yMax="1836">
      <component glyphName="uni0906" x="0" y="0" flags="0x204"/>
      <component glyphName="uni093C" x="1151" y="194" flags="0x4"/>
      <component glyphName="uni0945" x="2035" y="0" flags="0x4"/>
    </TTGlyph>
    <TTGlyph name="glyph00150" xMin="60" yMin="-200" xMax="2125" yMax="1836">
      <component glyphName="uni0906" x="0" y="0" flags="0x204"/>
      <component glyphName="uni0946" x="2095" y="0" flags="0x4"/>
      <component glyphName="uni093C" x="1151" y="194" flags="0x4"/>
    </TTGlyph>
    <TTGlyph name="glyph00151" xMin="60" yMin="-200" xMax="2125" yMax="1836">
      <component glyphName="uni0906" x="0" y="0" flags="0x204"/>
      <component glyphName="uni0947" x="2095" y="0" flags="0x4"/>
      <component glyphName="uni093C" x="1151" y="194" flags="0x4"/>
    </TTGlyph>
    <TTGlyph name="glyph00152" xMin="60" yMin="-200" xMax="2125" yMax="1836">
      <component glyphName="uni0906" x="0" y="0" flags="0x204"/>
      <component glyphName="uni0948" x="2095" y="0" flags="0x4"/>
      <component glyphName="uni093C" x="1151" y="194" flags="0x4"/>
    </TTGlyph>
    <TTGlyph name="glyph00153" xMin="0" yMin="-331" xMax="1800" yMax="1274">
      <component glyphName="uni0960" x="0" y="0" flags="0x204"/>
      <component glyphName="uni093C" x="1051" y="134" flags="0x4"/>
    </TTGlyph>
    <TTGlyph name="glyph00154" xMin="0" yMin="-405" xMax="1550" yMax="1274">
      <component glyphName="uni0961" x="0" y="0" flags="0x204"/>
      <component glyphName="uni093C" x="1051" y="4" flags="0x4"/>
    </TTGlyph>
    <TTGlyph name="glyph00155" xMin="60" yMin="-200" xMax="1661" yMax="1836">
      <component glyphName="uni0905" x="0" y="0" flags="0x204"/>
      <component glyphName="uni0945" x="1520" y="0" flags="0x4"/>
      <component glyphName="uni093C" x="1151" y="194" flags="0x4"/>
    </TTGlyph>
    <TTGlyph name="glyph00156" xMin="0" yMin="-96" xMax="1240" yMax="1274">
      <component glyphName="uni0918" x="0" y="0" flags="0x204"/>
      <component glyphName="uni093C" x="920" y="298" flags="0x4"/>
    </TTGlyph>
    <TTGlyph name="glyph00157" xMin="0" yMin="-394" xMax="1458" yMax="1274">
      <component glyphName="uni0919" x="0" y="0" flags="0x204"/>
      <component glyphName="uni093C" x="1265" y="0" flags="0x4"/>
    </TTGlyph>
    <TTGlyph name="glyph00158" xMin="0" yMin="-96" xMax="1329" yMax="1274">
      <component glyphName="uni091A" x="0" y="0" flags="0x204"/>
      <component glyphName="uni093C" x="980" y="298" flags="0x4"/>
    </TTGlyph>
    <TTGlyph name="glyph00159" xMin="0" yMin="-394" xMax="1465" yMax="1274">
      <component glyphName="uni091B" x="0" y="0" flags="0x204"/>
      <component glyphName="uni093C" x="1270" y="0" flags="0x4"/>
    </TTGlyph>
    <TTGlyph name="glyph00160" xMin="0" yMin="-413" xMax="1544" yMax="1274">
      <component glyphName="uni091D" x="0" y="0" flags="0x204"/>
      <component glyphName="uni093C" x="977" y="-19" flags="0x4"/>
    </TTGlyph>
    <TTGlyph name="glyph00161" xMin="0" yMin="-135" xMax="1549" yMax="1274">
      <component glyphName="uni091E" x="0" y="0" flags="0x204"/>
      <component glyphName="uni093C" x="1123" y="259" flags="0x4"/>
    </TTGlyph>
    <TTGlyph name="glyph00162" xMin="0" yMin="-394" xMax="1062" yMax="1274">
      <component glyphName="uni091F" x="0" y="0" flags="0x204"/>
      <component glyphName="uni093C" x="1151" y="0" flags="0x4"/>
    </TTGlyph>
    <TTGlyph name="glyph00163" xMin="0" yMin="-394" xMax="1228" yMax="1274">
      <component glyphName="uni0920" x="0" y="0" flags="0x204"/>
      <component glyphName="uni093C" x="1182" y="0" flags="0x4"/>
    </TTGlyph>
    <TTGlyph name="glyph00164" xMin="0" yMin="-101" xMax="1510" yMax="1274">
      <component glyphName="uni0923" x="0" y="0" flags="0x204"/>
      <component glyphName="uni093C" x="1106" y="293" flags="0x4"/>
    </TTGlyph>
    <TTGlyph name="glyph00165" xMin="0" yMin="-423" xMax="1197" yMax="1274">
      <component glyphName="uni0924" x="0" y="0" flags="0x204"/>
      <component glyphName="uni093C" x="1011" y="-29" flags="0x4"/>
    </TTGlyph>
    <TTGlyph name="glyph00166" xMin="95" yMin="-75" xMax="1344" yMax="1294">
      <component glyphName="uni0925" x="0" y="0" flags="0x204"/>
      <component glyphName="uni093C" x="1040" y="319" flags="0x4"/>
    </TTGlyph>
    <TTGlyph name="glyph00167" xMin="0" yMin="-238" xMax="1094" yMax="1274">
      <component glyphName="uni0926" x="0" y="0" flags="0x204"/>
      <component glyphName="uni093C" x="1001" y="156" flags="0x4"/>
    </TTGlyph>
    <TTGlyph name="glyph00168" xMin="87" yMin="-178" xMax="1290" yMax="1295">
      <component glyphName="uni0927" x="0" y="0" flags="0x204"/>
      <component glyphName="uni093C" x="1059" y="216" flags="0x4"/>
    </TTGlyph>
    <TTGlyph name="glyph00169" xMin="0" yMin="-96" xMax="1194" yMax="1274">
      <component glyphName="uni092A" x="0" y="0" flags="0x204"/>
      <component glyphName="uni093C" x="940" y="298" flags="0x4"/>
    </TTGlyph>
    <TTGlyph name="glyph00170" xMin="0" yMin="-96" xMax="1199" yMax="1274">
      <component glyphName="uni092C" x="0" y="0" flags="0x204"/>
      <component glyphName="uni093C" x="970" y="298" flags="0x4"/>
    </TTGlyph>
    <TTGlyph name="glyph00171" xMin="95" yMin="-55" xMax="1469" yMax="1294">
      <component glyphName="uni092D" x="0" y="0" flags="0x204"/>
      <component glyphName="glyph00785" x="1190" y="339" flags="0x4"/>
    </TTGlyph>
    <TTGlyph name="glyph00172" xMin="0" yMin="-65" xMax="1254" yMax="1274">
      <component glyphName="uni092E" x="0" y="0" flags="0x204"/>
      <component glyphName="glyph00785" x="1010" y="329" flags="0x4"/>
    </TTGlyph>
    <TTGlyph name="glyph00173" xMin="0" yMin="-363" xMax="1419" yMax="1274">
      <component glyphName="uni0932" x="0" y="0" flags="0x204"/>
      <component glyphName="uni093C" x="1281" y="31" flags="0x4"/>
    </TTGlyph>
    <TTGlyph name="glyph00174" xMin="0" yMin="-96" xMax="1169" yMax="1274">
      <component glyphName="uni0935" x="0" y="0" flags="0x204"/>
      <component glyphName="uni093C" x="970" y="298" flags="0x4"/>
    </TTGlyph>
    <TTGlyph name="glyph00175" xMin="81" yMin="-218" xMax="1423" yMax="1294">
      <component glyphName="uni0936" x="0" y="0" flags="0x204"/>
      <component glyphName="uni093C" x="1025" y="176" flags="0x4"/>
    </TTGlyph>
    <TTGlyph name="glyph00176" xMin="0" yMin="-96" xMax="1214" yMax="1274">
      <component glyphName="uni0937" x="0" y="0" flags="0x204"/>
      <component glyphName="uni093C" x="940" y="298" flags="0x4"/>
    </TTGlyph>
    <TTGlyph name="glyph00177" xMin="0" yMin="-45" xMax="1405" yMax="1274">
      <component glyphName="uni0938" x="0" y="0" flags="0x204"/>
      <component glyphName="glyph00785" x="800" y="349" flags="0x4"/>
    </TTGlyph>
    <TTGlyph name="glyph00178" xMin="0" yMin="-495" xMax="1118" yMax="1274">
      <component glyphName="uni0939" x="0" y="0" flags="0x204"/>
      <component glyphName="glyph00785" x="837" y="-101" flags="0x4"/>
    </TTGlyph>
    <TTGlyph name="glyph00179" xMin="95" yMin="-134" xMax="1488" yMax="1295">
      <contour>
        <pt x="550" y="249" on="1"/>
        <pt x="543" y="267" on="0"/>
        <pt x="538" y="307" on="0"/>
        <pt x="538" y="321" on="1"/>
        <pt x="538" y="378" on="0"/>
        <pt x="611" y="442" on="0"/>
        <pt x="671" y="442" on="1"/>
        <pt x="725" y="442" on="0"/>
        <pt x="806" y="392" on="0"/>
        <pt x="845" y="317" on="0"/>
        <pt x="845" y="279" on="1"/>
        <pt x="845" y="222" on="0"/>
        <pt x="795" y="155" on="0"/>
        <pt x="747" y="136" on="1"/>
        <pt x="821" y="40" on="0"/>
        <pt x="917" y="-49" on="1"/>
        <pt x="798" y="-134" on="1"/>
        <pt x="666" y="18" on="0"/>
        <pt x="611" y="109" on="1"/>
        <pt x="575" y="103" on="0"/>
        <pt x="501" y="103" on="1"/>
        <pt x="384" y="103" on="0"/>
        <pt x="199" y="185" on="0"/>
        <pt x="95" y="330" on="0"/>
        <pt x="95" y="419" on="1"/>
        <pt x="95" y="488" on="0"/>
        <pt x="155" y="603" on="0"/>
        <pt x="254" y="692" on="0"/>
        <pt x="335" y="740" on="1"/>
        <pt x="247" y="797" on="0"/>
        <pt x="152" y="945" on="0"/>
        <pt x="152" y="1038" on="1"/>
        <pt x="152" y="1110" on="0"/>
        <pt x="226" y="1227" on="0"/>
        <pt x="373" y="1295" on="0"/>
        <pt x="474" y="1295" on="1"/>
        <pt x="558" y="1295" on="0"/>
        <pt x="698" y="1243" on="0"/>
        <pt x="783" y="1133" on="0"/>
        <pt x="783" y="1054" on="1"/>
        <pt x="783" y="966" on="0"/>
        <pt x="699" y="830" on="0"/>
        <pt x="605" y="764" on="1"/>
        <pt x="668" y="746" on="0"/>
        <pt x="765" y="746" on="1"/>
        <pt x="966" y="746" on="0"/>
        <pt x="1110" y="841" on="1"/>
        <pt x="1110" y="1128" on="1"/>
        <pt x="928" y="1128" on="1"/>
        <pt x="928" y="1274" on="1"/>
        <pt x="1488" y="1274" on="1"/>
        <pt x="1488" y="1128" on="1"/>
        <pt x="1275" y="1128" on="1"/>
        <pt x="1275" y="0" on="1"/>
        <pt x="1110" y="0" on="1"/>
        <pt x="1110" y="665" on="1"/>
        <pt x="1042" y="634" on="0"/>
        <pt x="871" y="601" on="0"/>
        <pt x="786" y="601" on="1"/>
        <pt x="704" y="601" on="0"/>
        <pt x="533" y="637" on="0"/>
        <pt x="463" y="668" on="1"/>
        <pt x="389" y="623" on="0"/>
        <pt x="306" y="551" on="0"/>
        <pt x="263" y="473" on="0"/>
        <pt x="263" y="425" on="1"/>
        <pt x="263" y="395" on="0"/>
        <pt x="285" y="331" on="0"/>
        <pt x="340" y="279" on="0"/>
        <pt x="433" y="246" on="0"/>
        <pt x="505" y="246" on="1"/>
        <pt x="520" y="246" on="0"/>
      </contour>
      <contour>
        <pt x="467" y="818" on="1"/>
        <pt x="547" y="869" on="0"/>
        <pt x="621" y="975" on="0"/>
        <pt x="621" y="1037" on="1"/>
        <pt x="621" y="1070" on="0"/>
        <pt x="590" y="1126" on="0"/>
        <pt x="522" y="1160" on="0"/>
        <pt x="470" y="1160" on="1"/>
        <pt x="399" y="1160" on="0"/>
        <pt x="313" y="1088" on="0"/>
        <pt x="313" y="1028" on="1"/>
        <pt x="313" y="966" on="0"/>
        <pt x="394" y="856" on="0"/>
      </contour>
    </TTGlyph>
    <TTGlyph name="glyph00180" xMin="0" yMin="-80" xMax="1343" yMax="1274">
      <contour>
        <pt x="179" y="766" on="1"/>
        <pt x="228" y="904" on="1"/>
        <pt x="965" y="904" on="1"/>
        <pt x="965" y="1128" on="1"/>
        <pt x="0" y="1128" on="1"/>
        <pt x="0" y="1274" on="1"/>
        <pt x="1343" y="1274" on="1"/>
        <pt x="1343" y="1128" on="1"/>
        <pt x="1130" y="1128" on="1"/>
        <pt x="1130" y="0" on="1"/>
        <pt x="965" y="0" on="1"/>
        <pt x="965" y="758" on="1"/>
        <pt x="667" y="758" on="1"/>
        <pt x="537" y="758" on="0"/>
        <pt x="475" y="767" on="1"/>
        <pt x="595" y="705" on="0"/>
        <pt x="710" y="549" on="0"/>
        <pt x="710" y="447" on="1"/>
        <pt x="710" y="348" on="0"/>
        <pt x="600" y="209" on="0"/>
        <pt x="501" y="181" on="1"/>
        <pt x="548" y="152" on="0"/>
        <pt x="696" y="89" on="0"/>
        <pt x="780" y="63" on="1"/>
        <pt x="713" y="-80" on="1"/>
        <pt x="623" y="-45" on="0"/>
        <pt x="419" y="76" on="0"/>
        <pt x="325" y="151" on="1"/>
        <pt x="192" y="154" on="0"/>
        <pt x="71" y="217" on="0"/>
        <pt x="71" y="279" on="1"/>
        <pt x="71" y="327" on="0"/>
        <pt x="129" y="385" on="0"/>
        <pt x="181" y="385" on="1"/>
        <pt x="226" y="385" on="0"/>
        <pt x="315" y="340" on="0"/>
        <pt x="373" y="290" on="1"/>
        <pt x="453" y="300" on="0"/>
        <pt x="548" y="391" on="0"/>
        <pt x="548" y="458" on="1"/>
        <pt x="548" y="560" on="0"/>
        <pt x="363" y="711" on="0"/>
      </contour>
    </TTGlyph>
    <TTGlyph name="glyph00181" xMin="-491" yMin="1259" xMax="43" yMax="1836">
      <contour>
        <pt x="-390" y="1259" on="1"/>
        <pt x="-439" y="1339" on="0"/>
        <pt x="-491" y="1494" on="0"/>
        <pt x="-491" y="1560" on="1"/>
        <pt x="-491" y="1648" on="0"/>
        <pt x="-409" y="1774" on="0"/>
        <pt x="-266" y="1836" on="0"/>
        <pt x="-175" y="1836" on="1"/>
        <pt x="-107" y="1836" on="0"/>
        <pt x="1" y="1807" on="0"/>
        <pt x="43" y="1785" on="1"/>
        <pt x="-2" y="1650" on="1"/>
        <pt x="-37" y="1669" on="0"/>
        <pt x="-114" y="1694" on="0"/>
        <pt x="-159" y="1694" on="1"/>
        <pt x="-239" y="1694" on="0"/>
        <pt x="-328" y="1606" on="0"/>
        <pt x="-328" y="1529" on="1"/>
        <pt x="-328" y="1470" on="0"/>
        <pt x="-279" y="1343" on="0"/>
        <pt x="-222" y="1259" on="1"/>
      </contour>
      <contour>
        <pt x="-348" y="1274" on="1"/>
      </contour>
    </TTGlyph>
    <TTGlyph name="glyph00182" xMin="-954" yMin="-548" xMax="-66" yMax="-24">
      <contour>
        <pt x="-425" y="-174" on="1"/>
        <pt x="-858" y="-472" on="1"/>
        <pt x="-954" y="-338" on="1"/>
        <pt x="-447" y="-24" on="1"/>
        <pt x="-365" y="-24" on="1"/>
        <pt x="-66" y="-393" on="1"/>
        <pt x="-187" y="-472" on="1"/>
      </contour>
      <contour>
        <pt x="-321" y="-548" on="1"/>
      </contour>
    </TTGlyph>
    <TTGlyph name="glyph00183" xMin="0" yMin="0" xMax="1262" yMax="1274">
      <contour>
        <pt x="1234" y="1274" on="1"/>
        <pt x="1234" y="1128" on="1"/>
        <pt x="924" y="1128" on="1"/>
        <pt x="924" y="684" on="1"/>
        <pt x="978" y="721" on="0"/>
        <pt x="1092" y="754" on="0"/>
        <pt x="1161" y="754" on="1"/>
        <pt x="1262" y="754" on="1"/>
        <pt x="1262" y="608" on="1"/>
        <pt x="1187" y="608" on="1"/>
        <pt x="1094" y="608" on="0"/>
        <pt x="984" y="567" on="0"/>
        <pt x="924" y="516" on="1"/>
        <pt x="924" y="0" on="1"/>
        <pt x="759" y="0" on="1"/>
        <pt x="759" y="357" on="1"/>
        <pt x="688" y="296" on="0"/>
        <pt x="543" y="241" on="0"/>
        <pt x="463" y="241" on="1"/>
        <pt x="362" y="241" on="0"/>
        <pt x="191" y="325" on="0"/>
        <pt x="95" y="486" on="0"/>
        <pt x="95" y="594" on="1"/>
        <pt x="95" y="701" on="0"/>
        <pt x="197" y="863" on="0"/>
        <pt x="381" y="950" on="0"/>
        <pt x="500" y="950" on="1"/>
        <pt x="540" y="950" on="0"/>
        <pt x="654" y="938" on="0"/>
        <pt x="694" y="929" on="1"/>
        <pt x="682" y="780" on="1"/>
        <pt x="647" y="788" on="0"/>
        <pt x="547" y="801" on="0"/>
        <pt x="509" y="801" on="1"/>
        <pt x="392" y="801" on="0"/>
        <pt x="261" y="693" on="0"/>
        <pt x="261" y="599" on="1"/>
        <pt x="261" y="528" on="0"/>
        <pt x="319" y="431" on="0"/>
        <pt x="413" y="385" on="0"/>
        <pt x="467" y="385" on="1"/>
        <pt x="541" y="385" on="0"/>
        <pt x="684" y="455" on="0"/>
        <pt x="759" y="532" on="1"/>
        <pt x="759" y="1128" on="1"/>
        <pt x="0" y="1128" on="1"/>
        <pt x="0" y="1274" on="1"/>
      </contour>
    </TTGlyph>
    <TTGlyph name="glyph00184" xMin="0" yMin="15" xMax="1434" yMax="1274">
      <contour>
        <pt x="576" y="1128" on="1"/>
        <pt x="610" y="1049" on="0"/>
        <pt x="610" y="937" on="1"/>
        <pt x="610" y="782" on="0"/>
        <pt x="480" y="578" on="0"/>
        <pt x="343" y="518" on="1"/>
        <pt x="450" y="392" on="0"/>
        <pt x="645" y="239" on="0"/>
        <pt x="859" y="161" on="0"/>
        <pt x="985" y="161" on="1"/>
        <pt x="1103" y="161" on="0"/>
        <pt x="1299" y="214" on="0"/>
        <pt x="1385" y="266" on="1"/>
        <pt x="1434" y="131" on="1"/>
        <pt x="1234" y="15" on="0"/>
        <pt x="986" y="15" on="1"/>
        <pt x="869" y="15" on="0"/>
        <pt x="660" y="70" on="0"/>
        <pt x="450" y="195" on="0"/>
        <pt x="247" y="395" on="0"/>
        <pt x="150" y="522" on="1"/>
        <pt x="118" y="565" on="0"/>
        <pt x="81" y="643" on="0"/>
        <pt x="81" y="692" on="1"/>
        <pt x="81" y="741" on="0"/>
        <pt x="148" y="804" on="0"/>
        <pt x="212" y="804" on="1"/>
        <pt x="263" y="804" on="0"/>
        <pt x="340" y="757" on="0"/>
        <pt x="371" y="715" on="1"/>
        <pt x="407" y="747" on="0"/>
        <pt x="445" y="861" on="0"/>
        <pt x="445" y="938" on="1"/>
        <pt x="445" y="999" on="0"/>
        <pt x="425" y="1098" on="0"/>
        <pt x="411" y="1128" on="1"/>
        <pt x="0" y="1128" on="1"/>
        <pt x="0" y="1274" on="1"/>
        <pt x="1357" y="1274" on="1"/>
        <pt x="1357" y="1128" on="1"/>
      </contour>
      <contour>
        <pt x="1378" y="441" on="1"/>
        <pt x="1314" y="389" on="0"/>
        <pt x="1154" y="335" on="0"/>
        <pt x="1068" y="335" on="1"/>
        <pt x="973" y="335" on="0"/>
        <pt x="819" y="413" on="0"/>
        <pt x="730" y="559" on="0"/>
        <pt x="730" y="654" on="1"/>
        <pt x="730" y="751" on="0"/>
        <pt x="819" y="894" on="0"/>
        <pt x="981" y="969" on="0"/>
        <pt x="1087" y="969" on="1"/>
        <pt x="1128" y="969" on="0"/>
        <pt x="1236" y="956" on="0"/>
        <pt x="1261" y="948" on="1"/>
        <pt x="1249" y="807" on="1"/>
        <pt x="1218" y="814" on="0"/>
        <pt x="1143" y="828" on="0"/>
        <pt x="1106" y="828" on="1"/>
        <pt x="1005" y="828" on="0"/>
        <pt x="895" y="733" on="0"/>
        <pt x="895" y="647" on="1"/>
        <pt x="895" y="565" on="0"/>
        <pt x="1002" y="476" on="0"/>
        <pt x="1094" y="476" on="1"/>
        <pt x="1155" y="476" on="0"/>
        <pt x="1273" y="525" on="0"/>
        <pt x="1327" y="574" on="1"/>
      </contour>
    </TTGlyph>
    <TTGlyph name="glyph00185" xMin="0" yMin="365" xMax="618" yMax="1274">
      <contour>
        <pt x="427" y="1128" on="1"/>
        <pt x="427" y="479" on="1"/>
        <pt x="427" y="425" on="0"/>
        <pt x="374" y="365" on="0"/>
        <pt x="327" y="365" on="1"/>
        <pt x="276" y="365" on="0"/>
        <pt x="158" y="452" on="0"/>
        <pt x="84" y="577" on="0"/>
        <pt x="84" y="630" on="1"/>
        <pt x="84" y="683" on="0"/>
        <pt x="145" y="735" on="0"/>
        <pt x="208" y="735" on="1"/>
        <pt x="263" y="735" on="1"/>
        <pt x="263" y="1128" on="1"/>
        <pt x="0" y="1128" on="1"/>
        <pt x="0" y="1274" on="1"/>
        <pt x="618" y="1274" on="1"/>
        <pt x="618" y="1128" on="1"/>
      </contour>
    </TTGlyph>
    <TTGlyph name="glyph00186" xMin="0" yMin="241" xMax="946" yMax="1274">
      <contour>
        <pt x="295" y="1128" on="1"/>
        <pt x="252" y="1079" on="0"/>
        <pt x="252" y="1011" on="1"/>
        <pt x="252" y="941" on="0"/>
        <pt x="336" y="854" on="0"/>
        <pt x="409" y="843" on="1"/>
        <pt x="467" y="859" on="0"/>
        <pt x="539" y="859" on="1"/>
        <pt x="589" y="859" on="0"/>
        <pt x="631" y="853" on="1"/>
        <pt x="618" y="710" on="1"/>
        <pt x="592" y="713" on="0"/>
        <pt x="560" y="713" on="1"/>
        <pt x="456" y="713" on="0"/>
        <pt x="342" y="628" on="0"/>
        <pt x="342" y="550" on="1"/>
        <pt x="342" y="471" on="0"/>
        <pt x="450" y="385" on="0"/>
        <pt x="547" y="385" on="1"/>
        <pt x="637" y="385" on="0"/>
        <pt x="790" y="455" on="0"/>
        <pt x="862" y="531" on="1"/>
        <pt x="946" y="408" on="1"/>
        <pt x="855" y="323" on="0"/>
        <pt x="649" y="241" on="0"/>
        <pt x="530" y="241" on="1"/>
        <pt x="426" y="241" on="0"/>
        <pt x="265" y="316" on="0"/>
        <pt x="177" y="455" on="0"/>
        <pt x="177" y="545" on="1"/>
        <pt x="177" y="605" on="0"/>
        <pt x="221" y="713" on="0"/>
        <pt x="261" y="750" on="1"/>
        <pt x="178" y="790" on="0"/>
        <pt x="87" y="933" on="0"/>
        <pt x="87" y="1017" on="1"/>
        <pt x="87" y="1081" on="0"/>
        <pt x="107" y="1128" on="1"/>
        <pt x="0" y="1128" on="1"/>
        <pt x="0" y="1274" on="1"/>
        <pt x="749" y="1274" on="1"/>
        <pt x="749" y="1128" on="1"/>
      </contour>
    </TTGlyph>
    <TTGlyph name="glyph00187" xMin="0" yMin="-548" xMax="1458" yMax="1274">
      <component glyphName="uni0919" x="0" y="0" flags="0x204"/>
      <component glyphName="uni094D" x="950" y="0" flags="0x4"/>
    </TTGlyph>
    <TTGlyph name="glyph00188" xMin="0" yMin="241" xMax="1034" yMax="1274">
      <contour>
        <pt x="0" y="1128" on="1"/>
        <pt x="0" y="1274" on="1"/>
        <pt x="840" y="1274" on="1"/>
        <pt x="840" y="1128" on="1"/>
      </contour>
      <contour>
        <pt x="1034" y="405" on="1"/>
        <pt x="970" y="350" on="0"/>
        <pt x="885" y="297" on="0"/>
        <pt x="788" y="258" on="0"/>
        <pt x="700" y="241" on="0"/>
        <pt x="650" y="241" on="1"/>
        <pt x="546" y="241" on="0"/>
        <pt x="381" y="320" on="0"/>
        <pt x="288" y="468" on="0"/>
        <pt x="288" y="563" on="1"/>
        <pt x="288" y="621" on="0"/>
        <pt x="335" y="722" on="0"/>
        <pt x="378" y="759" on="1"/>
        <pt x="77" y="756" on="1"/>
        <pt x="77" y="904" on="1"/>
        <pt x="678" y="904" on="1"/>
        <pt x="759" y="904" on="0"/>
        <pt x="797" y="901" on="1"/>
        <pt x="783" y="758" on="1"/>
        <pt x="717" y="758" on="1"/>
        <pt x="594" y="758" on="0"/>
        <pt x="453" y="654" on="0"/>
        <pt x="453" y="562" on="1"/>
        <pt x="453" y="504" on="0"/>
        <pt x="510" y="422" on="0"/>
        <pt x="598" y="385" on="0"/>
        <pt x="650" y="385" on="1"/>
        <pt x="711" y="385" on="0"/>
        <pt x="815" y="421" on="0"/>
        <pt x="901" y="481" on="0"/>
        <pt x="952" y="532" on="1"/>
      </contour>
    </TTGlyph>
    <TTGlyph name="glyph00189" xMin="0" yMin="0" xMax="1465" yMax="1274">
      <contour>
        <pt x="1465" y="1128" on="1"/>
        <pt x="0" y="1128" on="1"/>
        <pt x="0" y="1274" on="1"/>
        <pt x="1465" y="1274" on="1"/>
      </contour>
      <contour>
        <pt x="1095" y="534" on="1"/>
        <pt x="1028" y="405" on="1"/>
        <pt x="874" y="448" on="0"/>
        <pt x="711" y="614" on="0"/>
        <pt x="711" y="729" on="1"/>
        <pt x="711" y="803" on="0"/>
        <pt x="776" y="921" on="0"/>
        <pt x="906" y="990" on="0"/>
        <pt x="997" y="990" on="1"/>
        <pt x="1091" y="990" on="0"/>
        <pt x="1244" y="912" on="0"/>
        <pt x="1337" y="748" on="0"/>
        <pt x="1337" y="630" on="1"/>
        <pt x="1337" y="515" on="0"/>
        <pt x="1238" y="291" on="0"/>
        <pt x="1044" y="106" on="0"/>
        <pt x="768" y="0" on="0"/>
        <pt x="606" y="0" on="1"/>
        <pt x="477" y="0" on="0"/>
        <pt x="296" y="77" on="0"/>
        <pt x="207" y="212" on="0"/>
        <pt x="207" y="301" on="1"/>
        <pt x="207" y="345" on="0"/>
        <pt x="238" y="436" on="0"/>
        <pt x="271" y="473" on="1"/>
        <pt x="180" y="517" on="0"/>
        <pt x="88" y="651" on="0"/>
        <pt x="88" y="735" on="1"/>
        <pt x="88" y="816" on="0"/>
        <pt x="172" y="932" on="0"/>
        <pt x="323" y="990" on="0"/>
        <pt x="421" y="990" on="1"/>
        <pt x="462" y="990" on="0"/>
        <pt x="566" y="977" on="0"/>
        <pt x="589" y="969" on="1"/>
        <pt x="577" y="828" on="1"/>
        <pt x="552" y="835" on="0"/>
        <pt x="478" y="849" on="0"/>
        <pt x="435" y="849" on="1"/>
        <pt x="345" y="849" on="0"/>
        <pt x="253" y="783" on="0"/>
        <pt x="253" y="717" on="1"/>
        <pt x="253" y="665" on="0"/>
        <pt x="330" y="594" on="0"/>
        <pt x="412" y="574" on="1"/>
        <pt x="470" y="593" on="0"/>
        <pt x="545" y="593" on="1"/>
        <pt x="591" y="593" on="0"/>
        <pt x="631" y="587" on="1"/>
        <pt x="618" y="444" on="1"/>
        <pt x="595" y="447" on="0"/>
        <pt x="566" y="447" on="1"/>
        <pt x="470" y="447" on="0"/>
        <pt x="372" y="374" on="0"/>
        <pt x="372" y="304" on="1"/>
        <pt x="372" y="225" on="0"/>
        <pt x="494" y="144" on="0"/>
        <pt x="606" y="144" on="1"/>
        <pt x="761" y="144" on="0"/>
        <pt x="1028" y="276" on="0"/>
        <pt x="1176" y="503" on="0"/>
        <pt x="1176" y="635" on="1"/>
        <pt x="1176" y="697" on="0"/>
        <pt x="1133" y="800" on="0"/>
        <pt x="1052" y="859" on="0"/>
        <pt x="997" y="859" on="1"/>
        <pt x="936" y="859" on="0"/>
        <pt x="869" y="791" on="0"/>
        <pt x="869" y="733" on="1"/>
        <pt x="869" y="662" on="0"/>
        <pt x="985" y="560" on="0"/>
      </contour>
    </TTGlyph>
    <TTGlyph name="glyph00190" xMin="0" yMin="163" xMax="1202" yMax="1274">
      <contour>
        <pt x="0" y="1128" on="1"/>
        <pt x="0" y="1274" on="1"/>
        <pt x="1202" y="1274" on="1"/>
        <pt x="1202" y="1128" on="1"/>
      </contour>
      <contour>
        <pt x="891" y="758" on="1"/>
        <pt x="853" y="758" on="0"/>
        <pt x="795" y="759" on="0"/>
        <pt x="776" y="762" on="1"/>
        <pt x="855" y="694" on="0"/>
        <pt x="939" y="530" on="0"/>
        <pt x="939" y="447" on="1"/>
        <pt x="939" y="375" on="0"/>
        <pt x="890" y="268" on="0"/>
        <pt x="807" y="197" on="0"/>
        <pt x="696" y="163" on="0"/>
        <pt x="635" y="163" on="1"/>
        <pt x="513" y="163" on="0"/>
        <pt x="315" y="307" on="0"/>
        <pt x="142" y="600" on="0"/>
        <pt x="64" y="821" on="1"/>
        <pt x="208" y="873" on="1"/>
        <pt x="305" y="588" on="0"/>
        <pt x="509" y="314" on="0"/>
        <pt x="627" y="314" on="1"/>
        <pt x="700" y="314" on="0"/>
        <pt x="777" y="390" on="0"/>
        <pt x="777" y="465" on="1"/>
        <pt x="777" y="546" on="0"/>
        <pt x="666" y="704" on="0"/>
        <pt x="560" y="772" on="1"/>
        <pt x="618" y="904" on="1"/>
        <pt x="1172" y="904" on="1"/>
        <pt x="1172" y="758" on="1"/>
      </contour>
    </TTGlyph>
    <TTGlyph name="glyph00191" xMin="0" yMin="-225" xMax="1226" yMax="1274">
      <contour>
        <pt x="1226" y="482" on="1"/>
        <pt x="1145" y="424" on="0"/>
        <pt x="980" y="375" on="0"/>
        <pt x="876" y="375" on="1"/>
        <pt x="881" y="346" on="0"/>
        <pt x="881" y="316" on="1"/>
        <pt x="881" y="252" on="0"/>
        <pt x="834" y="154" on="0"/>
        <pt x="757" y="81" on="0"/>
        <pt x="659" y="33" on="0"/>
        <pt x="608" y="20" on="1"/>
        <pt x="741" y="-42" on="0"/>
        <pt x="890" y="-82" on="1"/>
        <pt x="823" y="-225" on="1"/>
        <pt x="598" y="-135" on="0"/>
        <pt x="402" y="1" on="1"/>
        <pt x="271" y="6" on="0"/>
        <pt x="151" y="68" on="0"/>
        <pt x="151" y="129" on="1"/>
        <pt x="151" y="177" on="0"/>
        <pt x="209" y="235" on="0"/>
        <pt x="261" y="235" on="1"/>
        <pt x="303" y="235" on="0"/>
        <pt x="389" y="193" on="0"/>
        <pt x="452" y="140" on="1"/>
        <pt x="526" y="140" on="0"/>
        <pt x="650" y="185" on="0"/>
        <pt x="719" y="267" on="0"/>
        <pt x="719" y="321" on="1"/>
        <pt x="719" y="388" on="0"/>
        <pt x="621" y="468" on="0"/>
        <pt x="538" y="468" on="1"/>
        <pt x="502" y="468" on="0"/>
        <pt x="411" y="449" on="0"/>
        <pt x="370" y="432" on="1"/>
        <pt x="244" y="467" on="0"/>
        <pt x="102" y="622" on="0"/>
        <pt x="102" y="721" on="1"/>
        <pt x="102" y="781" on="0"/>
        <pt x="146" y="865" on="0"/>
        <pt x="230" y="924" on="0"/>
        <pt x="343" y="953" on="0"/>
        <pt x="430" y="953" on="1"/>
        <pt x="622" y="953" on="1"/>
        <pt x="622" y="1128" on="1"/>
        <pt x="0" y="1128" on="1"/>
        <pt x="0" y="1274" on="1"/>
        <pt x="1014" y="1274" on="1"/>
        <pt x="1014" y="1128" on="1"/>
        <pt x="787" y="1128" on="1"/>
        <pt x="787" y="807" on="1"/>
        <pt x="425" y="807" on="1"/>
        <pt x="382" y="807" on="0"/>
        <pt x="326" y="800" on="0"/>
        <pt x="294" y="784" on="0"/>
        <pt x="272" y="761" on="0"/>
        <pt x="260" y="729" on="0"/>
        <pt x="260" y="710" on="1"/>
        <pt x="260" y="668" on="0"/>
        <pt x="324" y="604" on="0"/>
        <pt x="377" y="590" on="1"/>
        <pt x="452" y="614" on="0"/>
        <pt x="530" y="614" on="1"/>
        <pt x="606" y="614" on="0"/>
        <pt x="732" y="576" on="0"/>
        <pt x="778" y="539" on="1"/>
        <pt x="825" y="519" on="0"/>
        <pt x="892" y="519" on="1"/>
        <pt x="969" y="519" on="0"/>
        <pt x="1100" y="571" on="0"/>
        <pt x="1166" y="632" on="1"/>
      </contour>
    </TTGlyph>
    <TTGlyph name="glyph00192" xMin="0" yMin="242" xMax="1171" yMax="1274">
      <contour>
        <pt x="0" y="1128" on="1"/>
        <pt x="0" y="1274" on="1"/>
        <pt x="1135" y="1274" on="1"/>
        <pt x="1135" y="1128" on="1"/>
      </contour>
      <contour>
        <pt x="1171" y="523" on="1"/>
        <pt x="1091" y="502" on="0"/>
        <pt x="992" y="502" on="1"/>
        <pt x="988" y="502" on="1"/>
        <pt x="972" y="424" on="0"/>
        <pt x="872" y="305" on="0"/>
        <pt x="709" y="242" on="0"/>
        <pt x="614" y="242" on="1"/>
        <pt x="432" y="242" on="0"/>
        <pt x="158" y="470" on="0"/>
        <pt x="60" y="693" on="1"/>
        <pt x="200" y="747" on="1"/>
        <pt x="258" y="615" on="0"/>
        <pt x="374" y="464" on="0"/>
        <pt x="511" y="393" on="0"/>
        <pt x="603" y="393" on="1"/>
        <pt x="714" y="393" on="0"/>
        <pt x="841" y="499" on="0"/>
        <pt x="841" y="588" on="1"/>
        <pt x="841" y="673" on="0"/>
        <pt x="736" y="763" on="0"/>
        <pt x="640" y="763" on="1"/>
        <pt x="589" y="763" on="0"/>
        <pt x="496" y="736" on="0"/>
        <pt x="449" y="712" on="1"/>
        <pt x="393" y="860" on="1"/>
        <pt x="449" y="885" on="0"/>
        <pt x="584" y="914" on="0"/>
        <pt x="646" y="914" on="1"/>
        <pt x="737" y="914" on="0"/>
        <pt x="886" y="851" on="0"/>
        <pt x="979" y="730" on="0"/>
        <pt x="992" y="646" on="1"/>
        <pt x="1009" y="646" on="1"/>
        <pt x="1099" y="646" on="0"/>
        <pt x="1171" y="680" on="1"/>
      </contour>
    </TTGlyph>
    <TTGlyph name="glyph00193" xMin="0" yMin="-548" xMax="1123" yMax="1274">
      <component glyphName="uni091F" x="0" y="0" flags="0x204"/>
      <component glyphName="uni094D" x="813" y="0" flags="0x4"/>
    </TTGlyph>
    <TTGlyph name="glyph00194" xMin="0" yMin="-548" xMax="1228" yMax="1274">
      <component glyphName="uni0920" x="0" y="0" flags="0x204"/>
      <component glyphName="uni094D" x="812" y="0" flags="0x4"/>
    </TTGlyph>
    <TTGlyph name="glyph00195" xMin="0" yMin="-548" xMax="1315" yMax="1274">
      <component glyphName="uni0921" x="0" y="0" flags="0x204"/>
      <component glyphName="uni094D" x="950" y="0" flags="0x4"/>
    </TTGlyph>
    <TTGlyph name="glyph00196" xMin="0" yMin="-548" xMax="1182" yMax="1274">
      <component glyphName="uni0922" x="0" y="0" flags="0x204"/>
      <component glyphName="uni094D" x="818" y="0" flags="0x4"/>
    </TTGlyph>
    <TTGlyph name="glyph00197" xMin="0" yMin="300" xMax="986" yMax="1274">
      <contour>
        <pt x="861" y="1128" on="1"/>
        <pt x="861" y="658" on="1"/>
        <pt x="861" y="579" on="0"/>
        <pt x="833" y="468" on="0"/>
        <pt x="774" y="382" on="0"/>
        <pt x="689" y="327" on="0"/>
        <pt x="581" y="300" on="0"/>
        <pt x="514" y="300" on="1"/>
        <pt x="396" y="300" on="0"/>
        <pt x="240" y="388" on="0"/>
        <pt x="162" y="566" on="0"/>
        <pt x="162" y="720" on="1"/>
        <pt x="162" y="1128" on="1"/>
        <pt x="0" y="1128" on="1"/>
        <pt x="0" y="1274" on="1"/>
        <pt x="986" y="1274" on="1"/>
        <pt x="986" y="1128" on="1"/>
      </contour>
      <contour>
        <pt x="697" y="1128" on="1"/>
        <pt x="326" y="1128" on="1"/>
        <pt x="326" y="722" on="1"/>
        <pt x="326" y="649" on="0"/>
        <pt x="341" y="560" on="0"/>
        <pt x="370" y="499" on="0"/>
        <pt x="413" y="462" on="0"/>
        <pt x="471" y="445" on="0"/>
        <pt x="509" y="445" on="1"/>
        <pt x="573" y="445" on="0"/>
        <pt x="646" y="484" on="0"/>
        <pt x="685" y="555" on="0"/>
        <pt x="697" y="645" on="0"/>
        <pt x="697" y="722" on="1"/>
      </contour>
    </TTGlyph>
    <TTGlyph name="glyph00198" xMin="0" yMin="-25" xMax="819" yMax="1274">
      <contour>
        <pt x="0" y="1128" on="1"/>
        <pt x="0" y="1274" on="1"/>
        <pt x="785" y="1274" on="1"/>
        <pt x="785" y="1128" on="1"/>
      </contour>
      <contour>
        <pt x="596" y="672" on="1"/>
        <pt x="467" y="672" on="0"/>
        <pt x="338" y="645" on="0"/>
        <pt x="258" y="563" on="0"/>
        <pt x="258" y="486" on="1"/>
        <pt x="258" y="421" on="0"/>
        <pt x="321" y="299" on="0"/>
        <pt x="447" y="168" on="0"/>
        <pt x="554" y="82" on="1"/>
        <pt x="444" y="-25" on="1"/>
        <pt x="301" y="98" on="0"/>
        <pt x="168" y="253" on="0"/>
        <pt x="93" y="411" on="0"/>
        <pt x="93" y="496" on="1"/>
        <pt x="93" y="563" on="0"/>
        <pt x="148" y="686" on="0"/>
        <pt x="266" y="778" on="0"/>
        <pt x="433" y="818" on="0"/>
        <pt x="558" y="818" on="1"/>
        <pt x="819" y="818" on="1"/>
        <pt x="819" y="672" on="1"/>
      </contour>
    </TTGlyph>
    <TTGlyph name="glyph00199" xMin="95" yMin="270" xMax="1043" yMax="1294">
      <contour>
        <pt x="382" y="801" on="1"/>
        <pt x="95" y="842" on="0"/>
        <pt x="95" y="1063" on="1"/>
        <pt x="95" y="1138" on="0"/>
        <pt x="164" y="1244" on="0"/>
        <pt x="280" y="1294" on="0"/>
        <pt x="353" y="1294" on="1"/>
        <pt x="448" y="1294" on="0"/>
        <pt x="605" y="1210" on="0"/>
        <pt x="688" y="1059" on="0"/>
        <pt x="688" y="960" on="1"/>
        <pt x="688" y="817" on="0"/>
        <pt x="533" y="623" on="0"/>
        <pt x="373" y="560" on="1"/>
        <pt x="424" y="480" on="0"/>
        <pt x="545" y="415" on="0"/>
        <pt x="643" y="415" on="1"/>
        <pt x="732" y="415" on="0"/>
        <pt x="888" y="484" on="0"/>
        <pt x="967" y="563" on="1"/>
        <pt x="1043" y="425" on="1"/>
        <pt x="948" y="345" on="0"/>
        <pt x="746" y="270" on="0"/>
        <pt x="630" y="270" on="1"/>
        <pt x="515" y="270" on="0"/>
        <pt x="327" y="358" on="0"/>
        <pt x="198" y="534" on="0"/>
        <pt x="169" y="660" on="1"/>
        <pt x="348" y="696" on="0"/>
        <pt x="523" y="836" on="0"/>
        <pt x="523" y="956" on="1"/>
        <pt x="523" y="1022" on="0"/>
        <pt x="478" y="1116" on="0"/>
        <pt x="400" y="1163" on="0"/>
        <pt x="351" y="1163" on="1"/>
        <pt x="298" y="1163" on="0"/>
        <pt x="233" y="1112" on="0"/>
        <pt x="233" y="1068" on="1"/>
        <pt x="233" y="1016" on="0"/>
        <pt x="312" y="954" on="0"/>
        <pt x="399" y="945" on="1"/>
      </contour>
      <contour>
        <pt x="169" y="514" on="1"/>
      </contour>
      <contour>
        <pt x="785" y="1274" on="1"/>
      </contour>
    </TTGlyph>
    <TTGlyph name="glyph00200" xMin="0" yMin="-548" xMax="1264" yMax="1274">
      <component glyphName="uni0926" x="0" y="0" flags="0x204"/>
      <component glyphName="uni094D" x="954" y="0" flags="0x4"/>
    </TTGlyph>
    <TTGlyph name="glyph00201" xMin="87" yMin="211" xMax="988" yMax="1295">
      <contour>
        <pt x="988" y="365" on="1"/>
        <pt x="924" y="311" on="0"/>
        <pt x="810" y="248" on="0"/>
        <pt x="668" y="211" on="0"/>
        <pt x="580" y="211" on="1"/>
        <pt x="476" y="211" on="0"/>
        <pt x="315" y="286" on="0"/>
        <pt x="227" y="425" on="0"/>
        <pt x="227" y="515" on="1"/>
        <pt x="227" y="569" on="0"/>
        <pt x="263" y="672" on="0"/>
        <pt x="303" y="712" on="1"/>
        <pt x="196" y="753" on="0"/>
        <pt x="87" y="904" on="0"/>
        <pt x="87" y="1010" on="1"/>
        <pt x="87" y="1090" on="0"/>
        <pt x="162" y="1221" on="0"/>
        <pt x="298" y="1295" on="0"/>
        <pt x="383" y="1295" on="1"/>
        <pt x="454" y="1295" on="0"/>
        <pt x="570" y="1244" on="0"/>
        <pt x="637" y="1148" on="0"/>
        <pt x="637" y="1087" on="1"/>
        <pt x="637" y="1039" on="0"/>
        <pt x="596" y="945" on="0"/>
        <pt x="556" y="908" on="1"/>
        <pt x="431" y="987" on="1"/>
        <pt x="472" y="1027" on="0"/>
        <pt x="472" y="1077" on="1"/>
        <pt x="472" y="1116" on="0"/>
        <pt x="422" y="1163" on="0"/>
        <pt x="376" y="1163" on="1"/>
        <pt x="338" y="1163" on="0"/>
        <pt x="275" y="1121" on="0"/>
        <pt x="238" y="1047" on="0"/>
        <pt x="238" y="1002" on="1"/>
        <pt x="238" y="951" on="0"/>
        <pt x="275" y="883" on="0"/>
        <pt x="337" y="839" on="0"/>
        <pt x="416" y="817" on="0"/>
        <pt x="457" y="813" on="1"/>
        <pt x="515" y="829" on="0"/>
        <pt x="589" y="829" on="1"/>
        <pt x="639" y="829" on="0"/>
        <pt x="681" y="823" on="1"/>
        <pt x="668" y="680" on="1"/>
        <pt x="642" y="683" on="0"/>
        <pt x="610" y="683" on="1"/>
        <pt x="506" y="683" on="0"/>
        <pt x="392" y="598" on="0"/>
        <pt x="392" y="520" on="1"/>
        <pt x="392" y="441" on="0"/>
        <pt x="500" y="355" on="0"/>
        <pt x="597" y="355" on="1"/>
        <pt x="687" y="355" on="0"/>
        <pt x="840" y="425" on="0"/>
        <pt x="912" y="501" on="1"/>
      </contour>
      <contour>
        <pt x="741" y="1274" on="1"/>
      </contour>
    </TTGlyph>
    <TTGlyph name="glyph00202" xMin="0" yMin="386" xMax="788" yMax="1274">
      <contour>
        <pt x="0" y="1128" on="1"/>
        <pt x="0" y="1274" on="1"/>
        <pt x="763" y="1274" on="1"/>
        <pt x="763" y="1128" on="1"/>
      </contour>
      <contour>
        <pt x="419" y="610" on="1"/>
        <pt x="419" y="500" on="1"/>
        <pt x="419" y="445" on="0"/>
        <pt x="364" y="386" on="0"/>
        <pt x="314" y="386" on="1"/>
        <pt x="266" y="386" on="0"/>
        <pt x="152" y="471" on="0"/>
        <pt x="76" y="597" on="0"/>
        <pt x="76" y="651" on="1"/>
        <pt x="76" y="756" on="0"/>
        <pt x="200" y="756" on="1"/>
        <pt x="788" y="756" on="1"/>
        <pt x="788" y="610" on="1"/>
      </contour>
    </TTGlyph>
    <TTGlyph name="glyph00203" xMin="0" yMin="300" xMax="893" yMax="1274">
      <contour>
        <pt x="326" y="1128" on="1"/>
        <pt x="326" y="755" on="1"/>
        <pt x="326" y="657" on="0"/>
        <pt x="340" y="561" on="0"/>
        <pt x="371" y="506" on="0"/>
        <pt x="417" y="465" on="0"/>
        <pt x="487" y="445" on="0"/>
        <pt x="536" y="445" on="1"/>
        <pt x="609" y="445" on="0"/>
        <pt x="756" y="515" on="0"/>
        <pt x="817" y="578" on="1"/>
        <pt x="893" y="439" on="1"/>
        <pt x="808" y="379" on="0"/>
        <pt x="699" y="327" on="0"/>
        <pt x="587" y="300" on="0"/>
        <pt x="521" y="300" on="1"/>
        <pt x="436" y="300" on="0"/>
        <pt x="296" y="358" on="0"/>
        <pt x="201" y="469" on="0"/>
        <pt x="162" y="616" on="0"/>
        <pt x="162" y="734" on="1"/>
        <pt x="162" y="1128" on="1"/>
        <pt x="0" y="1128" on="1"/>
        <pt x="0" y="1274" on="1"/>
        <pt x="660" y="1274" on="1"/>
        <pt x="660" y="1128" on="1"/>
      </contour>
    </TTGlyph>
    <TTGlyph name="glyph00204" xMin="0" yMin="0" xMax="1280" yMax="1274">
      <contour>
        <pt x="777" y="0" on="1"/>
        <pt x="777" y="396" on="1"/>
        <pt x="657" y="300" on="0"/>
        <pt x="508" y="300" on="1"/>
        <pt x="431" y="300" on="0"/>
        <pt x="292" y="359" on="0"/>
        <pt x="201" y="470" on="0"/>
        <pt x="162" y="610" on="0"/>
        <pt x="162" y="726" on="1"/>
        <pt x="162" y="1128" on="1"/>
        <pt x="0" y="1128" on="1"/>
        <pt x="0" y="1274" on="1"/>
        <pt x="1252" y="1274" on="1"/>
        <pt x="1252" y="1128" on="1"/>
        <pt x="942" y="1128" on="1"/>
        <pt x="942" y="690" on="1"/>
        <pt x="991" y="723" on="0"/>
        <pt x="1101" y="754" on="0"/>
        <pt x="1179" y="754" on="1"/>
        <pt x="1280" y="754" on="1"/>
        <pt x="1280" y="608" on="1"/>
        <pt x="1205" y="608" on="1"/>
        <pt x="1131" y="608" on="0"/>
        <pt x="1051" y="594" on="0"/>
        <pt x="981" y="560" on="0"/>
        <pt x="942" y="527" on="1"/>
        <pt x="942" y="0" on="1"/>
      </contour>
      <contour>
        <pt x="326" y="1128" on="1"/>
        <pt x="326" y="737" on="1"/>
        <pt x="326" y="677" on="0"/>
        <pt x="332" y="595" on="0"/>
        <pt x="350" y="533" on="0"/>
        <pt x="385" y="485" on="0"/>
        <pt x="424" y="458" on="0"/>
        <pt x="476" y="445" on="0"/>
        <pt x="506" y="445" on="1"/>
        <pt x="580" y="445" on="0"/>
        <pt x="711" y="506" on="0"/>
        <pt x="777" y="573" on="1"/>
        <pt x="777" y="1128" on="1"/>
      </contour>
    </TTGlyph>
    <TTGlyph name="glyph00205" xMin="0" yMin="241" xMax="900" yMax="1274">
      <contour>
        <pt x="0" y="1128" on="1"/>
        <pt x="0" y="1274" on="1"/>
        <pt x="852" y="1274" on="1"/>
        <pt x="852" y="1128" on="1"/>
      </contour>
      <contour>
        <pt x="900" y="396" on="1"/>
        <pt x="805" y="316" on="0"/>
        <pt x="605" y="241" on="0"/>
        <pt x="493" y="241" on="1"/>
        <pt x="379" y="241" on="0"/>
        <pt x="197" y="327" on="0"/>
        <pt x="95" y="484" on="0"/>
        <pt x="95" y="586" on="1"/>
        <pt x="95" y="700" on="0"/>
        <pt x="206" y="865" on="0"/>
        <pt x="409" y="950" on="0"/>
        <pt x="542" y="950" on="1"/>
        <pt x="593" y="950" on="0"/>
        <pt x="728" y="937" on="0"/>
        <pt x="756" y="929" on="1"/>
        <pt x="744" y="788" on="1"/>
        <pt x="623" y="809" on="0"/>
        <pt x="548" y="809" on="1"/>
        <pt x="507" y="809" on="0"/>
        <pt x="472" y="804" on="1"/>
        <pt x="747" y="460" on="1"/>
        <pt x="780" y="484" on="0"/>
        <pt x="822" y="525" on="1"/>
      </contour>
      <contour>
        <pt x="630" y="399" on="1"/>
        <pt x="344" y="757" on="1"/>
        <pt x="260" y="698" on="0"/>
        <pt x="260" y="587" on="1"/>
        <pt x="260" y="517" on="0"/>
        <pt x="324" y="422" on="0"/>
        <pt x="430" y="377" on="0"/>
        <pt x="495" y="377" on="1"/>
        <pt x="567" y="377" on="0"/>
      </contour>
    </TTGlyph>
    <TTGlyph name="glyph00206" xMin="95" yMin="309" xMax="1091" yMax="1294">
      <contour>
        <pt x="679" y="511" on="1"/>
        <pt x="679" y="437" on="1"/>
        <pt x="679" y="377" on="0"/>
        <pt x="625" y="309" on="0"/>
        <pt x="580" y="309" on="1"/>
        <pt x="532" y="309" on="0"/>
        <pt x="416" y="392" on="0"/>
        <pt x="335" y="519" on="0"/>
        <pt x="335" y="569" on="1"/>
        <pt x="335" y="612" on="0"/>
        <pt x="398" y="657" on="0"/>
        <pt x="459" y="657" on="1"/>
        <pt x="519" y="657" on="1"/>
        <pt x="519" y="873" on="1"/>
        <pt x="519" y="995" on="0"/>
        <pt x="481" y="1108" on="0"/>
        <pt x="404" y="1163" on="0"/>
        <pt x="346" y="1163" on="1"/>
        <pt x="290" y="1163" on="0"/>
        <pt x="233" y="1110" on="0"/>
        <pt x="233" y="1068" on="1"/>
        <pt x="233" y="1006" on="0"/>
        <pt x="338" y="947" on="0"/>
        <pt x="446" y="942" on="1"/>
        <pt x="431" y="796" on="1"/>
        <pt x="95" y="824" on="0"/>
        <pt x="95" y="1064" on="1"/>
        <pt x="95" y="1141" on="0"/>
        <pt x="165" y="1245" on="0"/>
        <pt x="283" y="1294" on="0"/>
        <pt x="356" y="1294" on="1"/>
        <pt x="427" y="1294" on="0"/>
        <pt x="546" y="1254" on="0"/>
        <pt x="641" y="1152" on="0"/>
        <pt x="679" y="1002" on="0"/>
        <pt x="679" y="894" on="1"/>
        <pt x="679" y="657" on="1"/>
        <pt x="1091" y="657" on="1"/>
        <pt x="1091" y="511" on="1"/>
      </contour>
      <contour>
        <pt x="824" y="1128" on="1"/>
        <pt x="824" y="1274" on="1"/>
        <pt x="930" y="1274" on="1"/>
        <pt x="930" y="1128" on="1"/>
      </contour>
    </TTGlyph>
    <TTGlyph name="glyph00207" xMin="0" yMin="309" xMax="846" yMax="1274">
      <contour>
        <pt x="424" y="1128" on="1"/>
        <pt x="424" y="657" on="1"/>
        <pt x="846" y="657" on="1"/>
        <pt x="846" y="511" on="1"/>
        <pt x="424" y="511" on="1"/>
        <pt x="424" y="437" on="1"/>
        <pt x="424" y="377" on="0"/>
        <pt x="370" y="309" on="0"/>
        <pt x="325" y="309" on="1"/>
        <pt x="277" y="309" on="0"/>
        <pt x="161" y="392" on="0"/>
        <pt x="80" y="519" on="0"/>
        <pt x="80" y="569" on="1"/>
        <pt x="80" y="612" on="0"/>
        <pt x="144" y="657" on="0"/>
        <pt x="205" y="657" on="1"/>
        <pt x="260" y="657" on="1"/>
        <pt x="260" y="1128" on="1"/>
        <pt x="0" y="1128" on="1"/>
        <pt x="0" y="1274" on="1"/>
        <pt x="685" y="1274" on="1"/>
        <pt x="685" y="1128" on="1"/>
      </contour>
    </TTGlyph>
    <TTGlyph name="glyph00208" xMin="0" yMin="270" xMax="919" yMax="1274">
      <contour>
        <pt x="433" y="1128" on="1"/>
        <pt x="461" y="1076" on="0"/>
        <pt x="492" y="965" on="0"/>
        <pt x="492" y="912" on="1"/>
        <pt x="492" y="804" on="0"/>
        <pt x="377" y="653" on="0"/>
        <pt x="264" y="617" on="1"/>
        <pt x="305" y="514" on="0"/>
        <pt x="432" y="415" on="0"/>
        <pt x="530" y="415" on="1"/>
        <pt x="616" y="415" on="0"/>
        <pt x="773" y="488" on="0"/>
        <pt x="841" y="563" on="1"/>
        <pt x="919" y="425" on="1"/>
        <pt x="822" y="343" on="0"/>
        <pt x="629" y="270" on="0"/>
        <pt x="518" y="270" on="1"/>
        <pt x="341" y="270" on="0"/>
        <pt x="108" y="508" on="0"/>
        <pt x="78" y="722" on="1"/>
        <pt x="210" y="750" on="0"/>
        <pt x="327" y="850" on="0"/>
        <pt x="327" y="936" on="1"/>
        <pt x="327" y="1029" on="0"/>
        <pt x="252" y="1128" on="1"/>
        <pt x="0" y="1128" on="1"/>
        <pt x="0" y="1274" on="1"/>
        <pt x="702" y="1274" on="1"/>
        <pt x="702" y="1128" on="1"/>
      </contour>
      <contour>
        <pt x="78" y="576" on="1"/>
      </contour>
    </TTGlyph>
    <TTGlyph name="glyph00209" xMin="0" yMin="520" xMax="893" yMax="1274">
      <contour>
        <pt x="848" y="1128" on="1"/>
        <pt x="0" y="1128" on="1"/>
        <pt x="0" y="1274" on="1"/>
        <pt x="848" y="1274" on="1"/>
      </contour>
      <contour>
        <pt x="893" y="597" on="1"/>
        <pt x="831" y="559" on="0"/>
        <pt x="675" y="520" on="0"/>
        <pt x="593" y="520" on="1"/>
        <pt x="463" y="520" on="0"/>
        <pt x="204" y="605" on="0"/>
        <pt x="67" y="683" on="1"/>
        <pt x="131" y="803" on="1"/>
        <pt x="269" y="728" on="0"/>
        <pt x="459" y="671" on="0"/>
        <pt x="556" y="671" on="1"/>
        <pt x="660" y="671" on="0"/>
        <pt x="813" y="713" on="0"/>
        <pt x="893" y="759" on="1"/>
      </contour>
    </TTGlyph>
    <TTGlyph name="glyph00210" xMin="0" yMin="-25" xMax="1138" yMax="1274">
      <contour>
        <pt x="0" y="1128" on="1"/>
        <pt x="0" y="1274" on="1"/>
        <pt x="1054" y="1274" on="1"/>
        <pt x="1054" y="1128" on="1"/>
      </contour>
      <contour>
        <pt x="1095" y="715" on="1"/>
        <pt x="1054" y="729" on="0"/>
        <pt x="1011" y="729" on="1"/>
        <pt x="913" y="729" on="0"/>
        <pt x="773" y="577" on="0"/>
        <pt x="729" y="427" on="1"/>
        <pt x="572" y="476" on="1"/>
        <pt x="597" y="572" on="0"/>
        <pt x="636" y="641" on="1"/>
        <pt x="576" y="686" on="0"/>
        <pt x="478" y="722" on="0"/>
        <pt x="428" y="722" on="1"/>
        <pt x="349" y="722" on="0"/>
        <pt x="258" y="632" on="0"/>
        <pt x="258" y="556" on="1"/>
        <pt x="258" y="528" on="0"/>
        <pt x="269" y="474" on="0"/>
        <pt x="295" y="417" on="0"/>
        <pt x="342" y="348" on="0"/>
        <pt x="421" y="264" on="0"/>
        <pt x="547" y="153" on="0"/>
        <pt x="632" y="82" on="1"/>
        <pt x="522" y="-25" on="1"/>
        <pt x="408" y="72" on="0"/>
        <pt x="283" y="188" on="0"/>
        <pt x="183" y="304" on="0"/>
        <pt x="122" y="410" on="0"/>
        <pt x="93" y="511" on="0"/>
        <pt x="93" y="564" on="1"/>
        <pt x="93" y="657" on="0"/>
        <pt x="179" y="796" on="0"/>
        <pt x="331" y="872" on="0"/>
        <pt x="418" y="872" on="1"/>
        <pt x="502" y="872" on="0"/>
        <pt x="654" y="816" on="0"/>
        <pt x="725" y="758" on="1"/>
        <pt x="847" y="872" on="0"/>
        <pt x="1023" y="872" on="1"/>
        <pt x="1053" y="872" on="0"/>
        <pt x="1115" y="863" on="0"/>
        <pt x="1138" y="855" on="1"/>
      </contour>
    </TTGlyph>
    <TTGlyph name="glyph00211" xMin="0" yMin="130" xMax="1497" yMax="1274">
      <contour>
        <pt x="0" y="1128" on="1"/>
        <pt x="0" y="1274" on="1"/>
        <pt x="1497" y="1274" on="1"/>
        <pt x="1497" y="1128" on="1"/>
      </contour>
      <contour>
        <pt x="807" y="738" on="1"/>
        <pt x="848" y="798" on="0"/>
        <pt x="939" y="869" on="0"/>
        <pt x="1043" y="899" on="0"/>
        <pt x="1113" y="899" on="1"/>
        <pt x="1209" y="899" on="0"/>
        <pt x="1368" y="809" on="0"/>
        <pt x="1462" y="632" on="0"/>
        <pt x="1462" y="511" on="1"/>
        <pt x="1462" y="403" on="0"/>
        <pt x="1374" y="230" on="0"/>
        <pt x="1210" y="130" on="0"/>
        <pt x="1102" y="130" on="1"/>
        <pt x="1031" y="130" on="0"/>
        <pt x="910" y="169" on="0"/>
        <pt x="807" y="237" on="0"/>
        <pt x="748" y="292" on="1"/>
        <pt x="694" y="212" on="0"/>
        <pt x="551" y="130" on="0"/>
        <pt x="443" y="130" on="1"/>
        <pt x="346" y="130" on="0"/>
        <pt x="189" y="218" on="0"/>
        <pt x="94" y="394" on="0"/>
        <pt x="94" y="517" on="1"/>
        <pt x="94" y="630" on="0"/>
        <pt x="186" y="804" on="0"/>
        <pt x="351" y="899" on="0"/>
        <pt x="454" y="899" on="1"/>
        <pt x="524" y="899" on="0"/>
        <pt x="642" y="862" on="0"/>
        <pt x="745" y="795" on="0"/>
      </contour>
      <contour>
        <pt x="818" y="416" on="1"/>
        <pt x="892" y="340" on="0"/>
        <pt x="1015" y="276" on="0"/>
        <pt x="1081" y="276" on="1"/>
        <pt x="1139" y="276" on="0"/>
        <pt x="1237" y="325" on="0"/>
        <pt x="1297" y="434" on="0"/>
        <pt x="1297" y="516" on="1"/>
        <pt x="1297" y="600" on="0"/>
        <pt x="1246" y="706" on="0"/>
        <pt x="1160" y="753" on="0"/>
        <pt x="1107" y="753" on="1"/>
        <pt x="1034" y="753" on="0"/>
        <pt x="925" y="655" on="0"/>
        <pt x="872" y="537" on="1"/>
      </contour>
      <contour>
        <pt x="737" y="612" on="1"/>
        <pt x="660" y="690" on="0"/>
        <pt x="539" y="753" on="0"/>
        <pt x="475" y="753" on="1"/>
        <pt x="417" y="753" on="0"/>
        <pt x="319" y="704" on="0"/>
        <pt x="259" y="595" on="0"/>
        <pt x="259" y="513" on="1"/>
        <pt x="259" y="430" on="0"/>
        <pt x="311" y="323" on="0"/>
        <pt x="395" y="276" on="0"/>
        <pt x="447" y="276" on="1"/>
        <pt x="519" y="276" on="0"/>
        <pt x="630" y="375" on="0"/>
        <pt x="683" y="492" on="1"/>
      </contour>
    </TTGlyph>
    <TTGlyph name="glyph00212" xMin="0" yMin="241" xMax="870" yMax="1274">
      <contour>
        <pt x="0" y="1128" on="1"/>
        <pt x="0" y="1274" on="1"/>
        <pt x="832" y="1274" on="1"/>
        <pt x="832" y="1128" on="1"/>
      </contour>
      <contour>
        <pt x="870" y="396" on="1"/>
        <pt x="777" y="318" on="0"/>
        <pt x="583" y="241" on="0"/>
        <pt x="477" y="241" on="1"/>
        <pt x="367" y="241" on="0"/>
        <pt x="193" y="327" on="0"/>
        <pt x="95" y="484" on="0"/>
        <pt x="95" y="586" on="1"/>
        <pt x="95" y="700" on="0"/>
        <pt x="201" y="865" on="0"/>
        <pt x="395" y="950" on="0"/>
        <pt x="522" y="950" on="1"/>
        <pt x="570" y="950" on="0"/>
        <pt x="699" y="937" on="0"/>
        <pt x="726" y="929" on="1"/>
        <pt x="714" y="780" on="1"/>
        <pt x="600" y="801" on="0"/>
        <pt x="530" y="801" on="1"/>
        <pt x="401" y="801" on="0"/>
        <pt x="260" y="688" on="0"/>
        <pt x="260" y="587" on="1"/>
        <pt x="260" y="520" on="0"/>
        <pt x="320" y="428" on="0"/>
        <pt x="421" y="385" on="0"/>
        <pt x="482" y="385" on="1"/>
        <pt x="654" y="385" on="0"/>
        <pt x="792" y="531" on="1"/>
      </contour>
    </TTGlyph>
    <TTGlyph name="glyph00213" xMin="81" yMin="-2" xMax="847" yMax="1294">
      <contour>
        <pt x="392" y="564" on="1"/>
        <pt x="501" y="600" on="0"/>
        <pt x="625" y="782" on="0"/>
        <pt x="625" y="908" on="1"/>
        <pt x="625" y="981" on="0"/>
        <pt x="570" y="1098" on="0"/>
        <pt x="471" y="1163" on="0"/>
        <pt x="407" y="1163" on="1"/>
        <pt x="348" y="1163" on="0"/>
        <pt x="283" y="1105" on="0"/>
        <pt x="283" y="1056" on="1"/>
        <pt x="283" y="982" on="0"/>
        <pt x="423" y="904" on="0"/>
        <pt x="553" y="901" on="1"/>
        <pt x="519" y="757" on="1"/>
        <pt x="395" y="765" on="0"/>
        <pt x="221" y="848" on="0"/>
        <pt x="135" y="978" on="0"/>
        <pt x="135" y="1058" on="1"/>
        <pt x="135" y="1128" on="0"/>
        <pt x="197" y="1234" on="0"/>
        <pt x="325" y="1294" on="0"/>
        <pt x="418" y="1294" on="1"/>
        <pt x="522" y="1294" on="0"/>
        <pt x="693" y="1198" on="0"/>
        <pt x="787" y="1019" on="0"/>
        <pt x="787" y="901" on="1"/>
        <pt x="787" y="759" on="0"/>
        <pt x="646" y="520" on="0"/>
        <pt x="520" y="452" on="1"/>
        <pt x="686" y="307" on="0"/>
        <pt x="847" y="89" on="1"/>
        <pt x="716" y="-2" on="1"/>
        <pt x="618" y="136" on="0"/>
        <pt x="450" y="329" on="0"/>
        <pt x="367" y="399" on="1"/>
        <pt x="311" y="388" on="0"/>
        <pt x="249" y="388" on="1"/>
        <pt x="202" y="388" on="0"/>
        <pt x="125" y="420" on="0"/>
        <pt x="81" y="482" on="0"/>
        <pt x="81" y="522" on="1"/>
        <pt x="81" y="579" on="0"/>
        <pt x="151" y="644" on="0"/>
        <pt x="212" y="644" on="1"/>
        <pt x="253" y="644" on="0"/>
        <pt x="334" y="607" on="0"/>
      </contour>
      <contour>
        <pt x="249" y="534" on="1"/>
      </contour>
    </TTGlyph>
    <TTGlyph name="glyph00214" xMin="0" yMin="300" xMax="913" yMax="1274">
      <contour>
        <pt x="419" y="1128" on="1"/>
        <pt x="837" y="585" on="1"/>
        <pt x="913" y="444" on="1"/>
        <pt x="840" y="393" on="0"/>
        <pt x="753" y="345" on="0"/>
        <pt x="664" y="314" on="0"/>
        <pt x="574" y="300" on="0"/>
        <pt x="521" y="300" on="1"/>
        <pt x="436" y="300" on="0"/>
        <pt x="296" y="358" on="0"/>
        <pt x="201" y="469" on="0"/>
        <pt x="162" y="616" on="0"/>
        <pt x="162" y="734" on="1"/>
        <pt x="162" y="1128" on="1"/>
        <pt x="0" y="1128" on="1"/>
        <pt x="0" y="1274" on="1"/>
        <pt x="801" y="1274" on="1"/>
        <pt x="801" y="1128" on="1"/>
      </contour>
      <contour>
        <pt x="737" y="502" on="1"/>
        <pt x="326" y="1038" on="1"/>
        <pt x="326" y="755" on="1"/>
        <pt x="326" y="657" on="0"/>
        <pt x="340" y="561" on="0"/>
        <pt x="371" y="506" on="0"/>
        <pt x="417" y="465" on="0"/>
        <pt x="487" y="445" on="0"/>
        <pt x="536" y="445" on="1"/>
        <pt x="636" y="445" on="0"/>
      </contour>
    </TTGlyph>
    <TTGlyph name="glyph00215" xMin="0" yMin="-25" xMax="987" yMax="1274">
      <contour>
        <pt x="780" y="531" on="1"/>
        <pt x="559" y="531" on="0"/>
        <pt x="445" y="575" on="1"/>
        <pt x="400" y="542" on="0"/>
        <pt x="343" y="518" on="1"/>
        <pt x="427" y="410" on="0"/>
        <pt x="653" y="186" on="0"/>
        <pt x="778" y="85" on="1"/>
        <pt x="668" y="-25" on="1"/>
        <pt x="554" y="74" on="0"/>
        <pt x="332" y="299" on="0"/>
        <pt x="162" y="501" on="0"/>
        <pt x="122" y="567" on="1"/>
        <pt x="98" y="608" on="0"/>
        <pt x="81" y="664" on="0"/>
        <pt x="81" y="696" on="1"/>
        <pt x="81" y="723" on="0"/>
        <pt x="108" y="772" on="0"/>
        <pt x="167" y="804" on="0"/>
        <pt x="212" y="804" on="1"/>
        <pt x="263" y="804" on="0"/>
        <pt x="340" y="757" on="0"/>
        <pt x="371" y="715" on="1"/>
        <pt x="407" y="747" on="0"/>
        <pt x="445" y="861" on="0"/>
        <pt x="445" y="938" on="1"/>
        <pt x="445" y="999" on="0"/>
        <pt x="425" y="1098" on="0"/>
        <pt x="411" y="1128" on="1"/>
        <pt x="0" y="1128" on="1"/>
        <pt x="0" y="1274" on="1"/>
        <pt x="826" y="1274" on="1"/>
        <pt x="826" y="1128" on="1"/>
        <pt x="576" y="1128" on="1"/>
        <pt x="610" y="1049" on="0"/>
        <pt x="610" y="937" on="1"/>
        <pt x="610" y="776" on="0"/>
        <pt x="538" y="684" on="1"/>
        <pt x="594" y="677" on="0"/>
        <pt x="712" y="677" on="1"/>
        <pt x="987" y="677" on="1"/>
        <pt x="987" y="531" on="1"/>
      </contour>
    </TTGlyph>
    <TTGlyph name="glyph00216" xMin="0" yMin="-291" xMax="1106" yMax="1274">
      <contour>
        <pt x="1106" y="614" on="1"/>
        <pt x="1106" y="467" on="1"/>
        <pt x="636" y="467" on="1"/>
        <pt x="504" y="467" on="0"/>
        <pt x="361" y="425" on="0"/>
        <pt x="282" y="325" on="0"/>
        <pt x="282" y="253" on="1"/>
        <pt x="282" y="205" on="0"/>
        <pt x="310" y="123" on="0"/>
        <pt x="377" y="35" on="0"/>
        <pt x="506" y="-87" on="0"/>
        <pt x="627" y="-184" on="1"/>
        <pt x="517" y="-291" on="1"/>
        <pt x="406" y="-198" on="0"/>
        <pt x="295" y="-96" on="0"/>
        <pt x="203" y="8" on="0"/>
        <pt x="146" y="108" on="0"/>
        <pt x="118" y="210" on="0"/>
        <pt x="118" y="267" on="1"/>
        <pt x="118" y="421" on="0"/>
        <pt x="247" y="517" on="1"/>
        <pt x="194" y="559" on="0"/>
        <pt x="142" y="660" on="0"/>
        <pt x="142" y="721" on="1"/>
        <pt x="142" y="784" on="0"/>
        <pt x="192" y="871" on="0"/>
        <pt x="277" y="927" on="0"/>
        <pt x="387" y="953" on="0"/>
        <pt x="470" y="953" on="1"/>
        <pt x="630" y="953" on="1"/>
        <pt x="630" y="1128" on="1"/>
        <pt x="0" y="1128" on="1"/>
        <pt x="0" y="1274" on="1"/>
        <pt x="1018" y="1274" on="1"/>
        <pt x="1018" y="1128" on="1"/>
        <pt x="795" y="1128" on="1"/>
        <pt x="795" y="807" on="1"/>
        <pt x="465" y="807" on="1"/>
        <pt x="401" y="807" on="0"/>
        <pt x="338" y="791" on="0"/>
        <pt x="300" y="745" on="0"/>
        <pt x="300" y="710" on="1"/>
        <pt x="300" y="670" on="0"/>
        <pt x="352" y="607" on="0"/>
        <pt x="396" y="588" on="1"/>
        <pt x="493" y="614" on="0"/>
        <pt x="684" y="614" on="1"/>
      </contour>
    </TTGlyph>
    <TTGlyph name="glyph00217" xMin="0" yMin="-179" xMax="1202" yMax="1274">
      <contour>
        <pt x="1172" y="807" on="1"/>
        <pt x="891" y="807" on="1"/>
        <pt x="798" y="807" on="0"/>
        <pt x="779" y="811" on="1"/>
        <pt x="856" y="747" on="0"/>
        <pt x="939" y="595" on="0"/>
        <pt x="939" y="518" on="1"/>
        <pt x="939" y="394" on="0"/>
        <pt x="771" y="252" on="0"/>
        <pt x="635" y="252" on="1"/>
        <pt x="454" y="252" on="0"/>
        <pt x="180" y="559" on="0"/>
        <pt x="64" y="870" on="1"/>
        <pt x="208" y="922" on="1"/>
        <pt x="305" y="657" on="0"/>
        <pt x="509" y="403" on="0"/>
        <pt x="627" y="403" on="1"/>
        <pt x="700" y="403" on="0"/>
        <pt x="777" y="473" on="0"/>
        <pt x="777" y="541" on="1"/>
        <pt x="777" y="615" on="0"/>
        <pt x="664" y="761" on="0"/>
        <pt x="560" y="821" on="1"/>
        <pt x="618" y="953" on="1"/>
        <pt x="1172" y="953" on="1"/>
      </contour>
      <contour>
        <pt x="0" y="1128" on="1"/>
        <pt x="0" y="1274" on="1"/>
        <pt x="1202" y="1274" on="1"/>
        <pt x="1202" y="1128" on="1"/>
      </contour>
      <contour>
        <pt x="816" y="219" on="1"/>
        <pt x="857" y="219" on="0"/>
        <pt x="918" y="156" on="0"/>
        <pt x="918" y="112" on="1"/>
        <pt x="918" y="68" on="0"/>
        <pt x="857" y="5" on="0"/>
        <pt x="816" y="5" on="1"/>
        <pt x="775" y="5" on="0"/>
        <pt x="714" y="68" on="0"/>
        <pt x="714" y="112" on="1"/>
        <pt x="714" y="156" on="0"/>
        <pt x="775" y="219" on="0"/>
      </contour>
      <contour>
        <pt x="436" y="219" on="1"/>
        <pt x="477" y="219" on="0"/>
        <pt x="538" y="156" on="0"/>
        <pt x="538" y="112" on="1"/>
        <pt x="538" y="68" on="0"/>
        <pt x="477" y="5" on="0"/>
        <pt x="436" y="5" on="1"/>
        <pt x="395" y="5" on="0"/>
        <pt x="334" y="68" on="0"/>
        <pt x="334" y="112" on="1"/>
        <pt x="334" y="156" on="0"/>
        <pt x="395" y="219" on="0"/>
      </contour>
      <contour>
        <pt x="626" y="35" on="1"/>
        <pt x="667" y="35" on="0"/>
        <pt x="728" y="-28" on="0"/>
        <pt x="728" y="-72" on="1"/>
        <pt x="728" y="-116" on="0"/>
        <pt x="667" y="-179" on="0"/>
        <pt x="626" y="-179" on="1"/>
        <pt x="585" y="-179" on="0"/>
        <pt x="524" y="-116" on="0"/>
        <pt x="524" y="-72" on="1"/>
        <pt x="524" y="-28" on="0"/>
        <pt x="585" y="35" on="0"/>
      </contour>
    </TTGlyph>
    <TTGlyph name="glyph00218" xMin="0" yMin="270" xMax="870" yMax="1274">
      <contour>
        <pt x="870" y="381" on="1"/>
        <pt x="704" y="270" on="0"/>
        <pt x="518" y="270" on="1"/>
        <pt x="341" y="270" on="0"/>
        <pt x="108" y="508" on="0"/>
        <pt x="78" y="722" on="1"/>
        <pt x="210" y="750" on="0"/>
        <pt x="327" y="850" on="0"/>
        <pt x="327" y="936" on="1"/>
        <pt x="327" y="1029" on="0"/>
        <pt x="252" y="1128" on="1"/>
        <pt x="0" y="1128" on="1"/>
        <pt x="0" y="1274" on="1"/>
        <pt x="702" y="1274" on="1"/>
        <pt x="702" y="1128" on="1"/>
        <pt x="432" y="1128" on="1"/>
        <pt x="455" y="1081" on="0"/>
        <pt x="466" y="1041" on="1"/>
        <pt x="847" y="560" on="1"/>
      </contour>
      <contour>
        <pt x="749" y="477" on="1"/>
        <pt x="560" y="708" on="1"/>
        <pt x="508" y="771" on="0"/>
        <pt x="470" y="824" on="1"/>
        <pt x="438" y="670" on="0"/>
        <pt x="264" y="617" on="1"/>
        <pt x="305" y="514" on="0"/>
        <pt x="432" y="415" on="0"/>
        <pt x="530" y="415" on="1"/>
        <pt x="650" y="415" on="0"/>
      </contour>
      <contour>
        <pt x="89" y="576" on="1"/>
      </contour>
    </TTGlyph>
    <TTGlyph name="glyph00219" xMin="95" yMin="-134" xMax="1051" yMax="1295">
      <contour>
        <pt x="550" y="249" on="1"/>
        <pt x="543" y="267" on="0"/>
        <pt x="538" y="307" on="0"/>
        <pt x="538" y="321" on="1"/>
        <pt x="538" y="378" on="0"/>
        <pt x="611" y="442" on="0"/>
        <pt x="671" y="442" on="1"/>
        <pt x="725" y="442" on="0"/>
        <pt x="806" y="392" on="0"/>
        <pt x="845" y="317" on="0"/>
        <pt x="845" y="279" on="1"/>
        <pt x="845" y="222" on="0"/>
        <pt x="795" y="155" on="0"/>
        <pt x="747" y="136" on="1"/>
        <pt x="821" y="40" on="0"/>
        <pt x="917" y="-49" on="1"/>
        <pt x="798" y="-134" on="1"/>
        <pt x="666" y="18" on="0"/>
        <pt x="611" y="109" on="1"/>
        <pt x="575" y="103" on="0"/>
        <pt x="501" y="103" on="1"/>
        <pt x="384" y="103" on="0"/>
        <pt x="199" y="185" on="0"/>
        <pt x="95" y="330" on="0"/>
        <pt x="95" y="419" on="1"/>
        <pt x="95" y="488" on="0"/>
        <pt x="155" y="603" on="0"/>
        <pt x="254" y="692" on="0"/>
        <pt x="335" y="740" on="1"/>
        <pt x="247" y="797" on="0"/>
        <pt x="152" y="945" on="0"/>
        <pt x="152" y="1038" on="1"/>
        <pt x="152" y="1110" on="0"/>
        <pt x="226" y="1227" on="0"/>
        <pt x="373" y="1295" on="0"/>
        <pt x="474" y="1295" on="1"/>
        <pt x="558" y="1295" on="0"/>
        <pt x="698" y="1243" on="0"/>
        <pt x="783" y="1133" on="0"/>
        <pt x="783" y="1054" on="1"/>
        <pt x="783" y="966" on="0"/>
        <pt x="699" y="830" on="0"/>
        <pt x="605" y="764" on="1"/>
        <pt x="668" y="746" on="0"/>
        <pt x="765" y="746" on="1"/>
        <pt x="837" y="746" on="0"/>
        <pt x="956" y="767" on="0"/>
        <pt x="1015" y="792" on="1"/>
        <pt x="1051" y="642" on="1"/>
        <pt x="990" y="622" on="0"/>
        <pt x="853" y="601" on="0"/>
        <pt x="786" y="601" on="1"/>
        <pt x="704" y="601" on="0"/>
        <pt x="533" y="637" on="0"/>
        <pt x="463" y="668" on="1"/>
        <pt x="389" y="623" on="0"/>
        <pt x="306" y="551" on="0"/>
        <pt x="263" y="473" on="0"/>
        <pt x="263" y="425" on="1"/>
        <pt x="263" y="395" on="0"/>
        <pt x="285" y="331" on="0"/>
        <pt x="340" y="279" on="0"/>
        <pt x="433" y="246" on="0"/>
        <pt x="505" y="246" on="1"/>
        <pt x="520" y="246" on="0"/>
      </contour>
      <contour>
        <pt x="467" y="818" on="1"/>
        <pt x="547" y="869" on="0"/>
        <pt x="621" y="975" on="0"/>
        <pt x="621" y="1037" on="1"/>
        <pt x="621" y="1070" on="0"/>
        <pt x="590" y="1126" on="0"/>
        <pt x="522" y="1160" on="0"/>
        <pt x="470" y="1160" on="1"/>
        <pt x="399" y="1160" on="0"/>
        <pt x="313" y="1088" on="0"/>
        <pt x="313" y="1028" on="1"/>
        <pt x="313" y="966" on="0"/>
        <pt x="394" y="856" on="0"/>
      </contour>
    </TTGlyph>
    <TTGlyph name="glyph00220" xMin="0" yMin="-80" xMax="935" yMax="1274">
      <contour>
        <pt x="0" y="1128" on="1"/>
        <pt x="0" y="1274" on="1"/>
        <pt x="887" y="1274" on="1"/>
        <pt x="887" y="1128" on="1"/>
      </contour>
      <contour>
        <pt x="667" y="758" on="1"/>
        <pt x="537" y="758" on="0"/>
        <pt x="475" y="767" on="1"/>
        <pt x="595" y="705" on="0"/>
        <pt x="710" y="549" on="0"/>
        <pt x="710" y="447" on="1"/>
        <pt x="710" y="348" on="0"/>
        <pt x="600" y="209" on="0"/>
        <pt x="501" y="181" on="1"/>
        <pt x="548" y="152" on="0"/>
        <pt x="696" y="89" on="0"/>
        <pt x="780" y="63" on="1"/>
        <pt x="713" y="-80" on="1"/>
        <pt x="623" y="-45" on="0"/>
        <pt x="419" y="76" on="0"/>
        <pt x="325" y="151" on="1"/>
        <pt x="192" y="154" on="0"/>
        <pt x="71" y="217" on="0"/>
        <pt x="71" y="279" on="1"/>
        <pt x="71" y="327" on="0"/>
        <pt x="129" y="385" on="0"/>
        <pt x="181" y="385" on="1"/>
        <pt x="226" y="385" on="0"/>
        <pt x="315" y="340" on="0"/>
        <pt x="373" y="290" on="1"/>
        <pt x="453" y="300" on="0"/>
        <pt x="548" y="391" on="0"/>
        <pt x="548" y="458" on="1"/>
        <pt x="548" y="560" on="0"/>
        <pt x="363" y="711" on="0"/>
        <pt x="179" y="766" on="1"/>
        <pt x="228" y="904" on="1"/>
        <pt x="935" y="904" on="1"/>
        <pt x="935" y="758" on="1"/>
      </contour>
    </TTGlyph>
    <TTGlyph name="glyph00221" xMin="0" yMin="-96" xMax="1262" yMax="1274">
      <component glyphName="glyph00183" x="0" y="0" flags="0x204"/>
      <component glyphName="glyph00785" x="870" y="298" flags="0x4"/>
    </TTGlyph>
    <TTGlyph name="glyph00222" xMin="0" yMin="-45" xMax="1434" yMax="1274">
      <component glyphName="glyph00184" x="0" y="0" flags="0x204"/>
      <component glyphName="glyph00785" x="800" y="349" flags="0x4"/>
    </TTGlyph>
    <TTGlyph name="glyph00223" xMin="0" yMin="-45" xMax="618" yMax="1274">
      <component glyphName="glyph00185" x="0" y="0" flags="0x204"/>
      <component glyphName="uni093C" x="910" y="349" flags="0x4"/>
    </TTGlyph>
    <TTGlyph name="glyph00224" xMin="0" yMin="-96" xMax="946" yMax="1274">
      <component glyphName="glyph00186" x="0" y="0" flags="0x204"/>
      <component glyphName="uni093C" x="920" y="298" flags="0x4"/>
    </TTGlyph>
    <TTGlyph name="glyph00225" xMin="0" yMin="-548" xMax="1458" yMax="1274">
      <component glyphName="uni0919" x="0" y="0" flags="0x204"/>
      <component glyphName="glyph00634" x="950" y="0" flags="0x4"/>
    </TTGlyph>
    <TTGlyph name="glyph00226" xMin="0" yMin="-96" xMax="1034" yMax="1274">
      <component glyphName="glyph00188" x="0" y="0" flags="0x204"/>
      <component glyphName="uni093C" x="980" y="298" flags="0x4"/>
    </TTGlyph>
    <TTGlyph name="glyph00227" xMin="0" yMin="-394" xMax="1465" yMax="1274">
      <component glyphName="glyph00189" x="0" y="0" flags="0x204"/>
      <component glyphName="uni093C" x="1270" y="0" flags="0x4"/>
    </TTGlyph>
    <TTGlyph name="glyph00228" xMin="0" yMin="-232" xMax="1202" yMax="1274">
      <component glyphName="glyph00190" x="0" y="0" flags="0x204"/>
      <component glyphName="uni093C" x="1149" y="162" flags="0x4"/>
    </TTGlyph>
    <TTGlyph name="glyph00229" xMin="0" yMin="-413" xMax="1226" yMax="1274">
      <component glyphName="glyph00191" x="0" y="0" flags="0x204"/>
      <component glyphName="uni093C" x="977" y="-19" flags="0x4"/>
    </TTGlyph>
    <TTGlyph name="glyph00230" xMin="0" yMin="-135" xMax="1171" yMax="1274">
      <component glyphName="glyph00192" x="0" y="0" flags="0x204"/>
      <component glyphName="uni093C" x="1123" y="259" flags="0x4"/>
    </TTGlyph>
    <TTGlyph name="glyph00231" xMin="0" yMin="-548" xMax="1123" yMax="1274">
      <component glyphName="uni091F" x="0" y="0" flags="0x204"/>
      <component glyphName="glyph00634" x="813" y="0" flags="0x4"/>
    </TTGlyph>
    <TTGlyph name="glyph00232" xMin="0" yMin="-548" xMax="1228" yMax="1274">
      <component glyphName="uni0920" x="0" y="0" flags="0x204"/>
      <component glyphName="glyph00634" x="812" y="0" flags="0x4"/>
    </TTGlyph>
    <TTGlyph name="glyph00233" xMin="0" yMin="-548" xMax="1315" yMax="1274">
      <component glyphName="uni0921" x="0" y="0" flags="0x204"/>
      <component glyphName="glyph00634" x="950" y="0" flags="0x4"/>
    </TTGlyph>
    <TTGlyph name="glyph00234" xMin="0" yMin="-548" xMax="1228" yMax="1274">
      <component glyphName="uni0922" x="0" y="0" flags="0x204"/>
      <component glyphName="glyph00634" x="918" y="0" flags="0x4"/>
    </TTGlyph>
    <TTGlyph name="glyph00235" xMin="0" yMin="-101" xMax="986" yMax="1274">
      <component glyphName="glyph00197" x="0" y="0" flags="0x204"/>
      <component glyphName="uni093C" x="1106" y="293" flags="0x4"/>
    </TTGlyph>
    <TTGlyph name="glyph00236" xMin="0" yMin="-423" xMax="819" yMax="1274">
      <component glyphName="glyph00198" x="0" y="0" flags="0x204"/>
      <component glyphName="uni093C" x="1011" y="-29" flags="0x4"/>
    </TTGlyph>
    <TTGlyph name="glyph00237" xMin="95" yMin="-75" xMax="1043" yMax="1294">
      <component glyphName="glyph00199" x="0" y="0" flags="0x204"/>
      <component glyphName="uni093C" x="1040" y="319" flags="0x4"/>
    </TTGlyph>
    <TTGlyph name="glyph00238" xMin="0" yMin="-548" xMax="1264" yMax="1274">
      <component glyphName="uni0926" x="0" y="0" flags="0x204"/>
      <component glyphName="uni094D" x="954" y="0" flags="0x4"/>
      <component glyphName="uni093C" x="931" y="156" flags="0x4"/>
    </TTGlyph>
    <TTGlyph name="glyph00239" xMin="87" yMin="-178" xMax="988" yMax="1295">
      <component glyphName="glyph00201" x="0" y="0" flags="0x204"/>
      <component glyphName="uni093C" x="1059" y="216" flags="0x4"/>
    </TTGlyph>
    <TTGlyph name="glyph00240" xMin="0" yMin="-45" xMax="788" yMax="1274">
      <component glyphName="glyph00202" x="0" y="0" flags="0x204"/>
      <component glyphName="glyph00785" x="950" y="349" flags="0x4"/>
    </TTGlyph>
    <TTGlyph name="glyph00241" xMin="0" yMin="-96" xMax="893" yMax="1274">
      <component glyphName="glyph00203" x="0" y="0" flags="0x204"/>
      <component glyphName="uni093C" x="940" y="298" flags="0x4"/>
    </TTGlyph>
    <TTGlyph name="glyph00242" xMin="0" yMin="-96" xMax="1280" yMax="1274">
      <component glyphName="glyph00204" x="0" y="0" flags="0x204"/>
      <component glyphName="uni093C" x="870" y="298" flags="0x4"/>
    </TTGlyph>
    <TTGlyph name="glyph00243" xMin="0" yMin="-96" xMax="900" yMax="1274">
      <component glyphName="glyph00205" x="0" y="0" flags="0x204"/>
      <component glyphName="uni093C" x="970" y="298" flags="0x4"/>
    </TTGlyph>
    <TTGlyph name="glyph00244" xMin="95" yMin="-55" xMax="1091" yMax="1294">
      <component glyphName="glyph00206" x="0" y="0" flags="0x204"/>
      <component glyphName="uni093C" x="1190" y="339" flags="0x4"/>
    </TTGlyph>
    <TTGlyph name="glyph00245" xMin="0" yMin="-65" xMax="846" yMax="1274">
      <component glyphName="glyph00207" x="0" y="0" flags="0x204"/>
      <component glyphName="uni093C" x="1010" y="329" flags="0x4"/>
    </TTGlyph>
    <TTGlyph name="glyph00246" xMin="0" yMin="-96" xMax="919" yMax="1274">
      <component glyphName="glyph00208" x="0" y="0" flags="0x204"/>
      <component glyphName="uni093C" x="870" y="298" flags="0x4"/>
    </TTGlyph>
    <TTGlyph name="glyph00247" xMin="0" yMin="-363" xMax="1138" yMax="1274">
      <component glyphName="glyph00210" x="0" y="0" flags="0x204"/>
      <component glyphName="uni093C" x="1281" y="31" flags="0x4"/>
    </TTGlyph>
    <TTGlyph name="glyph00248" xMin="0" yMin="-282" xMax="1497" yMax="1274">
      <component glyphName="glyph00211" x="0" y="0" flags="0x204"/>
      <component glyphName="uni093C" x="1007" y="112" flags="0x4"/>
    </TTGlyph>
    <TTGlyph name="glyph00249" xMin="0" yMin="-96" xMax="870" yMax="1274">
      <component glyphName="glyph00212" x="0" y="0" flags="0x204"/>
      <component glyphName="uni093C" x="970" y="298" flags="0x4"/>
    </TTGlyph>
    <TTGlyph name="glyph00250" xMin="81" yMin="-218" xMax="847" yMax="1294">
      <component glyphName="glyph00213" x="0" y="0" flags="0x204"/>
      <component glyphName="uni093C" x="1025" y="176" flags="0x4"/>
    </TTGlyph>
    <TTGlyph name="glyph00251" xMin="0" yMin="-96" xMax="913" yMax="1274">
      <component glyphName="glyph00214" x="0" y="0" flags="0x204"/>
      <component glyphName="uni093C" x="940" y="298" flags="0x4"/>
    </TTGlyph>
    <TTGlyph name="glyph00252" xMin="0" yMin="-45" xMax="987" yMax="1274">
      <component glyphName="glyph00215" x="0" y="0" flags="0x204"/>
      <component glyphName="glyph00785" x="800" y="349" flags="0x4"/>
    </TTGlyph>
    <TTGlyph name="glyph00253" xMin="0" yMin="-495" xMax="1106" yMax="1274">
      <component glyphName="glyph00216" x="0" y="0" flags="0x204"/>
      <component glyphName="glyph00785" x="837" y="-101" flags="0x4"/>
    </TTGlyph>
    <TTGlyph name="glyph00254" xMin="0" yMin="-25" xMax="1591" yMax="1274">
      <contour>
        <pt x="1591" y="1274" on="1"/>
        <pt x="1591" y="1128" on="1"/>
        <pt x="924" y="1128" on="1"/>
        <pt x="924" y="714" on="1"/>
        <pt x="975" y="764" on="0"/>
        <pt x="1093" y="818" on="0"/>
        <pt x="1166" y="818" on="1"/>
        <pt x="1253" y="818" on="0"/>
        <pt x="1389" y="743" on="0"/>
        <pt x="1467" y="593" on="0"/>
        <pt x="1467" y="490" on="1"/>
        <pt x="1467" y="386" on="0"/>
        <pt x="1398" y="173" on="0"/>
        <pt x="1334" y="79" on="1"/>
        <pt x="1186" y="164" on="1"/>
        <pt x="1238" y="230" on="0"/>
        <pt x="1302" y="403" on="0"/>
        <pt x="1302" y="486" on="1"/>
        <pt x="1302" y="580" on="0"/>
        <pt x="1222" y="675" on="0"/>
        <pt x="1150" y="675" on="1"/>
        <pt x="1095" y="675" on="0"/>
        <pt x="981" y="599" on="0"/>
        <pt x="924" y="526" on="1"/>
        <pt x="924" y="0" on="1"/>
        <pt x="759" y="0" on="1"/>
        <pt x="759" y="354" on="1"/>
        <pt x="190" y="-25" on="1"/>
        <pt x="94" y="109" on="1"/>
        <pt x="355" y="259" on="1"/>
        <pt x="233" y="289" on="0"/>
        <pt x="95" y="464" on="0"/>
        <pt x="95" y="594" on="1"/>
        <pt x="95" y="701" on="0"/>
        <pt x="197" y="863" on="0"/>
        <pt x="381" y="950" on="0"/>
        <pt x="500" y="950" on="1"/>
        <pt x="540" y="950" on="0"/>
        <pt x="654" y="938" on="0"/>
        <pt x="694" y="929" on="1"/>
        <pt x="682" y="780" on="1"/>
        <pt x="647" y="788" on="0"/>
        <pt x="547" y="801" on="0"/>
        <pt x="509" y="801" on="1"/>
        <pt x="392" y="801" on="0"/>
        <pt x="261" y="693" on="0"/>
        <pt x="261" y="599" on="1"/>
        <pt x="261" y="528" on="0"/>
        <pt x="319" y="431" on="0"/>
        <pt x="413" y="385" on="0"/>
        <pt x="467" y="385" on="1"/>
        <pt x="541" y="385" on="0"/>
        <pt x="684" y="455" on="0"/>
        <pt x="759" y="532" on="1"/>
        <pt x="759" y="1128" on="1"/>
        <pt x="0" y="1128" on="1"/>
        <pt x="0" y="1274" on="1"/>
      </contour>
      <contour>
        <pt x="759" y="1274" on="1"/>
      </contour>
      <contour>
        <pt x="463" y="241" on="1"/>
      </contour>
    </TTGlyph>
    <TTGlyph name="glyph00255" xMin="0" yMin="-241" xMax="1705" yMax="1274">
      <contour>
        <pt x="1705" y="1128" on="1"/>
        <pt x="1492" y="1128" on="1"/>
        <pt x="1492" y="0" on="1"/>
        <pt x="1327" y="0" on="1"/>
        <pt x="1327" y="169" on="1"/>
        <pt x="572" y="-241" on="1"/>
        <pt x="487" y="-95" on="1"/>
        <pt x="771" y="44" on="1"/>
        <pt x="664" y="71" on="0"/>
        <pt x="453" y="194" on="0"/>
        <pt x="249" y="393" on="0"/>
        <pt x="153" y="518" on="1"/>
        <pt x="119" y="563" on="0"/>
        <pt x="81" y="643" on="0"/>
        <pt x="81" y="692" on="1"/>
        <pt x="81" y="741" on="0"/>
        <pt x="148" y="804" on="0"/>
        <pt x="212" y="804" on="1"/>
        <pt x="263" y="804" on="0"/>
        <pt x="340" y="757" on="0"/>
        <pt x="371" y="715" on="1"/>
        <pt x="407" y="747" on="0"/>
        <pt x="445" y="861" on="0"/>
        <pt x="445" y="938" on="1"/>
        <pt x="445" y="999" on="0"/>
        <pt x="425" y="1098" on="0"/>
        <pt x="411" y="1128" on="1"/>
        <pt x="0" y="1128" on="1"/>
        <pt x="0" y="1274" on="1"/>
        <pt x="1705" y="1274" on="1"/>
      </contour>
      <contour>
        <pt x="344" y="518" on="1"/>
        <pt x="456" y="388" on="0"/>
        <pt x="648" y="239" on="0"/>
        <pt x="863" y="162" on="0"/>
        <pt x="994" y="161" on="1"/>
        <pt x="1327" y="330" on="1"/>
        <pt x="1327" y="405" on="1"/>
        <pt x="1271" y="372" on="0"/>
        <pt x="1138" y="335" on="0"/>
        <pt x="1068" y="335" on="1"/>
        <pt x="973" y="335" on="0"/>
        <pt x="819" y="413" on="0"/>
        <pt x="730" y="559" on="0"/>
        <pt x="730" y="654" on="1"/>
        <pt x="730" y="751" on="0"/>
        <pt x="819" y="894" on="0"/>
        <pt x="981" y="969" on="0"/>
        <pt x="1087" y="969" on="1"/>
        <pt x="1128" y="969" on="0"/>
        <pt x="1236" y="956" on="0"/>
        <pt x="1261" y="948" on="1"/>
        <pt x="1249" y="807" on="1"/>
        <pt x="1218" y="814" on="0"/>
        <pt x="1143" y="828" on="0"/>
        <pt x="1106" y="828" on="1"/>
        <pt x="1005" y="828" on="0"/>
        <pt x="895" y="733" on="0"/>
        <pt x="895" y="647" on="1"/>
        <pt x="895" y="565" on="0"/>
        <pt x="1002" y="476" on="0"/>
        <pt x="1094" y="476" on="1"/>
        <pt x="1155" y="476" on="0"/>
        <pt x="1273" y="525" on="0"/>
        <pt x="1327" y="574" on="1"/>
        <pt x="1327" y="1128" on="1"/>
        <pt x="576" y="1128" on="1"/>
        <pt x="610" y="1049" on="0"/>
        <pt x="610" y="937" on="1"/>
        <pt x="610" y="784" on="0"/>
        <pt x="480" y="578" on="0"/>
      </contour>
    </TTGlyph>
    <TTGlyph name="glyph00256" xMin="0" yMin="-50" xMax="1183" yMax="1274">
      <contour>
        <pt x="806" y="251" on="1"/>
        <pt x="353" y="-50" on="1"/>
        <pt x="255" y="88" on="1"/>
        <pt x="806" y="421" on="1"/>
        <pt x="806" y="1128" on="1"/>
        <pt x="427" y="1128" on="1"/>
        <pt x="427" y="479" on="1"/>
        <pt x="427" y="425" on="0"/>
        <pt x="374" y="365" on="0"/>
        <pt x="327" y="365" on="1"/>
        <pt x="276" y="365" on="0"/>
        <pt x="158" y="452" on="0"/>
        <pt x="84" y="577" on="0"/>
        <pt x="84" y="630" on="1"/>
        <pt x="84" y="683" on="0"/>
        <pt x="145" y="735" on="0"/>
        <pt x="208" y="735" on="1"/>
        <pt x="263" y="735" on="1"/>
        <pt x="263" y="1128" on="1"/>
        <pt x="0" y="1128" on="1"/>
        <pt x="0" y="1274" on="1"/>
        <pt x="1183" y="1274" on="1"/>
        <pt x="1183" y="1128" on="1"/>
        <pt x="970" y="1128" on="1"/>
        <pt x="970" y="0" on="1"/>
        <pt x="806" y="0" on="1"/>
      </contour>
    </TTGlyph>
    <TTGlyph name="glyph00257" xMin="0" yMin="-50" xMax="1240" yMax="1274">
      <contour>
        <pt x="1240" y="1274" on="1"/>
        <pt x="1240" y="1128" on="1"/>
        <pt x="1027" y="1128" on="1"/>
        <pt x="1027" y="0" on="1"/>
        <pt x="862" y="0" on="1"/>
        <pt x="862" y="345" on="1"/>
        <pt x="241" y="-50" on="1"/>
        <pt x="145" y="84" on="1"/>
        <pt x="448" y="255" on="1"/>
        <pt x="318" y="275" on="0"/>
        <pt x="177" y="428" on="0"/>
        <pt x="177" y="545" on="1"/>
        <pt x="177" y="605" on="0"/>
        <pt x="221" y="713" on="0"/>
        <pt x="261" y="750" on="1"/>
        <pt x="178" y="790" on="0"/>
        <pt x="87" y="933" on="0"/>
        <pt x="87" y="1017" on="1"/>
        <pt x="87" y="1081" on="0"/>
        <pt x="107" y="1128" on="1"/>
        <pt x="0" y="1128" on="1"/>
        <pt x="0" y="1274" on="1"/>
      </contour>
      <contour>
        <pt x="295" y="1128" on="1"/>
        <pt x="252" y="1079" on="0"/>
        <pt x="252" y="1011" on="1"/>
        <pt x="252" y="941" on="0"/>
        <pt x="336" y="854" on="0"/>
        <pt x="409" y="843" on="1"/>
        <pt x="465" y="859" on="0"/>
        <pt x="539" y="859" on="1"/>
        <pt x="589" y="859" on="0"/>
        <pt x="631" y="853" on="1"/>
        <pt x="618" y="710" on="1"/>
        <pt x="592" y="713" on="0"/>
        <pt x="560" y="713" on="1"/>
        <pt x="456" y="713" on="0"/>
        <pt x="342" y="628" on="0"/>
        <pt x="342" y="550" on="1"/>
        <pt x="342" y="471" on="0"/>
        <pt x="450" y="385" on="0"/>
        <pt x="547" y="385" on="1"/>
        <pt x="637" y="385" on="0"/>
        <pt x="790" y="455" on="0"/>
        <pt x="862" y="531" on="1"/>
        <pt x="862" y="1128" on="1"/>
      </contour>
      <contour>
        <pt x="530" y="241" on="1"/>
      </contour>
    </TTGlyph>
    <TTGlyph name="glyph00258" xMin="0" yMin="-548" xMax="1458" yMax="1274">
      <component glyphName="uni0919" x="0" y="0" flags="0x204"/>
      <component glyphName="glyph00182" x="1202" y="0" flags="0x4"/>
    </TTGlyph>
    <TTGlyph name="glyph00259" xMin="0" yMin="-50" xMax="1329" yMax="1274">
      <contour>
        <pt x="1329" y="1274" on="1"/>
        <pt x="1329" y="1128" on="1"/>
        <pt x="1116" y="1128" on="1"/>
        <pt x="1116" y="0" on="1"/>
        <pt x="952" y="0" on="1"/>
        <pt x="952" y="350" on="1"/>
        <pt x="341" y="-50" on="1"/>
        <pt x="245" y="84" on="1"/>
        <pt x="550" y="257" on="1"/>
        <pt x="427" y="283" on="0"/>
        <pt x="288" y="446" on="0"/>
        <pt x="288" y="563" on="1"/>
        <pt x="288" y="621" on="0"/>
        <pt x="335" y="722" on="0"/>
        <pt x="378" y="759" on="1"/>
        <pt x="77" y="756" on="1"/>
        <pt x="77" y="904" on="1"/>
        <pt x="678" y="904" on="1"/>
        <pt x="759" y="904" on="0"/>
        <pt x="797" y="901" on="1"/>
        <pt x="783" y="758" on="1"/>
        <pt x="717" y="758" on="1"/>
        <pt x="594" y="758" on="0"/>
        <pt x="453" y="654" on="0"/>
        <pt x="453" y="562" on="1"/>
        <pt x="453" y="504" on="0"/>
        <pt x="510" y="422" on="0"/>
        <pt x="598" y="385" on="0"/>
        <pt x="650" y="385" on="1"/>
        <pt x="711" y="385" on="0"/>
        <pt x="815" y="421" on="0"/>
        <pt x="901" y="481" on="0"/>
        <pt x="952" y="532" on="1"/>
        <pt x="952" y="1128" on="1"/>
        <pt x="0" y="1128" on="1"/>
        <pt x="0" y="1274" on="1"/>
      </contour>
      <contour>
        <pt x="650" y="241" on="1"/>
      </contour>
    </TTGlyph>
    <TTGlyph name="glyph00260" xMin="0" yMin="-548" xMax="1465" yMax="1274">
      <component glyphName="uni091B" x="0" y="0" flags="0x204"/>
      <component glyphName="glyph00182" x="1205" y="0" flags="0x4"/>
    </TTGlyph>
    <TTGlyph name="glyph00261" xMin="0" yMin="-50" xMax="1620" yMax="1274">
      <contour>
        <pt x="1620" y="1128" on="1"/>
        <pt x="1407" y="1128" on="1"/>
        <pt x="1407" y="0" on="1"/>
        <pt x="1242" y="0" on="1"/>
        <pt x="1242" y="251" on="1"/>
        <pt x="789" y="-50" on="1"/>
        <pt x="691" y="88" on="1"/>
        <pt x="1242" y="421" on="1"/>
        <pt x="1242" y="758" on="1"/>
        <pt x="891" y="758" on="1"/>
        <pt x="816" y="758" on="0"/>
        <pt x="797" y="760" on="1"/>
        <pt x="866" y="705" on="0"/>
        <pt x="939" y="573" on="0"/>
        <pt x="939" y="498" on="1"/>
        <pt x="939" y="436" on="0"/>
        <pt x="890" y="344" on="0"/>
        <pt x="807" y="283" on="0"/>
        <pt x="696" y="253" on="0"/>
        <pt x="635" y="253" on="1"/>
        <pt x="457" y="253" on="0"/>
        <pt x="180" y="538" on="0"/>
        <pt x="64" y="821" on="1"/>
        <pt x="208" y="873" on="1"/>
        <pt x="306" y="631" on="0"/>
        <pt x="508" y="404" on="0"/>
        <pt x="627" y="404" on="1"/>
        <pt x="699" y="404" on="0"/>
        <pt x="777" y="466" on="0"/>
        <pt x="777" y="525" on="1"/>
        <pt x="777" y="591" on="0"/>
        <pt x="664" y="718" on="0"/>
        <pt x="560" y="772" on="1"/>
        <pt x="618" y="904" on="1"/>
        <pt x="1242" y="904" on="1"/>
        <pt x="1242" y="1128" on="1"/>
        <pt x="0" y="1128" on="1"/>
        <pt x="0" y="1274" on="1"/>
        <pt x="1620" y="1274" on="1"/>
      </contour>
    </TTGlyph>
    <TTGlyph name="glyph00262" xMin="0" yMin="-225" xMax="1670" yMax="1274">
      <contour>
        <pt x="370" y="432" on="1"/>
        <pt x="244" y="467" on="0"/>
        <pt x="102" y="622" on="0"/>
        <pt x="102" y="721" on="1"/>
        <pt x="102" y="781" on="0"/>
        <pt x="146" y="865" on="0"/>
        <pt x="230" y="924" on="0"/>
        <pt x="343" y="953" on="0"/>
        <pt x="430" y="953" on="1"/>
        <pt x="622" y="953" on="1"/>
        <pt x="622" y="1128" on="1"/>
        <pt x="0" y="1128" on="1"/>
        <pt x="0" y="1274" on="1"/>
        <pt x="1670" y="1274" on="1"/>
        <pt x="1670" y="1128" on="1"/>
        <pt x="1457" y="1128" on="1"/>
        <pt x="1457" y="0" on="1"/>
        <pt x="1292" y="0" on="1"/>
        <pt x="1292" y="228" on="1"/>
        <pt x="1003" y="-50" on="1"/>
        <pt x="885" y="65" on="1"/>
        <pt x="1292" y="411" on="1"/>
        <pt x="1292" y="463" on="1"/>
        <pt x="1210" y="417" on="0"/>
        <pt x="1019" y="375" on="0"/>
        <pt x="900" y="375" on="1"/>
        <pt x="876" y="375" on="1"/>
        <pt x="881" y="346" on="0"/>
        <pt x="881" y="316" on="1"/>
        <pt x="881" y="252" on="0"/>
        <pt x="834" y="154" on="0"/>
        <pt x="757" y="81" on="0"/>
        <pt x="659" y="33" on="0"/>
        <pt x="608" y="20" on="1"/>
        <pt x="741" y="-42" on="0"/>
        <pt x="890" y="-82" on="1"/>
        <pt x="823" y="-225" on="1"/>
        <pt x="598" y="-135" on="0"/>
        <pt x="402" y="1" on="1"/>
        <pt x="271" y="6" on="0"/>
        <pt x="151" y="68" on="0"/>
        <pt x="151" y="129" on="1"/>
        <pt x="151" y="177" on="0"/>
        <pt x="209" y="235" on="0"/>
        <pt x="261" y="235" on="1"/>
        <pt x="303" y="235" on="0"/>
        <pt x="389" y="193" on="0"/>
        <pt x="452" y="140" on="1"/>
        <pt x="526" y="140" on="0"/>
        <pt x="650" y="185" on="0"/>
        <pt x="719" y="267" on="0"/>
        <pt x="719" y="321" on="1"/>
        <pt x="719" y="388" on="0"/>
        <pt x="621" y="468" on="0"/>
        <pt x="538" y="468" on="1"/>
        <pt x="502" y="468" on="0"/>
        <pt x="411" y="449" on="0"/>
      </contour>
      <contour>
        <pt x="787" y="1128" on="1"/>
        <pt x="787" y="807" on="1"/>
        <pt x="425" y="807" on="1"/>
        <pt x="382" y="807" on="0"/>
        <pt x="326" y="800" on="0"/>
        <pt x="294" y="784" on="0"/>
        <pt x="272" y="761" on="0"/>
        <pt x="260" y="729" on="0"/>
        <pt x="260" y="710" on="1"/>
        <pt x="260" y="668" on="0"/>
        <pt x="324" y="604" on="0"/>
        <pt x="377" y="590" on="1"/>
        <pt x="452" y="614" on="0"/>
        <pt x="530" y="614" on="1"/>
        <pt x="605" y="614" on="0"/>
        <pt x="729" y="577" on="0"/>
        <pt x="775" y="542" on="1"/>
        <pt x="803" y="529" on="0"/>
        <pt x="876" y="519" on="0"/>
        <pt x="934" y="519" on="1"/>
        <pt x="1007" y="519" on="0"/>
        <pt x="1124" y="545" on="0"/>
        <pt x="1225" y="595" on="0"/>
        <pt x="1292" y="649" on="1"/>
        <pt x="1292" y="1128" on="1"/>
      </contour>
    </TTGlyph>
    <TTGlyph name="glyph00263" xMin="0" yMin="-50" xMax="1609" yMax="1274">
      <contour>
        <pt x="393" y="912" on="1"/>
        <pt x="449" y="937" on="0"/>
        <pt x="584" y="966" on="0"/>
        <pt x="646" y="966" on="1"/>
        <pt x="737" y="966" on="0"/>
        <pt x="886" y="903" on="0"/>
        <pt x="979" y="782" on="0"/>
        <pt x="992" y="698" on="1"/>
        <pt x="1009" y="698" on="1"/>
        <pt x="1134" y="698" on="0"/>
        <pt x="1231" y="768" on="1"/>
        <pt x="1231" y="1128" on="1"/>
        <pt x="0" y="1128" on="1"/>
        <pt x="0" y="1274" on="1"/>
        <pt x="1609" y="1274" on="1"/>
        <pt x="1609" y="1128" on="1"/>
        <pt x="1396" y="1128" on="1"/>
        <pt x="1396" y="0" on="1"/>
        <pt x="1231" y="0" on="1"/>
        <pt x="1231" y="251" on="1"/>
        <pt x="778" y="-50" on="1"/>
        <pt x="680" y="88" on="1"/>
        <pt x="1231" y="421" on="1"/>
        <pt x="1231" y="596" on="1"/>
        <pt x="1128" y="554" on="0"/>
        <pt x="992" y="554" on="1"/>
        <pt x="988" y="554" on="1"/>
        <pt x="973" y="476" on="0"/>
        <pt x="874" y="358" on="0"/>
        <pt x="711" y="294" on="0"/>
        <pt x="614" y="294" on="1"/>
        <pt x="432" y="294" on="0"/>
        <pt x="158" y="522" on="0"/>
        <pt x="60" y="745" on="1"/>
        <pt x="200" y="799" on="1"/>
        <pt x="258" y="667" on="0"/>
        <pt x="374" y="516" on="0"/>
        <pt x="511" y="445" on="0"/>
        <pt x="603" y="445" on="1"/>
        <pt x="714" y="445" on="0"/>
        <pt x="841" y="551" on="0"/>
        <pt x="841" y="640" on="1"/>
        <pt x="841" y="725" on="0"/>
        <pt x="736" y="815" on="0"/>
        <pt x="640" y="815" on="1"/>
        <pt x="589" y="815" on="0"/>
        <pt x="496" y="788" on="0"/>
        <pt x="449" y="764" on="1"/>
      </contour>
    </TTGlyph>
    <TTGlyph name="glyph00264" xMin="0" yMin="-548" xMax="1062" yMax="1274">
      <component glyphName="uni091F" x="0" y="0" flags="0x204"/>
      <component glyphName="glyph00182" x="1018" y="0" flags="0x4"/>
    </TTGlyph>
    <TTGlyph name="glyph00265" xMin="0" yMin="-548" xMax="1228" yMax="1274">
      <component glyphName="uni0920" x="0" y="0" flags="0x204"/>
      <component glyphName="glyph00182" x="1103" y="0" flags="0x4"/>
    </TTGlyph>
    <TTGlyph name="glyph00266" xMin="0" yMin="-548" xMax="1315" yMax="1274">
      <component glyphName="uni0921" x="0" y="0" flags="0x204"/>
      <component glyphName="glyph00182" x="1202" y="0" flags="0x4"/>
    </TTGlyph>
    <TTGlyph name="glyph00267" xMin="0" yMin="-548" xMax="1182" yMax="1274">
      <component glyphName="uni0922" x="0" y="0" flags="0x204"/>
      <component glyphName="glyph00182" x="1084" y="0" flags="0x4"/>
    </TTGlyph>
    <TTGlyph name="glyph00268" xMin="0" yMin="-50" xMax="1510" yMax="1274">
      <contour>
        <pt x="1510" y="1128" on="1"/>
        <pt x="1297" y="1128" on="1"/>
        <pt x="1297" y="0" on="1"/>
        <pt x="1132" y="0" on="1"/>
        <pt x="1132" y="251" on="1"/>
        <pt x="679" y="-50" on="1"/>
        <pt x="581" y="88" on="1"/>
        <pt x="1132" y="421" on="1"/>
        <pt x="1132" y="1128" on="1"/>
        <pt x="861" y="1128" on="1"/>
        <pt x="861" y="658" on="1"/>
        <pt x="861" y="579" on="0"/>
        <pt x="833" y="468" on="0"/>
        <pt x="774" y="382" on="0"/>
        <pt x="689" y="327" on="0"/>
        <pt x="581" y="300" on="0"/>
        <pt x="514" y="300" on="1"/>
        <pt x="396" y="300" on="0"/>
        <pt x="240" y="388" on="0"/>
        <pt x="162" y="566" on="0"/>
        <pt x="162" y="720" on="1"/>
        <pt x="162" y="1128" on="1"/>
        <pt x="0" y="1128" on="1"/>
        <pt x="0" y="1274" on="1"/>
        <pt x="1510" y="1274" on="1"/>
      </contour>
      <contour>
        <pt x="697" y="1128" on="1"/>
        <pt x="326" y="1128" on="1"/>
        <pt x="326" y="722" on="1"/>
        <pt x="326" y="649" on="0"/>
        <pt x="341" y="560" on="0"/>
        <pt x="370" y="499" on="0"/>
        <pt x="413" y="462" on="0"/>
        <pt x="471" y="445" on="0"/>
        <pt x="509" y="445" on="1"/>
        <pt x="573" y="445" on="0"/>
        <pt x="646" y="484" on="0"/>
        <pt x="685" y="555" on="0"/>
        <pt x="697" y="645" on="0"/>
        <pt x="697" y="722" on="1"/>
      </contour>
    </TTGlyph>
    <TTGlyph name="glyph00269" xMin="0" yMin="0" xMax="1160" yMax="1274">
      <contour>
        <pt x="55" y="853" on="1"/>
        <pt x="142" y="895" on="0"/>
        <pt x="292" y="933" on="0"/>
        <pt x="367" y="933" on="1"/>
        <pt x="448" y="933" on="0"/>
        <pt x="576" y="882" on="0"/>
        <pt x="702" y="771" on="0"/>
        <pt x="782" y="668" on="1"/>
        <pt x="782" y="1128" on="1"/>
        <pt x="0" y="1128" on="1"/>
        <pt x="0" y="1274" on="1"/>
        <pt x="1160" y="1274" on="1"/>
        <pt x="1160" y="1128" on="1"/>
        <pt x="947" y="1128" on="1"/>
        <pt x="947" y="0" on="1"/>
        <pt x="782" y="0" on="1"/>
        <pt x="782" y="479" on="1"/>
        <pt x="261" y="133" on="1"/>
        <pt x="163" y="271" on="1"/>
        <pt x="667" y="576" on="1"/>
        <pt x="600" y="661" on="0"/>
        <pt x="515" y="740" on="0"/>
        <pt x="427" y="779" on="0"/>
        <pt x="371" y="779" on="1"/>
        <pt x="309" y="779" on="0"/>
        <pt x="190" y="742" on="0"/>
        <pt x="112" y="703" on="1"/>
      </contour>
    </TTGlyph>
    <TTGlyph name="glyph00270" xMin="95" yMin="-50" xMax="1344" yMax="1294">
      <contour>
        <pt x="382" y="801" on="1"/>
        <pt x="95" y="842" on="0"/>
        <pt x="95" y="1063" on="1"/>
        <pt x="95" y="1138" on="0"/>
        <pt x="164" y="1244" on="0"/>
        <pt x="280" y="1294" on="0"/>
        <pt x="353" y="1294" on="1"/>
        <pt x="448" y="1294" on="0"/>
        <pt x="605" y="1210" on="0"/>
        <pt x="688" y="1059" on="0"/>
        <pt x="688" y="960" on="1"/>
        <pt x="688" y="817" on="0"/>
        <pt x="533" y="623" on="0"/>
        <pt x="373" y="560" on="1"/>
        <pt x="424" y="480" on="0"/>
        <pt x="545" y="415" on="0"/>
        <pt x="643" y="415" on="1"/>
        <pt x="732" y="415" on="0"/>
        <pt x="888" y="484" on="0"/>
        <pt x="967" y="563" on="1"/>
        <pt x="967" y="1128" on="1"/>
        <pt x="799" y="1128" on="1"/>
        <pt x="799" y="1274" on="1"/>
        <pt x="1344" y="1274" on="1"/>
        <pt x="1344" y="1128" on="1"/>
        <pt x="1131" y="1128" on="1"/>
        <pt x="1131" y="0" on="1"/>
        <pt x="967" y="0" on="1"/>
        <pt x="967" y="367" on="1"/>
        <pt x="311" y="-50" on="1"/>
        <pt x="215" y="84" on="1"/>
        <pt x="565" y="281" on="1"/>
        <pt x="412" y="297" on="0"/>
        <pt x="208" y="490" on="0"/>
        <pt x="169" y="660" on="1"/>
        <pt x="348" y="696" on="0"/>
        <pt x="523" y="836" on="0"/>
        <pt x="523" y="956" on="1"/>
        <pt x="523" y="1022" on="0"/>
        <pt x="478" y="1116" on="0"/>
        <pt x="400" y="1163" on="0"/>
        <pt x="351" y="1163" on="1"/>
        <pt x="298" y="1163" on="0"/>
        <pt x="233" y="1112" on="0"/>
        <pt x="233" y="1068" on="1"/>
        <pt x="233" y="1016" on="0"/>
        <pt x="312" y="954" on="0"/>
        <pt x="399" y="945" on="1"/>
      </contour>
      <contour>
        <pt x="630" y="270" on="1"/>
      </contour>
      <contour>
        <pt x="169" y="514" on="1"/>
      </contour>
    </TTGlyph>
    <TTGlyph name="glyph00271" xMin="0" yMin="-136" xMax="1094" yMax="1274">
      <contour>
        <pt x="847" y="-118" on="1"/>
        <pt x="755" y="32" on="0"/>
        <pt x="701" y="150" on="1"/>
        <pt x="167" y="-136" on="1"/>
        <pt x="86" y="9" on="1"/>
        <pt x="437" y="166" on="1"/>
        <pt x="273" y="202" on="0"/>
        <pt x="95" y="400" on="0"/>
        <pt x="95" y="557" on="1"/>
        <pt x="95" y="614" on="0"/>
        <pt x="120" y="709" on="0"/>
        <pt x="179" y="800" on="0"/>
        <pt x="267" y="867" on="0"/>
        <pt x="376" y="910" on="0"/>
        <pt x="514" y="933" on="0"/>
        <pt x="594" y="933" on="1"/>
        <pt x="604" y="933" on="1"/>
        <pt x="604" y="1128" on="1"/>
        <pt x="0" y="1128" on="1"/>
        <pt x="0" y="1274" on="1"/>
        <pt x="1094" y="1274" on="1"/>
        <pt x="1094" y="1128" on="1"/>
        <pt x="769" y="1128" on="1"/>
        <pt x="769" y="789" on="1"/>
        <pt x="670" y="789" on="1"/>
        <pt x="512" y="789" on="0"/>
        <pt x="346" y="735" on="0"/>
        <pt x="259" y="623" on="0"/>
        <pt x="259" y="537" on="1"/>
        <pt x="259" y="463" on="0"/>
        <pt x="332" y="350" on="0"/>
        <pt x="483" y="286" on="0"/>
        <pt x="594" y="286" on="1"/>
        <pt x="609" y="286" on="0"/>
        <pt x="639" y="289" on="1"/>
        <pt x="632" y="307" on="0"/>
        <pt x="627" y="347" on="0"/>
        <pt x="627" y="361" on="1"/>
        <pt x="627" y="424" on="0"/>
        <pt x="704" y="492" on="0"/>
        <pt x="764" y="492" on="1"/>
        <pt x="821" y="492" on="0"/>
        <pt x="904" y="444" on="0"/>
        <pt x="944" y="371" on="0"/>
        <pt x="944" y="331" on="1"/>
        <pt x="944" y="275" on="0"/>
        <pt x="895" y="199" on="0"/>
        <pt x="839" y="177" on="1"/>
        <pt x="897" y="65" on="0"/>
        <pt x="983" y="-50" on="1"/>
      </contour>
      <contour>
        <pt x="604" y="1274" on="1"/>
      </contour>
      <contour>
        <pt x="812" y="0" on="1"/>
      </contour>
      <contour>
        <pt x="588" y="140" on="1"/>
      </contour>
    </TTGlyph>
    <TTGlyph name="glyph00272" xMin="87" yMin="-88" xMax="1290" yMax="1295">
      <contour>
        <pt x="1290" y="1274" on="1"/>
        <pt x="1290" y="1128" on="1"/>
        <pt x="1077" y="1128" on="1"/>
        <pt x="1077" y="0" on="1"/>
        <pt x="912" y="0" on="1"/>
        <pt x="912" y="320" on="1"/>
        <pt x="270" y="-88" on="1"/>
        <pt x="174" y="46" on="1"/>
        <pt x="493" y="226" on="1"/>
        <pt x="368" y="247" on="0"/>
        <pt x="227" y="401" on="0"/>
        <pt x="227" y="515" on="1"/>
        <pt x="227" y="569" on="0"/>
        <pt x="263" y="672" on="0"/>
        <pt x="303" y="712" on="1"/>
        <pt x="196" y="753" on="0"/>
        <pt x="87" y="904" on="0"/>
        <pt x="87" y="1010" on="1"/>
        <pt x="87" y="1090" on="0"/>
        <pt x="162" y="1221" on="0"/>
        <pt x="298" y="1295" on="0"/>
        <pt x="383" y="1295" on="1"/>
        <pt x="454" y="1295" on="0"/>
        <pt x="570" y="1244" on="0"/>
        <pt x="637" y="1148" on="0"/>
        <pt x="637" y="1087" on="1"/>
        <pt x="637" y="1039" on="0"/>
        <pt x="596" y="945" on="0"/>
        <pt x="556" y="908" on="1"/>
        <pt x="431" y="987" on="1"/>
        <pt x="472" y="1027" on="0"/>
        <pt x="472" y="1077" on="1"/>
        <pt x="472" y="1116" on="0"/>
        <pt x="422" y="1163" on="0"/>
        <pt x="376" y="1163" on="1"/>
        <pt x="338" y="1163" on="0"/>
        <pt x="275" y="1121" on="0"/>
        <pt x="238" y="1047" on="0"/>
        <pt x="238" y="1002" on="1"/>
        <pt x="238" y="951" on="0"/>
        <pt x="275" y="883" on="0"/>
        <pt x="337" y="839" on="0"/>
        <pt x="416" y="817" on="0"/>
        <pt x="457" y="813" on="1"/>
        <pt x="515" y="829" on="0"/>
        <pt x="589" y="829" on="1"/>
        <pt x="639" y="829" on="0"/>
        <pt x="681" y="823" on="1"/>
        <pt x="668" y="680" on="1"/>
        <pt x="642" y="683" on="0"/>
        <pt x="610" y="683" on="1"/>
        <pt x="506" y="683" on="0"/>
        <pt x="392" y="598" on="0"/>
        <pt x="392" y="520" on="1"/>
        <pt x="392" y="441" on="0"/>
        <pt x="500" y="355" on="0"/>
        <pt x="597" y="355" on="1"/>
        <pt x="687" y="355" on="0"/>
        <pt x="840" y="425" on="0"/>
        <pt x="912" y="501" on="1"/>
        <pt x="912" y="1128" on="1"/>
        <pt x="785" y="1128" on="1"/>
        <pt x="785" y="1274" on="1"/>
      </contour>
      <contour>
        <pt x="580" y="211" on="1"/>
      </contour>
    </TTGlyph>
    <TTGlyph name="glyph00273" xMin="0" yMin="-50" xMax="1166" yMax="1274">
      <contour>
        <pt x="0" y="1128" on="1"/>
        <pt x="0" y="1274" on="1"/>
        <pt x="1166" y="1274" on="1"/>
        <pt x="1166" y="1128" on="1"/>
        <pt x="953" y="1128" on="1"/>
        <pt x="953" y="0" on="1"/>
        <pt x="788" y="0" on="1"/>
        <pt x="788" y="251" on="1"/>
        <pt x="335" y="-50" on="1"/>
        <pt x="237" y="88" on="1"/>
        <pt x="788" y="421" on="1"/>
        <pt x="788" y="610" on="1"/>
        <pt x="419" y="610" on="1"/>
        <pt x="419" y="500" on="1"/>
        <pt x="419" y="445" on="0"/>
        <pt x="364" y="386" on="0"/>
        <pt x="314" y="386" on="1"/>
        <pt x="266" y="386" on="0"/>
        <pt x="152" y="471" on="0"/>
        <pt x="76" y="597" on="0"/>
        <pt x="76" y="651" on="1"/>
        <pt x="76" y="756" on="0"/>
        <pt x="200" y="756" on="1"/>
        <pt x="788" y="756" on="1"/>
        <pt x="788" y="1128" on="1"/>
      </contour>
    </TTGlyph>
    <TTGlyph name="glyph00274" xMin="0" yMin="-26" xMax="1194" yMax="1274">
      <contour>
        <pt x="1194" y="1128" on="1"/>
        <pt x="981" y="1128" on="1"/>
        <pt x="981" y="0" on="1"/>
        <pt x="817" y="0" on="1"/>
        <pt x="817" y="398" on="1"/>
        <pt x="188" y="-26" on="1"/>
        <pt x="92" y="108" on="1"/>
        <pt x="439" y="313" on="1"/>
        <pt x="341" y="329" on="0"/>
        <pt x="219" y="435" on="0"/>
        <pt x="162" y="590" on="0"/>
        <pt x="162" y="734" on="1"/>
        <pt x="162" y="1128" on="1"/>
        <pt x="0" y="1128" on="1"/>
        <pt x="0" y="1274" on="1"/>
        <pt x="1194" y="1274" on="1"/>
      </contour>
      <contour>
        <pt x="326" y="1128" on="1"/>
        <pt x="326" y="755" on="1"/>
        <pt x="326" y="657" on="0"/>
        <pt x="340" y="561" on="0"/>
        <pt x="371" y="506" on="0"/>
        <pt x="417" y="465" on="0"/>
        <pt x="487" y="445" on="0"/>
        <pt x="536" y="445" on="1"/>
        <pt x="609" y="445" on="0"/>
        <pt x="756" y="515" on="0"/>
        <pt x="817" y="578" on="1"/>
        <pt x="817" y="1128" on="1"/>
      </contour>
      <contour>
        <pt x="521" y="300" on="1"/>
      </contour>
    </TTGlyph>
    <TTGlyph name="glyph00275" xMin="0" yMin="-24" xMax="1609" yMax="1274">
      <contour>
        <pt x="777" y="0" on="1"/>
        <pt x="777" y="397" on="1"/>
        <pt x="186" y="-24" on="1"/>
        <pt x="90" y="108" on="1"/>
        <pt x="418" y="316" on="1"/>
        <pt x="357" y="328" on="0"/>
        <pt x="266" y="388" on="0"/>
        <pt x="195" y="488" on="0"/>
        <pt x="162" y="620" on="0"/>
        <pt x="162" y="726" on="1"/>
        <pt x="162" y="1128" on="1"/>
        <pt x="0" y="1128" on="1"/>
        <pt x="0" y="1274" on="1"/>
        <pt x="1609" y="1274" on="1"/>
        <pt x="1609" y="1128" on="1"/>
        <pt x="942" y="1128" on="1"/>
        <pt x="942" y="714" on="1"/>
        <pt x="993" y="764" on="0"/>
        <pt x="1111" y="818" on="0"/>
        <pt x="1184" y="818" on="1"/>
        <pt x="1271" y="818" on="0"/>
        <pt x="1407" y="743" on="0"/>
        <pt x="1485" y="593" on="0"/>
        <pt x="1485" y="490" on="1"/>
        <pt x="1485" y="386" on="0"/>
        <pt x="1416" y="173" on="0"/>
        <pt x="1352" y="79" on="1"/>
        <pt x="1204" y="164" on="1"/>
        <pt x="1256" y="230" on="0"/>
        <pt x="1320" y="403" on="0"/>
        <pt x="1320" y="486" on="1"/>
        <pt x="1320" y="580" on="0"/>
        <pt x="1240" y="675" on="0"/>
        <pt x="1168" y="675" on="1"/>
        <pt x="1113" y="675" on="0"/>
        <pt x="999" y="599" on="0"/>
        <pt x="942" y="526" on="1"/>
        <pt x="942" y="0" on="1"/>
      </contour>
      <contour>
        <pt x="326" y="1128" on="1"/>
        <pt x="326" y="737" on="1"/>
        <pt x="326" y="677" on="0"/>
        <pt x="332" y="595" on="0"/>
        <pt x="350" y="533" on="0"/>
        <pt x="385" y="485" on="0"/>
        <pt x="424" y="458" on="0"/>
        <pt x="476" y="445" on="0"/>
        <pt x="506" y="445" on="1"/>
        <pt x="580" y="445" on="0"/>
        <pt x="711" y="506" on="0"/>
        <pt x="777" y="573" on="1"/>
        <pt x="777" y="1128" on="1"/>
      </contour>
      <contour>
        <pt x="777" y="1274" on="1"/>
      </contour>
      <contour>
        <pt x="508" y="300" on="1"/>
      </contour>
    </TTGlyph>
    <TTGlyph name="glyph00276" xMin="0" yMin="-50" xMax="1199" yMax="1274">
      <contour>
        <pt x="1199" y="1274" on="1"/>
        <pt x="1199" y="1128" on="1"/>
        <pt x="986" y="1128" on="1"/>
        <pt x="986" y="0" on="1"/>
        <pt x="822" y="0" on="1"/>
        <pt x="822" y="349" on="1"/>
        <pt x="212" y="-50" on="1"/>
        <pt x="116" y="84" on="1"/>
        <pt x="416" y="254" on="1"/>
        <pt x="265" y="275" on="0"/>
        <pt x="95" y="454" on="0"/>
        <pt x="95" y="586" on="1"/>
        <pt x="95" y="700" on="0"/>
        <pt x="206" y="865" on="0"/>
        <pt x="409" y="950" on="0"/>
        <pt x="542" y="950" on="1"/>
        <pt x="593" y="950" on="0"/>
        <pt x="728" y="937" on="0"/>
        <pt x="756" y="929" on="1"/>
        <pt x="744" y="788" on="1"/>
        <pt x="623" y="809" on="0"/>
        <pt x="548" y="809" on="1"/>
        <pt x="507" y="809" on="0"/>
        <pt x="472" y="804" on="1"/>
        <pt x="747" y="460" on="1"/>
        <pt x="780" y="484" on="0"/>
        <pt x="822" y="525" on="1"/>
        <pt x="822" y="1128" on="1"/>
        <pt x="0" y="1128" on="1"/>
        <pt x="0" y="1274" on="1"/>
      </contour>
      <contour>
        <pt x="630" y="399" on="1"/>
        <pt x="344" y="757" on="1"/>
        <pt x="260" y="698" on="0"/>
        <pt x="260" y="587" on="1"/>
        <pt x="260" y="517" on="0"/>
        <pt x="324" y="422" on="0"/>
        <pt x="430" y="377" on="0"/>
        <pt x="495" y="377" on="1"/>
        <pt x="567" y="377" on="0"/>
      </contour>
      <contour>
        <pt x="493" y="241" on="1"/>
      </contour>
    </TTGlyph>
    <TTGlyph name="glyph00277" xMin="95" yMin="-50" xMax="1469" yMax="1294">
      <contour>
        <pt x="679" y="657" on="1"/>
        <pt x="1091" y="657" on="1"/>
        <pt x="1091" y="1128" on="1"/>
        <pt x="824" y="1128" on="1"/>
        <pt x="824" y="1274" on="1"/>
        <pt x="1469" y="1274" on="1"/>
        <pt x="1469" y="1128" on="1"/>
        <pt x="1256" y="1128" on="1"/>
        <pt x="1256" y="0" on="1"/>
        <pt x="1091" y="0" on="1"/>
        <pt x="1091" y="251" on="1"/>
        <pt x="638" y="-50" on="1"/>
        <pt x="540" y="88" on="1"/>
        <pt x="1091" y="421" on="1"/>
        <pt x="1091" y="511" on="1"/>
        <pt x="679" y="511" on="1"/>
        <pt x="679" y="437" on="1"/>
        <pt x="679" y="377" on="0"/>
        <pt x="625" y="309" on="0"/>
        <pt x="580" y="309" on="1"/>
        <pt x="532" y="309" on="0"/>
        <pt x="416" y="392" on="0"/>
        <pt x="335" y="519" on="0"/>
        <pt x="335" y="569" on="1"/>
        <pt x="335" y="612" on="0"/>
        <pt x="398" y="657" on="0"/>
        <pt x="459" y="657" on="1"/>
        <pt x="519" y="657" on="1"/>
        <pt x="519" y="873" on="1"/>
        <pt x="519" y="995" on="0"/>
        <pt x="481" y="1108" on="0"/>
        <pt x="404" y="1163" on="0"/>
        <pt x="346" y="1163" on="1"/>
        <pt x="290" y="1163" on="0"/>
        <pt x="233" y="1110" on="0"/>
        <pt x="233" y="1068" on="1"/>
        <pt x="233" y="1006" on="0"/>
        <pt x="338" y="947" on="0"/>
        <pt x="446" y="942" on="1"/>
        <pt x="431" y="796" on="1"/>
        <pt x="95" y="824" on="0"/>
        <pt x="95" y="1064" on="1"/>
        <pt x="95" y="1141" on="0"/>
        <pt x="165" y="1245" on="0"/>
        <pt x="283" y="1294" on="0"/>
        <pt x="356" y="1294" on="1"/>
        <pt x="427" y="1294" on="0"/>
        <pt x="546" y="1254" on="0"/>
        <pt x="641" y="1152" on="0"/>
        <pt x="679" y="1002" on="0"/>
        <pt x="679" y="894" on="1"/>
      </contour>
    </TTGlyph>
    <TTGlyph name="glyph00278" xMin="0" yMin="-50" xMax="1254" yMax="1274">
      <contour>
        <pt x="1254" y="1128" on="1"/>
        <pt x="1041" y="1128" on="1"/>
        <pt x="1041" y="0" on="1"/>
        <pt x="876" y="0" on="1"/>
        <pt x="876" y="251" on="1"/>
        <pt x="423" y="-50" on="1"/>
        <pt x="325" y="88" on="1"/>
        <pt x="876" y="421" on="1"/>
        <pt x="876" y="511" on="1"/>
        <pt x="424" y="511" on="1"/>
        <pt x="424" y="437" on="1"/>
        <pt x="424" y="377" on="0"/>
        <pt x="370" y="309" on="0"/>
        <pt x="325" y="309" on="1"/>
        <pt x="277" y="309" on="0"/>
        <pt x="161" y="392" on="0"/>
        <pt x="80" y="519" on="0"/>
        <pt x="80" y="569" on="1"/>
        <pt x="80" y="612" on="0"/>
        <pt x="144" y="657" on="0"/>
        <pt x="205" y="657" on="1"/>
        <pt x="260" y="657" on="1"/>
        <pt x="260" y="1128" on="1"/>
        <pt x="0" y="1128" on="1"/>
        <pt x="0" y="1274" on="1"/>
        <pt x="1254" y="1274" on="1"/>
      </contour>
      <contour>
        <pt x="876" y="657" on="1"/>
        <pt x="876" y="1128" on="1"/>
        <pt x="424" y="1128" on="1"/>
        <pt x="424" y="657" on="1"/>
      </contour>
    </TTGlyph>
    <TTGlyph name="glyph00279" xMin="0" yMin="-50" xMax="1218" yMax="1274">
      <contour>
        <pt x="841" y="364" on="1"/>
        <pt x="190" y="-50" on="1"/>
        <pt x="94" y="84" on="1"/>
        <pt x="447" y="283" on="1"/>
        <pt x="298" y="305" on="0"/>
        <pt x="104" y="534" on="0"/>
        <pt x="78" y="722" on="1"/>
        <pt x="210" y="750" on="0"/>
        <pt x="327" y="850" on="0"/>
        <pt x="327" y="936" on="1"/>
        <pt x="327" y="1029" on="0"/>
        <pt x="252" y="1128" on="1"/>
        <pt x="0" y="1128" on="1"/>
        <pt x="0" y="1274" on="1"/>
        <pt x="1218" y="1274" on="1"/>
        <pt x="1218" y="1128" on="1"/>
        <pt x="1005" y="1128" on="1"/>
        <pt x="1005" y="0" on="1"/>
        <pt x="841" y="0" on="1"/>
      </contour>
      <contour>
        <pt x="264" y="617" on="1"/>
        <pt x="305" y="514" on="0"/>
        <pt x="432" y="415" on="0"/>
        <pt x="530" y="415" on="1"/>
        <pt x="616" y="415" on="0"/>
        <pt x="773" y="488" on="0"/>
        <pt x="841" y="563" on="1"/>
        <pt x="841" y="1128" on="1"/>
        <pt x="433" y="1128" on="1"/>
        <pt x="461" y="1076" on="0"/>
        <pt x="492" y="965" on="0"/>
        <pt x="492" y="912" on="1"/>
        <pt x="492" y="804" on="0"/>
        <pt x="377" y="653" on="0"/>
      </contour>
      <contour>
        <pt x="518" y="270" on="1"/>
      </contour>
      <contour>
        <pt x="78" y="576" on="1"/>
      </contour>
    </TTGlyph>
    <TTGlyph name="glyph00280" xMin="-23" yMin="-548" xMax="868" yMax="1274">
      <component glyphName="uni0930" x="0" y="0" flags="0x204"/>
      <component glyphName="glyph00182" x="931" y="0" flags="0x4"/>
    </TTGlyph>
    <TTGlyph name="glyph00281" xMin="0" yMin="-25" xMax="1459" yMax="1274">
      <contour>
        <pt x="726" y="758" on="1"/>
        <pt x="846" y="872" on="0"/>
        <pt x="1024" y="872" on="1"/>
        <pt x="1053" y="872" on="0"/>
        <pt x="1082" y="867" on="1"/>
        <pt x="1082" y="1128" on="1"/>
        <pt x="0" y="1128" on="1"/>
        <pt x="0" y="1274" on="1"/>
        <pt x="1459" y="1274" on="1"/>
        <pt x="1459" y="1128" on="1"/>
        <pt x="1246" y="1128" on="1"/>
        <pt x="1246" y="0" on="1"/>
        <pt x="1082" y="0" on="1"/>
        <pt x="1082" y="330" on="1"/>
        <pt x="810" y="107" on="1"/>
        <pt x="695" y="230" on="1"/>
        <pt x="1082" y="506" on="1"/>
        <pt x="1082" y="719" on="1"/>
        <pt x="1050" y="729" on="0"/>
        <pt x="1011" y="729" on="1"/>
        <pt x="913" y="729" on="0"/>
        <pt x="773" y="577" on="0"/>
        <pt x="729" y="427" on="1"/>
        <pt x="572" y="476" on="1"/>
        <pt x="597" y="572" on="0"/>
        <pt x="636" y="641" on="1"/>
        <pt x="576" y="686" on="0"/>
        <pt x="478" y="722" on="0"/>
        <pt x="428" y="722" on="1"/>
        <pt x="349" y="722" on="0"/>
        <pt x="258" y="632" on="0"/>
        <pt x="258" y="556" on="1"/>
        <pt x="258" y="528" on="0"/>
        <pt x="269" y="474" on="0"/>
        <pt x="295" y="417" on="0"/>
        <pt x="342" y="348" on="0"/>
        <pt x="421" y="264" on="0"/>
        <pt x="547" y="153" on="0"/>
        <pt x="632" y="82" on="1"/>
        <pt x="522" y="-25" on="1"/>
        <pt x="408" y="72" on="0"/>
        <pt x="283" y="188" on="0"/>
        <pt x="183" y="304" on="0"/>
        <pt x="122" y="410" on="0"/>
        <pt x="93" y="511" on="0"/>
        <pt x="93" y="564" on="1"/>
        <pt x="93" y="657" on="0"/>
        <pt x="179" y="796" on="0"/>
        <pt x="331" y="872" on="0"/>
        <pt x="418" y="872" on="1"/>
        <pt x="502" y="872" on="0"/>
        <pt x="653" y="816" on="0"/>
      </contour>
    </TTGlyph>
    <TTGlyph name="glyph00282" xMin="0" yMin="-548" xMax="1587" yMax="1274">
      <component glyphName="uni0933" x="0" y="0" flags="0x204"/>
      <component glyphName="glyph00182" x="1496" y="0" flags="0x4"/>
    </TTGlyph>
    <TTGlyph name="glyph00283" xMin="0" yMin="-50" xMax="1169" yMax="1274">
      <contour>
        <pt x="1169" y="1274" on="1"/>
        <pt x="1169" y="1128" on="1"/>
        <pt x="956" y="1128" on="1"/>
        <pt x="956" y="0" on="1"/>
        <pt x="792" y="0" on="1"/>
        <pt x="792" y="333" on="1"/>
        <pt x="212" y="-50" on="1"/>
        <pt x="116" y="84" on="1"/>
        <pt x="413" y="253" on="1"/>
        <pt x="265" y="270" on="0"/>
        <pt x="95" y="449" on="0"/>
        <pt x="95" y="586" on="1"/>
        <pt x="95" y="700" on="0"/>
        <pt x="201" y="865" on="0"/>
        <pt x="395" y="950" on="0"/>
        <pt x="522" y="950" on="1"/>
        <pt x="570" y="950" on="0"/>
        <pt x="699" y="937" on="0"/>
        <pt x="726" y="929" on="1"/>
        <pt x="714" y="780" on="1"/>
        <pt x="600" y="801" on="0"/>
        <pt x="530" y="801" on="1"/>
        <pt x="401" y="801" on="0"/>
        <pt x="260" y="688" on="0"/>
        <pt x="260" y="587" on="1"/>
        <pt x="260" y="520" on="0"/>
        <pt x="320" y="428" on="0"/>
        <pt x="421" y="385" on="0"/>
        <pt x="482" y="385" on="1"/>
        <pt x="654" y="385" on="0"/>
        <pt x="792" y="531" on="1"/>
        <pt x="792" y="1128" on="1"/>
        <pt x="0" y="1128" on="1"/>
        <pt x="0" y="1274" on="1"/>
      </contour>
      <contour>
        <pt x="477" y="241" on="1"/>
      </contour>
    </TTGlyph>
    <TTGlyph name="glyph00284" xMin="57" yMin="0" xMax="1460" yMax="1295">
      <contour>
        <pt x="1460" y="1128" on="1"/>
        <pt x="1247" y="1128" on="1"/>
        <pt x="1247" y="0" on="1"/>
        <pt x="1082" y="0" on="1"/>
        <pt x="1082" y="466" on="1"/>
        <pt x="497" y="81" on="1"/>
        <pt x="399" y="219" on="1"/>
        <pt x="915" y="529" on="1"/>
        <pt x="684" y="577" on="0"/>
        <pt x="527" y="644" on="1"/>
        <pt x="353" y="529" on="0"/>
        <pt x="155" y="414" on="1"/>
        <pt x="57" y="552" on="1"/>
        <pt x="241" y="646" on="0"/>
        <pt x="374" y="725" on="1"/>
        <pt x="281" y="791" on="0"/>
        <pt x="183" y="937" on="0"/>
        <pt x="183" y="1030" on="1"/>
        <pt x="183" y="1101" on="0"/>
        <pt x="259" y="1222" on="0"/>
        <pt x="408" y="1295" on="0"/>
        <pt x="505" y="1295" on="1"/>
        <pt x="593" y="1295" on="0"/>
        <pt x="735" y="1228" on="0"/>
        <pt x="817" y="1103" on="0"/>
        <pt x="817" y="1023" on="1"/>
        <pt x="817" y="943" on="0"/>
        <pt x="736" y="803" on="0"/>
        <pt x="654" y="739" on="1"/>
        <pt x="740" y="706" on="0"/>
        <pt x="973" y="651" on="0"/>
        <pt x="1082" y="638" on="1"/>
        <pt x="1082" y="1128" on="1"/>
        <pt x="944" y="1128" on="1"/>
        <pt x="944" y="1274" on="1"/>
        <pt x="1460" y="1274" on="1"/>
      </contour>
      <contour>
        <pt x="507" y="804" on="1"/>
        <pt x="577" y="850" on="0"/>
        <pt x="652" y="961" on="0"/>
        <pt x="652" y="1024" on="1"/>
        <pt x="652" y="1090" on="0"/>
        <pt x="572" y="1160" on="0"/>
        <pt x="500" y="1160" on="1"/>
        <pt x="459" y="1160" on="0"/>
        <pt x="389" y="1128" on="0"/>
        <pt x="344" y="1063" on="0"/>
        <pt x="344" y="1017" on="1"/>
        <pt x="344" y="956" on="0"/>
        <pt x="428" y="848" on="0"/>
      </contour>
      <contour>
        <pt x="1082" y="492" on="1"/>
      </contour>
    </TTGlyph>
    <TTGlyph name="glyph00285" xMin="0" yMin="-26" xMax="1214" yMax="1274">
      <contour>
        <pt x="1214" y="1128" on="1"/>
        <pt x="1001" y="1128" on="1"/>
        <pt x="1001" y="0" on="1"/>
        <pt x="837" y="0" on="1"/>
        <pt x="837" y="398" on="1"/>
        <pt x="188" y="-26" on="1"/>
        <pt x="92" y="108" on="1"/>
        <pt x="447" y="312" on="1"/>
        <pt x="344" y="326" on="0"/>
        <pt x="219" y="434" on="0"/>
        <pt x="162" y="590" on="0"/>
        <pt x="162" y="734" on="1"/>
        <pt x="162" y="1128" on="1"/>
        <pt x="0" y="1128" on="1"/>
        <pt x="0" y="1274" on="1"/>
        <pt x="1214" y="1274" on="1"/>
      </contour>
      <contour>
        <pt x="420" y="1128" on="1"/>
        <pt x="837" y="585" on="1"/>
        <pt x="837" y="1128" on="1"/>
      </contour>
      <contour>
        <pt x="326" y="1038" on="1"/>
        <pt x="326" y="755" on="1"/>
        <pt x="326" y="657" on="0"/>
        <pt x="340" y="561" on="0"/>
        <pt x="371" y="506" on="0"/>
        <pt x="417" y="465" on="0"/>
        <pt x="487" y="445" on="0"/>
        <pt x="536" y="445" on="1"/>
        <pt x="591" y="445" on="0"/>
        <pt x="692" y="477" on="0"/>
        <pt x="737" y="502" on="1"/>
      </contour>
      <contour>
        <pt x="521" y="300" on="1"/>
      </contour>
    </TTGlyph>
    <TTGlyph name="glyph00286" xMin="0" yMin="-25" xMax="1495" yMax="1274">
      <contour>
        <pt x="1495" y="1128" on="1"/>
        <pt x="1302" y="1128" on="1"/>
        <pt x="1302" y="0" on="1"/>
        <pt x="1137" y="0" on="1"/>
        <pt x="1137" y="445" on="1"/>
        <pt x="821" y="220" on="1"/>
        <pt x="723" y="358" on="1"/>
        <pt x="1137" y="615" on="1"/>
        <pt x="1137" y="620" on="1"/>
        <pt x="810" y="620" on="1"/>
        <pt x="628" y="620" on="0"/>
        <pt x="523" y="645" on="1"/>
        <pt x="461" y="569" on="0"/>
        <pt x="343" y="518" on="1"/>
        <pt x="427" y="410" on="0"/>
        <pt x="653" y="186" on="0"/>
        <pt x="778" y="85" on="1"/>
        <pt x="668" y="-25" on="1"/>
        <pt x="554" y="74" on="0"/>
        <pt x="332" y="299" on="0"/>
        <pt x="162" y="501" on="0"/>
        <pt x="122" y="567" on="1"/>
        <pt x="98" y="608" on="0"/>
        <pt x="81" y="664" on="0"/>
        <pt x="81" y="696" on="1"/>
        <pt x="81" y="723" on="0"/>
        <pt x="108" y="772" on="0"/>
        <pt x="167" y="804" on="0"/>
        <pt x="212" y="804" on="1"/>
        <pt x="263" y="804" on="0"/>
        <pt x="340" y="757" on="0"/>
        <pt x="371" y="715" on="1"/>
        <pt x="407" y="747" on="0"/>
        <pt x="445" y="861" on="0"/>
        <pt x="445" y="938" on="1"/>
        <pt x="445" y="999" on="0"/>
        <pt x="425" y="1098" on="0"/>
        <pt x="411" y="1128" on="1"/>
        <pt x="0" y="1128" on="1"/>
        <pt x="0" y="1274" on="1"/>
        <pt x="1495" y="1274" on="1"/>
      </contour>
      <contour>
        <pt x="585" y="770" on="1"/>
        <pt x="625" y="766" on="0"/>
        <pt x="700" y="766" on="1"/>
        <pt x="1137" y="766" on="1"/>
        <pt x="1137" y="1128" on="1"/>
        <pt x="576" y="1128" on="1"/>
        <pt x="610" y="1049" on="0"/>
        <pt x="610" y="937" on="1"/>
        <pt x="610" y="842" on="0"/>
      </contour>
    </TTGlyph>
    <TTGlyph name="glyph00287" xMin="0" yMin="-548" xMax="1168" yMax="1274">
      <contour>
        <pt x="807" y="2" on="1"/>
        <pt x="848" y="57" on="0"/>
        <pt x="895" y="185" on="0"/>
        <pt x="895" y="241" on="1"/>
        <pt x="895" y="270" on="0"/>
        <pt x="890" y="294" on="1"/>
        <pt x="519" y="31" on="1"/>
        <pt x="421" y="169" on="1"/>
        <pt x="818" y="410" on="1"/>
        <pt x="740" y="467" on="0"/>
        <pt x="585" y="467" on="1"/>
        <pt x="436" y="467" on="0"/>
        <pt x="282" y="336" on="0"/>
        <pt x="282" y="208" on="1"/>
        <pt x="282" y="131" on="0"/>
        <pt x="345" y="-9" on="0"/>
        <pt x="503" y="-184" on="0"/>
        <pt x="677" y="-334" on="1"/>
        <pt x="567" y="-441" on="1"/>
        <pt x="384" y="-286" on="0"/>
        <pt x="198" y="-70" on="0"/>
        <pt x="118" y="123" on="0"/>
        <pt x="118" y="230" on="1"/>
        <pt x="118" y="314" on="0"/>
        <pt x="187" y="462" on="0"/>
        <pt x="251" y="513" on="1"/>
        <pt x="192" y="562" on="0"/>
        <pt x="142" y="663" on="0"/>
        <pt x="142" y="721" on="1"/>
        <pt x="142" y="784" on="0"/>
        <pt x="192" y="871" on="0"/>
        <pt x="277" y="927" on="0"/>
        <pt x="387" y="953" on="0"/>
        <pt x="470" y="953" on="1"/>
        <pt x="790" y="953" on="1"/>
        <pt x="790" y="1128" on="1"/>
        <pt x="0" y="1128" on="1"/>
        <pt x="0" y="1274" on="1"/>
        <pt x="1168" y="1274" on="1"/>
        <pt x="1168" y="1128" on="1"/>
        <pt x="955" y="1128" on="1"/>
        <pt x="955" y="807" on="1"/>
        <pt x="465" y="807" on="1"/>
        <pt x="401" y="807" on="0"/>
        <pt x="338" y="791" on="0"/>
        <pt x="300" y="745" on="0"/>
        <pt x="300" y="710" on="1"/>
        <pt x="300" y="670" on="0"/>
        <pt x="352" y="607" on="0"/>
        <pt x="396" y="588" on="1"/>
        <pt x="486" y="614" on="0"/>
        <pt x="592" y="614" on="1"/>
        <pt x="738" y="614" on="0"/>
        <pt x="940" y="523" on="0"/>
        <pt x="1043" y="356" on="0"/>
        <pt x="1043" y="250" on="1"/>
        <pt x="1043" y="158" on="0"/>
        <pt x="1000" y="5" on="0"/>
        <pt x="950" y="-82" on="1"/>
      </contour>
      <contour>
        <pt x="566" y="-548" on="1"/>
      </contour>
    </TTGlyph>
    <TTGlyph name="glyph00288" xMin="0" yMin="-548" xMax="1166" yMax="1274">
      <component glyphName="uni0978" x="0" y="0" flags="0x204"/>
      <component glyphName="glyph00182" x="1018" y="0" flags="0x0"/>
    </TTGlyph>
    <TTGlyph name="glyph00289" xMin="0" yMin="-130" xMax="1620" yMax="1274">
      <contour>
        <pt x="1242" y="807" on="1"/>
        <pt x="891" y="807" on="1"/>
        <pt x="816" y="807" on="0"/>
        <pt x="797" y="809" on="1"/>
        <pt x="939" y="697" on="0"/>
        <pt x="939" y="548" on="1"/>
        <pt x="939" y="434" on="0"/>
        <pt x="771" y="302" on="0"/>
        <pt x="635" y="302" on="1"/>
        <pt x="457" y="302" on="0"/>
        <pt x="180" y="587" on="0"/>
        <pt x="64" y="870" on="1"/>
        <pt x="208" y="922" on="1"/>
        <pt x="306" y="680" on="0"/>
        <pt x="508" y="453" on="0"/>
        <pt x="627" y="453" on="1"/>
        <pt x="699" y="453" on="0"/>
        <pt x="777" y="515" on="0"/>
        <pt x="777" y="574" on="1"/>
        <pt x="777" y="640" on="0"/>
        <pt x="664" y="767" on="0"/>
        <pt x="560" y="821" on="1"/>
        <pt x="618" y="953" on="1"/>
        <pt x="1242" y="953" on="1"/>
        <pt x="1242" y="1128" on="1"/>
        <pt x="0" y="1128" on="1"/>
        <pt x="0" y="1274" on="1"/>
        <pt x="1620" y="1274" on="1"/>
        <pt x="1620" y="1128" on="1"/>
        <pt x="1407" y="1128" on="1"/>
        <pt x="1407" y="0" on="1"/>
        <pt x="1242" y="0" on="1"/>
        <pt x="1242" y="232" on="1"/>
        <pt x="1004" y="-50" on="1"/>
        <pt x="876" y="55" on="1"/>
        <pt x="1242" y="451" on="1"/>
      </contour>
      <contour>
        <pt x="766" y="268" on="1"/>
        <pt x="807" y="268" on="0"/>
        <pt x="868" y="205" on="0"/>
        <pt x="868" y="161" on="1"/>
        <pt x="868" y="117" on="0"/>
        <pt x="807" y="54" on="0"/>
        <pt x="766" y="54" on="1"/>
        <pt x="725" y="54" on="0"/>
        <pt x="664" y="117" on="0"/>
        <pt x="664" y="161" on="1"/>
        <pt x="664" y="205" on="0"/>
        <pt x="725" y="268" on="0"/>
      </contour>
      <contour>
        <pt x="386" y="268" on="1"/>
        <pt x="427" y="268" on="0"/>
        <pt x="488" y="205" on="0"/>
        <pt x="488" y="161" on="1"/>
        <pt x="488" y="117" on="0"/>
        <pt x="427" y="54" on="0"/>
        <pt x="386" y="54" on="1"/>
        <pt x="345" y="54" on="0"/>
        <pt x="284" y="116" on="0"/>
        <pt x="284" y="161" on="1"/>
        <pt x="284" y="205" on="0"/>
        <pt x="345" y="268" on="0"/>
      </contour>
      <contour>
        <pt x="576" y="84" on="1"/>
        <pt x="617" y="84" on="0"/>
        <pt x="678" y="22" on="0"/>
        <pt x="678" y="-23" on="1"/>
        <pt x="678" y="-67" on="0"/>
        <pt x="617" y="-130" on="0"/>
        <pt x="576" y="-130" on="1"/>
        <pt x="535" y="-130" on="0"/>
        <pt x="474" y="-67" on="0"/>
        <pt x="474" y="-23" on="1"/>
        <pt x="474" y="21" on="0"/>
        <pt x="535" y="84" on="0"/>
      </contour>
    </TTGlyph>
    <TTGlyph name="glyph00290" xMin="0" yMin="-50" xMax="1218" yMax="1274">
      <contour>
        <pt x="841" y="364" on="1"/>
        <pt x="190" y="-50" on="1"/>
        <pt x="94" y="84" on="1"/>
        <pt x="447" y="283" on="1"/>
        <pt x="298" y="305" on="0"/>
        <pt x="104" y="534" on="0"/>
        <pt x="78" y="722" on="1"/>
        <pt x="210" y="750" on="0"/>
        <pt x="327" y="850" on="0"/>
        <pt x="327" y="936" on="1"/>
        <pt x="327" y="1029" on="0"/>
        <pt x="252" y="1128" on="1"/>
        <pt x="0" y="1128" on="1"/>
        <pt x="0" y="1274" on="1"/>
        <pt x="1218" y="1274" on="1"/>
        <pt x="1218" y="1128" on="1"/>
        <pt x="1005" y="1128" on="1"/>
        <pt x="1005" y="0" on="1"/>
        <pt x="841" y="0" on="1"/>
      </contour>
      <contour>
        <pt x="433" y="1128" on="1"/>
        <pt x="455" y="1081" on="0"/>
        <pt x="466" y="1041" on="1"/>
        <pt x="841" y="565" on="1"/>
        <pt x="841" y="1128" on="1"/>
      </contour>
      <contour>
        <pt x="749" y="477" on="1"/>
        <pt x="560" y="708" on="1"/>
        <pt x="508" y="771" on="0"/>
        <pt x="470" y="824" on="1"/>
        <pt x="438" y="670" on="0"/>
        <pt x="264" y="617" on="1"/>
        <pt x="305" y="514" on="0"/>
        <pt x="432" y="415" on="0"/>
        <pt x="530" y="415" on="1"/>
        <pt x="650" y="415" on="0"/>
      </contour>
      <contour>
        <pt x="89" y="576" on="1"/>
      </contour>
      <contour>
        <pt x="518" y="270" on="1"/>
      </contour>
    </TTGlyph>
    <TTGlyph name="glyph00291" xMin="95" yMin="-134" xMax="1578" yMax="1295">
      <contour>
        <pt x="520" y="249" on="1"/>
        <pt x="507" y="267" on="0"/>
        <pt x="498" y="307" on="0"/>
        <pt x="498" y="321" on="1"/>
        <pt x="498" y="378" on="0"/>
        <pt x="571" y="442" on="0"/>
        <pt x="631" y="442" on="1"/>
        <pt x="685" y="442" on="0"/>
        <pt x="766" y="392" on="0"/>
        <pt x="805" y="317" on="0"/>
        <pt x="805" y="279" on="1"/>
        <pt x="805" y="222" on="0"/>
        <pt x="755" y="155" on="0"/>
        <pt x="707" y="136" on="1"/>
        <pt x="781" y="40" on="0"/>
        <pt x="877" y="-49" on="1"/>
        <pt x="758" y="-134" on="1"/>
        <pt x="626" y="18" on="0"/>
        <pt x="571" y="109" on="1"/>
        <pt x="538" y="103" on="0"/>
        <pt x="470" y="103" on="1"/>
        <pt x="361" y="103" on="0"/>
        <pt x="189" y="186" on="0"/>
        <pt x="95" y="331" on="0"/>
        <pt x="95" y="419" on="1"/>
        <pt x="95" y="488" on="0"/>
        <pt x="155" y="603" on="0"/>
        <pt x="254" y="692" on="0"/>
        <pt x="335" y="740" on="1"/>
        <pt x="247" y="797" on="0"/>
        <pt x="152" y="945" on="0"/>
        <pt x="152" y="1038" on="1"/>
        <pt x="152" y="1110" on="0"/>
        <pt x="226" y="1227" on="0"/>
        <pt x="373" y="1295" on="0"/>
        <pt x="474" y="1295" on="1"/>
        <pt x="558" y="1295" on="0"/>
        <pt x="698" y="1243" on="0"/>
        <pt x="783" y="1133" on="0"/>
        <pt x="783" y="1054" on="1"/>
        <pt x="783" y="966" on="0"/>
        <pt x="699" y="830" on="0"/>
        <pt x="605" y="764" on="1"/>
        <pt x="677" y="746" on="0"/>
        <pt x="786" y="746" on="1"/>
        <pt x="897" y="746" on="0"/>
        <pt x="1099" y="808" on="0"/>
        <pt x="1201" y="875" on="1"/>
        <pt x="1201" y="1128" on="1"/>
        <pt x="928" y="1128" on="1"/>
        <pt x="928" y="1274" on="1"/>
        <pt x="1578" y="1274" on="1"/>
        <pt x="1578" y="1128" on="1"/>
        <pt x="1365" y="1128" on="1"/>
        <pt x="1365" y="0" on="1"/>
        <pt x="1200" y="0" on="1"/>
        <pt x="1200" y="261" on="1"/>
        <pt x="981" y="15" on="1"/>
        <pt x="858" y="126" on="1"/>
        <pt x="1200" y="474" on="1"/>
        <pt x="1200" y="689" on="1"/>
        <pt x="1122" y="646" on="0"/>
        <pt x="925" y="601" on="0"/>
        <pt x="817" y="601" on="1"/>
        <pt x="728" y="601" on="0"/>
        <pt x="539" y="637" on="0"/>
        <pt x="463" y="668" on="1"/>
        <pt x="389" y="623" on="0"/>
        <pt x="306" y="551" on="0"/>
        <pt x="263" y="473" on="0"/>
        <pt x="263" y="425" on="1"/>
        <pt x="263" y="395" on="0"/>
        <pt x="283" y="331" on="0"/>
        <pt x="331" y="280" on="0"/>
        <pt x="415" y="246" on="0"/>
        <pt x="480" y="246" on="1"/>
        <pt x="493" y="246" on="0"/>
      </contour>
      <contour>
        <pt x="467" y="818" on="1"/>
        <pt x="547" y="869" on="0"/>
        <pt x="621" y="975" on="0"/>
        <pt x="621" y="1037" on="1"/>
        <pt x="621" y="1070" on="0"/>
        <pt x="590" y="1126" on="0"/>
        <pt x="522" y="1160" on="0"/>
        <pt x="470" y="1160" on="1"/>
        <pt x="399" y="1160" on="0"/>
        <pt x="313" y="1088" on="0"/>
        <pt x="313" y="1028" on="1"/>
        <pt x="313" y="966" on="0"/>
        <pt x="394" y="856" on="0"/>
      </contour>
    </TTGlyph>
    <TTGlyph name="glyph00292" xMin="0" yMin="-80" xMax="1498" yMax="1274">
      <contour>
        <pt x="179" y="766" on="1"/>
        <pt x="228" y="904" on="1"/>
        <pt x="1120" y="904" on="1"/>
        <pt x="1120" y="1128" on="1"/>
        <pt x="0" y="1128" on="1"/>
        <pt x="0" y="1274" on="1"/>
        <pt x="1498" y="1274" on="1"/>
        <pt x="1498" y="1128" on="1"/>
        <pt x="1285" y="1128" on="1"/>
        <pt x="1285" y="0" on="1"/>
        <pt x="1120" y="0" on="1"/>
        <pt x="1120" y="362" on="1"/>
        <pt x="896" y="109" on="1"/>
        <pt x="778" y="226" on="1"/>
        <pt x="1120" y="574" on="1"/>
        <pt x="1120" y="758" on="1"/>
        <pt x="667" y="758" on="1"/>
        <pt x="537" y="758" on="0"/>
        <pt x="475" y="767" on="1"/>
        <pt x="595" y="705" on="0"/>
        <pt x="710" y="549" on="0"/>
        <pt x="710" y="447" on="1"/>
        <pt x="710" y="348" on="0"/>
        <pt x="600" y="209" on="0"/>
        <pt x="501" y="181" on="1"/>
        <pt x="548" y="152" on="0"/>
        <pt x="696" y="89" on="0"/>
        <pt x="780" y="63" on="1"/>
        <pt x="713" y="-80" on="1"/>
        <pt x="623" y="-45" on="0"/>
        <pt x="419" y="76" on="0"/>
        <pt x="325" y="151" on="1"/>
        <pt x="192" y="154" on="0"/>
        <pt x="71" y="217" on="0"/>
        <pt x="71" y="279" on="1"/>
        <pt x="71" y="327" on="0"/>
        <pt x="129" y="385" on="0"/>
        <pt x="181" y="385" on="1"/>
        <pt x="226" y="385" on="0"/>
        <pt x="315" y="340" on="0"/>
        <pt x="373" y="290" on="1"/>
        <pt x="453" y="300" on="0"/>
        <pt x="548" y="391" on="0"/>
        <pt x="548" y="458" on="1"/>
        <pt x="548" y="560" on="0"/>
        <pt x="363" y="711" on="0"/>
      </contour>
    </TTGlyph>
    <TTGlyph name="glyph00293" xMin="0" yMin="-309" xMax="1591" yMax="1274">
      <component glyphName="glyph00254" x="0" y="0" flags="0x204"/>
      <component glyphName="uni093C" x="1057" y="85" flags="0x4"/>
    </TTGlyph>
    <TTGlyph name="glyph00294" xMin="0" yMin="-241" xMax="1705" yMax="1274">
      <component glyphName="glyph00255" x="0" y="0" flags="0x204"/>
      <component glyphName="glyph00785" x="800" y="349" flags="0x4"/>
    </TTGlyph>
    <TTGlyph name="glyph00295" xMin="0" yMin="-394" xMax="1183" yMax="1274">
      <component glyphName="glyph00256" x="0" y="0" flags="0x204"/>
      <component glyphName="uni093C" x="997" y="0" flags="0x4"/>
    </TTGlyph>
    <TTGlyph name="glyph00296" xMin="0" yMin="-309" xMax="1240" yMax="1274">
      <component glyphName="glyph00257" x="0" y="0" flags="0x204"/>
      <component glyphName="uni093C" x="1107" y="85" flags="0x4"/>
    </TTGlyph>
    <TTGlyph name="glyph00297" xMin="0" yMin="-548" xMax="1458" yMax="1274">
      <component glyphName="uni0919" x="0" y="0" flags="0x204"/>
      <component glyphName="glyph00182" x="1202" y="0" flags="0x4"/>
      <component glyphName="uni093C" x="851" y="212" flags="0x4"/>
    </TTGlyph>
    <TTGlyph name="glyph00298" xMin="0" yMin="-309" xMax="1329" yMax="1274">
      <component glyphName="glyph00259" x="0" y="0" flags="0x204"/>
      <component glyphName="uni093C" x="1217" y="85" flags="0x4"/>
    </TTGlyph>
    <TTGlyph name="glyph00299" xMin="0" yMin="-548" xMax="1465" yMax="1274">
      <component glyphName="uni091B" x="0" y="0" flags="0x204"/>
      <component glyphName="glyph00182" x="1255" y="0" flags="0x4"/>
      <component glyphName="uni093C" x="812" y="153" flags="0x4"/>
    </TTGlyph>
    <TTGlyph name="glyph00300" xMin="0" yMin="-332" xMax="1620" yMax="1274">
      <component glyphName="glyph00261" x="0" y="0" flags="0x204"/>
      <component glyphName="uni093C" x="1149" y="62" flags="0x4"/>
    </TTGlyph>
    <TTGlyph name="glyph00301" xMin="0" yMin="-413" xMax="1670" yMax="1274">
      <component glyphName="glyph00262" x="0" y="0" flags="0x204"/>
      <component glyphName="uni093C" x="977" y="-19" flags="0x4"/>
    </TTGlyph>
    <TTGlyph name="glyph00302" xMin="0" yMin="-341" xMax="1609" yMax="1274">
      <component glyphName="glyph00263" x="0" y="0" flags="0x204"/>
      <component glyphName="uni093C" x="1123" y="53" flags="0x4"/>
    </TTGlyph>
    <TTGlyph name="glyph00303" xMin="0" yMin="-548" xMax="1062" yMax="1274">
      <component glyphName="uni091F" x="0" y="0" flags="0x204"/>
      <component glyphName="glyph00182" x="1098" y="0" flags="0x4"/>
      <component glyphName="uni093C" x="776" y="191" flags="0x4"/>
    </TTGlyph>
    <TTGlyph name="glyph00304" xMin="0" yMin="-548" xMax="1228" yMax="1274">
      <component glyphName="uni0920" x="0" y="0" flags="0x204"/>
      <component glyphName="glyph00182" x="1173" y="0" flags="0x4"/>
      <component glyphName="uni093C" x="789" y="169" flags="0x4"/>
    </TTGlyph>
    <TTGlyph name="glyph00305" xMin="0" yMin="-548" xMax="1315" yMax="1274">
      <component glyphName="uni0921" x="0" y="0" flags="0x204"/>
      <component glyphName="glyph00182" x="1202" y="0" flags="0x4"/>
      <component glyphName="uni093C" x="851" y="212" flags="0x4"/>
    </TTGlyph>
    <TTGlyph name="glyph00306" xMin="0" yMin="-548" xMax="1182" yMax="1274">
      <component glyphName="uni0922" x="0" y="0" flags="0x204"/>
      <component glyphName="glyph00182" x="1154" y="0" flags="0x4"/>
      <component glyphName="uni093C" x="784" y="189" flags="0x4"/>
    </TTGlyph>
    <TTGlyph name="glyph00307" xMin="0" yMin="-364" xMax="1510" yMax="1274">
      <component glyphName="glyph00268" x="0" y="0" flags="0x204"/>
      <component glyphName="uni093C" x="1106" y="30" flags="0x4"/>
    </TTGlyph>
    <TTGlyph name="glyph00308" xMin="0" yMin="-260" xMax="1160" yMax="1274">
      <component glyphName="glyph00269" x="0" y="0" flags="0x204"/>
      <component glyphName="uni093C" x="1051" y="134" flags="0x4"/>
    </TTGlyph>
    <TTGlyph name="glyph00309" xMin="95" yMin="-309" xMax="1344" yMax="1294">
      <component glyphName="glyph00270" x="0" y="0" flags="0x204"/>
      <component glyphName="uni093C" x="1237" y="85" flags="0x4"/>
    </TTGlyph>
    <TTGlyph name="glyph00310" xMin="0" yMin="-362" xMax="1094" yMax="1274">
      <component glyphName="glyph00271" x="0" y="0" flags="0x204"/>
      <component glyphName="uni093C" x="1109" y="32" flags="0x4"/>
    </TTGlyph>
    <TTGlyph name="glyph00311" xMin="87" yMin="-339" xMax="1290" yMax="1295">
      <component glyphName="glyph00272" x="0" y="0" flags="0x204"/>
      <component glyphName="uni093C" x="1177" y="55" flags="0x4"/>
    </TTGlyph>
    <TTGlyph name="glyph00312" xMin="0" yMin="-394" xMax="1166" yMax="1274">
      <component glyphName="glyph00273" x="0" y="0" flags="0x204"/>
      <component glyphName="uni093C" x="998" y="0" flags="0x4"/>
    </TTGlyph>
    <TTGlyph name="glyph00313" xMin="0" yMin="-309" xMax="1194" yMax="1274">
      <component glyphName="glyph00274" x="0" y="0" flags="0x204"/>
      <component glyphName="uni093C" x="1057" y="85" flags="0x4"/>
    </TTGlyph>
    <TTGlyph name="glyph00314" xMin="0" yMin="-309" xMax="1609" yMax="1274">
      <component glyphName="glyph00275" x="0" y="0" flags="0x204"/>
      <component glyphName="uni093C" x="1057" y="85" flags="0x4"/>
    </TTGlyph>
    <TTGlyph name="glyph00315" xMin="0" yMin="-309" xMax="1199" yMax="1274">
      <component glyphName="glyph00276" x="0" y="0" flags="0x204"/>
      <component glyphName="uni093C" x="1102" y="85" flags="0x4"/>
    </TTGlyph>
    <TTGlyph name="glyph00316" xMin="95" yMin="-394" xMax="1469" yMax="1294">
      <component glyphName="glyph00277" x="0" y="0" flags="0x204"/>
      <component glyphName="uni093C" x="1324" y="0" flags="0x4"/>
    </TTGlyph>
    <TTGlyph name="glyph00317" xMin="0" yMin="-394" xMax="1254" yMax="1274">
      <component glyphName="glyph00278" x="0" y="0" flags="0x204"/>
      <component glyphName="uni093C" x="1134" y="0" flags="0x4"/>
    </TTGlyph>
    <TTGlyph name="glyph00318" xMin="0" yMin="-309" xMax="1218" yMax="1274">
      <component glyphName="glyph00279" x="0" y="0" flags="0x204"/>
      <component glyphName="uni093C" x="1116" y="85" flags="0x4"/>
    </TTGlyph>
    <TTGlyph name="glyph00319" xMin="-23" yMin="-548" xMax="868" yMax="1274">
      <component glyphName="uni0930" x="0" y="0" flags="0x204"/>
      <component glyphName="glyph00182" x="931" y="0" flags="0x4"/>
      <component glyphName="glyph00785" x="800" y="349" flags="0x4"/>
    </TTGlyph>
    <TTGlyph name="glyph00320" xMin="0" yMin="-363" xMax="1459" yMax="1274">
      <component glyphName="glyph00281" x="0" y="0" flags="0x204"/>
      <component glyphName="uni093C" x="1281" y="31" flags="0x4"/>
    </TTGlyph>
    <TTGlyph name="glyph00321" xMin="0" yMin="-548" xMax="1587" yMax="1274">
      <component glyphName="uni0933" x="0" y="0" flags="0x204"/>
      <component glyphName="glyph00182" x="1496" y="0" flags="0x4"/>
      <component glyphName="uni093C" x="1057" y="184" flags="0x4"/>
    </TTGlyph>
    <TTGlyph name="glyph00322" xMin="0" yMin="-309" xMax="1169" yMax="1274">
      <component glyphName="glyph00283" x="0" y="0" flags="0x204"/>
      <component glyphName="uni093C" x="1087" y="85" flags="0x4"/>
    </TTGlyph>
    <TTGlyph name="glyph00323" xMin="57" yMin="-291" xMax="1460" yMax="1295">
      <component glyphName="glyph00284" x="0" y="0" flags="0x204"/>
      <component glyphName="uni093C" x="1050" y="103" flags="0x4"/>
    </TTGlyph>
    <TTGlyph name="glyph00324" xMin="0" yMin="-309" xMax="1214" yMax="1274">
      <component glyphName="glyph00285" x="0" y="0" flags="0x204"/>
      <component glyphName="uni093C" x="1067" y="85" flags="0x4"/>
    </TTGlyph>
    <TTGlyph name="glyph00325" xMin="0" yMin="-45" xMax="1495" yMax="1274">
      <component glyphName="glyph00286" x="0" y="0" flags="0x204"/>
      <component glyphName="glyph00785" x="800" y="349" flags="0x4"/>
    </TTGlyph>
    <TTGlyph name="glyph00326" xMin="0" yMin="-548" xMax="1168" yMax="1274">
      <component glyphName="glyph00287" x="0" y="0" flags="0x204"/>
      <component glyphName="glyph00785" x="777" y="-101" flags="0x4"/>
    </TTGlyph>
    <TTGlyph name="glyph00327" xMin="0" yMin="-25" xMax="1262" yMax="1274">
      <contour>
        <pt x="1234" y="1274" on="1"/>
        <pt x="1234" y="1128" on="1"/>
        <pt x="924" y="1128" on="1"/>
        <pt x="924" y="684" on="1"/>
        <pt x="978" y="721" on="0"/>
        <pt x="1092" y="754" on="0"/>
        <pt x="1161" y="754" on="1"/>
        <pt x="1262" y="754" on="1"/>
        <pt x="1262" y="608" on="1"/>
        <pt x="1187" y="608" on="1"/>
        <pt x="1094" y="608" on="0"/>
        <pt x="984" y="567" on="0"/>
        <pt x="924" y="516" on="1"/>
        <pt x="924" y="0" on="1"/>
        <pt x="759" y="0" on="1"/>
        <pt x="759" y="354" on="1"/>
        <pt x="190" y="-25" on="1"/>
        <pt x="94" y="109" on="1"/>
        <pt x="355" y="259" on="1"/>
        <pt x="233" y="289" on="0"/>
        <pt x="95" y="464" on="0"/>
        <pt x="95" y="594" on="1"/>
        <pt x="95" y="701" on="0"/>
        <pt x="197" y="863" on="0"/>
        <pt x="381" y="950" on="0"/>
        <pt x="500" y="950" on="1"/>
        <pt x="540" y="950" on="0"/>
        <pt x="654" y="938" on="0"/>
        <pt x="694" y="929" on="1"/>
        <pt x="682" y="780" on="1"/>
        <pt x="647" y="788" on="0"/>
        <pt x="547" y="801" on="0"/>
        <pt x="509" y="801" on="1"/>
        <pt x="392" y="801" on="0"/>
        <pt x="261" y="693" on="0"/>
        <pt x="261" y="599" on="1"/>
        <pt x="261" y="528" on="0"/>
        <pt x="319" y="431" on="0"/>
        <pt x="413" y="385" on="0"/>
        <pt x="467" y="385" on="1"/>
        <pt x="541" y="385" on="0"/>
        <pt x="684" y="455" on="0"/>
        <pt x="759" y="532" on="1"/>
        <pt x="759" y="1128" on="1"/>
        <pt x="0" y="1128" on="1"/>
        <pt x="0" y="1274" on="1"/>
      </contour>
      <contour>
        <pt x="463" y="241" on="1"/>
      </contour>
    </TTGlyph>
    <TTGlyph name="glyph00328" xMin="0" yMin="-241" xMax="1391" yMax="1274">
      <contour>
        <pt x="1391" y="201" on="1"/>
        <pt x="572" y="-241" on="1"/>
        <pt x="487" y="-95" on="1"/>
        <pt x="771" y="44" on="1"/>
        <pt x="664" y="71" on="0"/>
        <pt x="453" y="194" on="0"/>
        <pt x="249" y="393" on="0"/>
        <pt x="153" y="518" on="1"/>
        <pt x="119" y="563" on="0"/>
        <pt x="81" y="643" on="0"/>
        <pt x="81" y="692" on="1"/>
        <pt x="81" y="741" on="0"/>
        <pt x="148" y="804" on="0"/>
        <pt x="212" y="804" on="1"/>
        <pt x="263" y="804" on="0"/>
        <pt x="340" y="757" on="0"/>
        <pt x="371" y="715" on="1"/>
        <pt x="407" y="747" on="0"/>
        <pt x="445" y="861" on="0"/>
        <pt x="445" y="938" on="1"/>
        <pt x="445" y="999" on="0"/>
        <pt x="425" y="1098" on="0"/>
        <pt x="411" y="1128" on="1"/>
        <pt x="0" y="1128" on="1"/>
        <pt x="0" y="1274" on="1"/>
        <pt x="1357" y="1274" on="1"/>
        <pt x="1357" y="1128" on="1"/>
        <pt x="576" y="1128" on="1"/>
        <pt x="610" y="1049" on="0"/>
        <pt x="610" y="937" on="1"/>
        <pt x="610" y="784" on="0"/>
        <pt x="480" y="578" on="0"/>
        <pt x="344" y="518" on="1"/>
        <pt x="456" y="388" on="0"/>
        <pt x="648" y="239" on="0"/>
        <pt x="863" y="162" on="0"/>
        <pt x="994" y="161" on="1"/>
        <pt x="1327" y="330" on="1"/>
      </contour>
      <contour>
        <pt x="1378" y="441" on="1"/>
        <pt x="1314" y="389" on="0"/>
        <pt x="1154" y="335" on="0"/>
        <pt x="1068" y="335" on="1"/>
        <pt x="973" y="335" on="0"/>
        <pt x="819" y="413" on="0"/>
        <pt x="730" y="559" on="0"/>
        <pt x="730" y="654" on="1"/>
        <pt x="730" y="751" on="0"/>
        <pt x="819" y="894" on="0"/>
        <pt x="981" y="969" on="0"/>
        <pt x="1087" y="969" on="1"/>
        <pt x="1128" y="969" on="0"/>
        <pt x="1236" y="956" on="0"/>
        <pt x="1261" y="948" on="1"/>
        <pt x="1249" y="807" on="1"/>
        <pt x="1218" y="814" on="0"/>
        <pt x="1143" y="828" on="0"/>
        <pt x="1106" y="828" on="1"/>
        <pt x="1005" y="828" on="0"/>
        <pt x="895" y="733" on="0"/>
        <pt x="895" y="647" on="1"/>
        <pt x="895" y="565" on="0"/>
        <pt x="1002" y="476" on="0"/>
        <pt x="1094" y="476" on="1"/>
        <pt x="1155" y="476" on="0"/>
        <pt x="1273" y="525" on="0"/>
        <pt x="1327" y="574" on="1"/>
      </contour>
    </TTGlyph>
    <TTGlyph name="glyph00329" xMin="0" yMin="-50" xMax="890" yMax="1274">
      <contour>
        <pt x="427" y="1128" on="1"/>
        <pt x="427" y="479" on="1"/>
        <pt x="427" y="425" on="0"/>
        <pt x="374" y="365" on="0"/>
        <pt x="327" y="365" on="1"/>
        <pt x="276" y="365" on="0"/>
        <pt x="158" y="452" on="0"/>
        <pt x="84" y="577" on="0"/>
        <pt x="84" y="630" on="1"/>
        <pt x="84" y="683" on="0"/>
        <pt x="145" y="735" on="0"/>
        <pt x="208" y="735" on="1"/>
        <pt x="263" y="735" on="1"/>
        <pt x="263" y="1128" on="1"/>
        <pt x="0" y="1128" on="1"/>
        <pt x="0" y="1274" on="1"/>
        <pt x="718" y="1274" on="1"/>
        <pt x="718" y="1128" on="1"/>
      </contour>
      <contour>
        <pt x="890" y="304" on="1"/>
        <pt x="353" y="-50" on="1"/>
        <pt x="255" y="88" on="1"/>
        <pt x="806" y="421" on="1"/>
      </contour>
    </TTGlyph>
    <TTGlyph name="glyph00330" xMin="0" yMin="-50" xMax="946" yMax="1274">
      <contour>
        <pt x="295" y="1128" on="1"/>
        <pt x="252" y="1079" on="0"/>
        <pt x="252" y="1011" on="1"/>
        <pt x="252" y="941" on="0"/>
        <pt x="336" y="854" on="0"/>
        <pt x="409" y="843" on="1"/>
        <pt x="465" y="859" on="0"/>
        <pt x="539" y="859" on="1"/>
        <pt x="589" y="859" on="0"/>
        <pt x="631" y="853" on="1"/>
        <pt x="618" y="710" on="1"/>
        <pt x="592" y="713" on="0"/>
        <pt x="560" y="713" on="1"/>
        <pt x="456" y="713" on="0"/>
        <pt x="342" y="628" on="0"/>
        <pt x="342" y="550" on="1"/>
        <pt x="342" y="471" on="0"/>
        <pt x="450" y="385" on="0"/>
        <pt x="547" y="385" on="1"/>
        <pt x="637" y="385" on="0"/>
        <pt x="790" y="455" on="0"/>
        <pt x="862" y="531" on="1"/>
        <pt x="946" y="403" on="1"/>
        <pt x="241" y="-50" on="1"/>
        <pt x="145" y="84" on="1"/>
        <pt x="448" y="255" on="1"/>
        <pt x="318" y="275" on="0"/>
        <pt x="177" y="428" on="0"/>
        <pt x="177" y="545" on="1"/>
        <pt x="177" y="605" on="0"/>
        <pt x="221" y="713" on="0"/>
        <pt x="261" y="750" on="1"/>
        <pt x="178" y="790" on="0"/>
        <pt x="87" y="933" on="0"/>
        <pt x="87" y="1017" on="1"/>
        <pt x="87" y="1081" on="0"/>
        <pt x="107" y="1128" on="1"/>
        <pt x="0" y="1128" on="1"/>
        <pt x="0" y="1274" on="1"/>
        <pt x="749" y="1274" on="1"/>
        <pt x="749" y="1128" on="1"/>
      </contour>
      <contour>
        <pt x="530" y="241" on="1"/>
      </contour>
    </TTGlyph>
    <TTGlyph name="glyph00331" xMin="0" yMin="-806" xMax="1458" yMax="1274">
      <component glyphName="uni0919" x="0" y="0" flags="0x204"/>
      <component glyphName="glyph00669" x="1202" y="0" flags="0x4"/>
    </TTGlyph>
    <TTGlyph name="glyph00332" xMin="0" yMin="-548" xMax="1458" yMax="1274">
      <component glyphName="glyph00639" x="0" y="0" flags="0x204"/>
      <component glyphName="glyph00668" x="1202" y="0" flags="0x4"/>
    </TTGlyph>
    <TTGlyph name="glyph00333" xMin="0" yMin="-50" xMax="1034" yMax="1274">
      <contour>
        <pt x="0" y="1128" on="1"/>
        <pt x="0" y="1274" on="1"/>
        <pt x="840" y="1274" on="1"/>
        <pt x="840" y="1128" on="1"/>
      </contour>
      <contour>
        <pt x="341" y="-50" on="1"/>
        <pt x="245" y="84" on="1"/>
        <pt x="550" y="257" on="1"/>
        <pt x="427" y="283" on="0"/>
        <pt x="288" y="446" on="0"/>
        <pt x="288" y="563" on="1"/>
        <pt x="288" y="621" on="0"/>
        <pt x="335" y="722" on="0"/>
        <pt x="378" y="759" on="1"/>
        <pt x="77" y="756" on="1"/>
        <pt x="77" y="904" on="1"/>
        <pt x="678" y="904" on="1"/>
        <pt x="759" y="904" on="0"/>
        <pt x="797" y="901" on="1"/>
        <pt x="783" y="758" on="1"/>
        <pt x="717" y="758" on="1"/>
        <pt x="594" y="758" on="0"/>
        <pt x="453" y="654" on="0"/>
        <pt x="453" y="562" on="1"/>
        <pt x="453" y="504" on="0"/>
        <pt x="510" y="422" on="0"/>
        <pt x="598" y="385" on="0"/>
        <pt x="650" y="385" on="1"/>
        <pt x="711" y="385" on="0"/>
        <pt x="815" y="421" on="0"/>
        <pt x="901" y="481" on="0"/>
        <pt x="952" y="532" on="1"/>
        <pt x="1034" y="398" on="1"/>
      </contour>
      <contour>
        <pt x="650" y="241" on="1"/>
      </contour>
    </TTGlyph>
    <TTGlyph name="glyph00334" xMin="0" yMin="-548" xMax="1465" yMax="1274">
      <component glyphName="glyph00189" x="0" y="0" flags="0x204"/>
      <component glyphName="glyph00182" x="1205" y="0" flags="0x4"/>
    </TTGlyph>
    <TTGlyph name="glyph00335" xMin="0" yMin="-50" xMax="1326" yMax="1274">
      <contour>
        <pt x="0" y="1128" on="1"/>
        <pt x="0" y="1274" on="1"/>
        <pt x="1272" y="1274" on="1"/>
        <pt x="1272" y="1128" on="1"/>
      </contour>
      <contour>
        <pt x="891" y="758" on="1"/>
        <pt x="816" y="758" on="0"/>
        <pt x="797" y="760" on="1"/>
        <pt x="866" y="705" on="0"/>
        <pt x="939" y="573" on="0"/>
        <pt x="939" y="498" on="1"/>
        <pt x="939" y="436" on="0"/>
        <pt x="890" y="344" on="0"/>
        <pt x="807" y="283" on="0"/>
        <pt x="696" y="253" on="0"/>
        <pt x="635" y="253" on="1"/>
        <pt x="457" y="253" on="0"/>
        <pt x="180" y="538" on="0"/>
        <pt x="64" y="821" on="1"/>
        <pt x="208" y="873" on="1"/>
        <pt x="306" y="631" on="0"/>
        <pt x="508" y="404" on="0"/>
        <pt x="627" y="404" on="1"/>
        <pt x="699" y="404" on="0"/>
        <pt x="777" y="466" on="0"/>
        <pt x="777" y="525" on="1"/>
        <pt x="777" y="591" on="0"/>
        <pt x="664" y="718" on="0"/>
        <pt x="560" y="772" on="1"/>
        <pt x="618" y="904" on="1"/>
        <pt x="1242" y="904" on="1"/>
        <pt x="1242" y="758" on="1"/>
      </contour>
      <contour>
        <pt x="1326" y="304" on="1"/>
        <pt x="789" y="-50" on="1"/>
        <pt x="691" y="88" on="1"/>
        <pt x="1242" y="421" on="1"/>
      </contour>
    </TTGlyph>
    <TTGlyph name="glyph00336" xMin="0" yMin="-225" xMax="1380" yMax="1274">
      <contour>
        <pt x="787" y="1128" on="1"/>
        <pt x="787" y="807" on="1"/>
        <pt x="425" y="807" on="1"/>
        <pt x="382" y="807" on="0"/>
        <pt x="326" y="800" on="0"/>
        <pt x="294" y="784" on="0"/>
        <pt x="272" y="761" on="0"/>
        <pt x="260" y="729" on="0"/>
        <pt x="260" y="710" on="1"/>
        <pt x="260" y="668" on="0"/>
        <pt x="324" y="604" on="0"/>
        <pt x="377" y="590" on="1"/>
        <pt x="452" y="614" on="0"/>
        <pt x="530" y="614" on="1"/>
        <pt x="605" y="614" on="0"/>
        <pt x="729" y="577" on="0"/>
        <pt x="775" y="542" on="1"/>
        <pt x="803" y="529" on="0"/>
        <pt x="876" y="519" on="0"/>
        <pt x="934" y="519" on="1"/>
        <pt x="1007" y="519" on="0"/>
        <pt x="1124" y="545" on="0"/>
        <pt x="1225" y="595" on="0"/>
        <pt x="1292" y="649" on="1"/>
        <pt x="1292" y="463" on="1"/>
        <pt x="1210" y="417" on="0"/>
        <pt x="1019" y="375" on="0"/>
        <pt x="900" y="375" on="1"/>
        <pt x="876" y="375" on="1"/>
        <pt x="881" y="346" on="0"/>
        <pt x="881" y="316" on="1"/>
        <pt x="881" y="252" on="0"/>
        <pt x="834" y="154" on="0"/>
        <pt x="757" y="81" on="0"/>
        <pt x="659" y="33" on="0"/>
        <pt x="608" y="20" on="1"/>
        <pt x="741" y="-42" on="0"/>
        <pt x="890" y="-82" on="1"/>
        <pt x="823" y="-225" on="1"/>
        <pt x="598" y="-135" on="0"/>
        <pt x="402" y="1" on="1"/>
        <pt x="271" y="6" on="0"/>
        <pt x="151" y="68" on="0"/>
        <pt x="151" y="129" on="1"/>
        <pt x="151" y="177" on="0"/>
        <pt x="209" y="235" on="0"/>
        <pt x="261" y="235" on="1"/>
        <pt x="303" y="235" on="0"/>
        <pt x="389" y="193" on="0"/>
        <pt x="452" y="140" on="1"/>
        <pt x="526" y="140" on="0"/>
        <pt x="650" y="185" on="0"/>
        <pt x="719" y="267" on="0"/>
        <pt x="719" y="321" on="1"/>
        <pt x="719" y="388" on="0"/>
        <pt x="621" y="468" on="0"/>
        <pt x="538" y="468" on="1"/>
        <pt x="502" y="468" on="0"/>
        <pt x="411" y="449" on="0"/>
        <pt x="370" y="432" on="1"/>
        <pt x="244" y="467" on="0"/>
        <pt x="102" y="622" on="0"/>
        <pt x="102" y="721" on="1"/>
        <pt x="102" y="781" on="0"/>
        <pt x="146" y="865" on="0"/>
        <pt x="230" y="924" on="0"/>
        <pt x="343" y="953" on="0"/>
        <pt x="430" y="953" on="1"/>
        <pt x="622" y="953" on="1"/>
        <pt x="622" y="1128" on="1"/>
        <pt x="0" y="1128" on="1"/>
        <pt x="0" y="1274" on="1"/>
        <pt x="1322" y="1274" on="1"/>
        <pt x="1322" y="1128" on="1"/>
      </contour>
      <contour>
        <pt x="1003" y="-50" on="1"/>
        <pt x="885" y="65" on="1"/>
        <pt x="1292" y="411" on="1"/>
        <pt x="1380" y="305" on="1"/>
      </contour>
    </TTGlyph>
    <TTGlyph name="glyph00337" xMin="0" yMin="-50" xMax="1315" yMax="1274">
      <contour>
        <pt x="0" y="1128" on="1"/>
        <pt x="0" y="1274" on="1"/>
        <pt x="1261" y="1274" on="1"/>
        <pt x="1261" y="1128" on="1"/>
      </contour>
      <contour>
        <pt x="1231" y="596" on="1"/>
        <pt x="1128" y="554" on="0"/>
        <pt x="992" y="554" on="1"/>
        <pt x="988" y="554" on="1"/>
        <pt x="973" y="476" on="0"/>
        <pt x="874" y="358" on="0"/>
        <pt x="711" y="294" on="0"/>
        <pt x="614" y="294" on="1"/>
        <pt x="432" y="294" on="0"/>
        <pt x="158" y="522" on="0"/>
        <pt x="60" y="745" on="1"/>
        <pt x="200" y="799" on="1"/>
        <pt x="258" y="667" on="0"/>
        <pt x="374" y="516" on="0"/>
        <pt x="511" y="445" on="0"/>
        <pt x="603" y="445" on="1"/>
        <pt x="714" y="445" on="0"/>
        <pt x="841" y="551" on="0"/>
        <pt x="841" y="640" on="1"/>
        <pt x="841" y="725" on="0"/>
        <pt x="736" y="815" on="0"/>
        <pt x="640" y="815" on="1"/>
        <pt x="589" y="815" on="0"/>
        <pt x="496" y="788" on="0"/>
        <pt x="449" y="764" on="1"/>
        <pt x="393" y="912" on="1"/>
        <pt x="449" y="937" on="0"/>
        <pt x="584" y="966" on="0"/>
        <pt x="646" y="966" on="1"/>
        <pt x="737" y="966" on="0"/>
        <pt x="886" y="903" on="0"/>
        <pt x="979" y="782" on="0"/>
        <pt x="992" y="698" on="1"/>
        <pt x="1009" y="698" on="1"/>
        <pt x="1134" y="698" on="0"/>
        <pt x="1231" y="768" on="1"/>
      </contour>
      <contour>
        <pt x="1315" y="304" on="1"/>
        <pt x="778" y="-50" on="1"/>
        <pt x="680" y="88" on="1"/>
        <pt x="1231" y="421" on="1"/>
      </contour>
    </TTGlyph>
    <TTGlyph name="glyph00338" xMin="0" yMin="-806" xMax="1078" yMax="1274">
      <component glyphName="uni091F" x="0" y="0" flags="0x204"/>
      <component glyphName="glyph00669" x="1018" y="0" flags="0x4"/>
    </TTGlyph>
    <TTGlyph name="glyph00339" xMin="0" yMin="-548" xMax="1078" yMax="1274">
      <component glyphName="glyph00641" x="0" y="0" flags="0x204"/>
      <component glyphName="glyph00668" x="1018" y="0" flags="0x4"/>
    </TTGlyph>
    <TTGlyph name="glyph00340" xMin="0" yMin="-806" xMax="1228" yMax="1274">
      <component glyphName="uni0920" x="0" y="0" flags="0x204"/>
      <component glyphName="glyph00669" x="1103" y="0" flags="0x4"/>
    </TTGlyph>
    <TTGlyph name="glyph00341" xMin="0" yMin="-548" xMax="1228" yMax="1274">
      <component glyphName="glyph00642" x="0" y="0" flags="0x204"/>
      <component glyphName="glyph00668" x="1103" y="0" flags="0x4"/>
    </TTGlyph>
    <TTGlyph name="glyph00342" xMin="0" yMin="-806" xMax="1315" yMax="1274">
      <component glyphName="uni0921" x="0" y="0" flags="0x204"/>
      <component glyphName="glyph00669" x="1202" y="0" flags="0x4"/>
    </TTGlyph>
    <TTGlyph name="glyph00343" xMin="0" yMin="-548" xMax="1315" yMax="1274">
      <component glyphName="glyph00643" x="0" y="0" flags="0x204"/>
      <component glyphName="glyph00668" x="1202" y="0" flags="0x4"/>
    </TTGlyph>
    <TTGlyph name="glyph00344" xMin="0" yMin="-806" xMax="1182" yMax="1274">
      <component glyphName="uni0922" x="0" y="0" flags="0x204"/>
      <component glyphName="glyph00669" x="1084" y="0" flags="0x4"/>
    </TTGlyph>
    <TTGlyph name="glyph00345" xMin="0" yMin="-548" xMax="1182" yMax="1274">
      <component glyphName="glyph00644" x="0" y="0" flags="0x204"/>
      <component glyphName="glyph00668" x="1084" y="0" flags="0x4"/>
    </TTGlyph>
    <TTGlyph name="glyph00346" xMin="0" yMin="-50" xMax="1216" yMax="1274">
      <contour>
        <pt x="1044" y="1128" on="1"/>
        <pt x="861" y="1128" on="1"/>
        <pt x="861" y="658" on="1"/>
        <pt x="861" y="579" on="0"/>
        <pt x="833" y="468" on="0"/>
        <pt x="774" y="382" on="0"/>
        <pt x="689" y="327" on="0"/>
        <pt x="581" y="300" on="0"/>
        <pt x="514" y="300" on="1"/>
        <pt x="396" y="300" on="0"/>
        <pt x="240" y="388" on="0"/>
        <pt x="162" y="566" on="0"/>
        <pt x="162" y="720" on="1"/>
        <pt x="162" y="1128" on="1"/>
        <pt x="0" y="1128" on="1"/>
        <pt x="0" y="1274" on="1"/>
        <pt x="1044" y="1274" on="1"/>
      </contour>
      <contour>
        <pt x="697" y="1128" on="1"/>
        <pt x="326" y="1128" on="1"/>
        <pt x="326" y="722" on="1"/>
        <pt x="326" y="649" on="0"/>
        <pt x="341" y="560" on="0"/>
        <pt x="370" y="499" on="0"/>
        <pt x="413" y="462" on="0"/>
        <pt x="471" y="445" on="0"/>
        <pt x="509" y="445" on="1"/>
        <pt x="573" y="445" on="0"/>
        <pt x="646" y="484" on="0"/>
        <pt x="685" y="555" on="0"/>
        <pt x="697" y="645" on="0"/>
        <pt x="697" y="722" on="1"/>
      </contour>
      <contour>
        <pt x="1216" y="304" on="1"/>
        <pt x="679" y="-50" on="1"/>
        <pt x="581" y="88" on="1"/>
        <pt x="1132" y="421" on="1"/>
      </contour>
    </TTGlyph>
    <TTGlyph name="glyph00347" xMin="0" yMin="133" xMax="812" yMax="1274">
      <contour>
        <pt x="0" y="1128" on="1"/>
        <pt x="0" y="1274" on="1"/>
        <pt x="812" y="1274" on="1"/>
        <pt x="812" y="1128" on="1"/>
      </contour>
      <contour>
        <pt x="261" y="133" on="1"/>
        <pt x="163" y="271" on="1"/>
        <pt x="667" y="576" on="1"/>
        <pt x="600" y="661" on="0"/>
        <pt x="515" y="740" on="0"/>
        <pt x="427" y="779" on="0"/>
        <pt x="371" y="779" on="1"/>
        <pt x="309" y="779" on="0"/>
        <pt x="190" y="742" on="0"/>
        <pt x="112" y="703" on="1"/>
        <pt x="55" y="853" on="1"/>
        <pt x="142" y="895" on="0"/>
        <pt x="292" y="933" on="0"/>
        <pt x="367" y="933" on="1"/>
        <pt x="429" y="933" on="0"/>
        <pt x="527" y="906" on="0"/>
        <pt x="626" y="843" on="0"/>
        <pt x="736" y="729" on="0"/>
        <pt x="809" y="632" on="1"/>
        <pt x="809" y="495" on="1"/>
      </contour>
    </TTGlyph>
    <TTGlyph name="glyph00348" xMin="95" yMin="-50" xMax="1043" yMax="1294">
      <contour>
        <pt x="382" y="801" on="1"/>
        <pt x="95" y="842" on="0"/>
        <pt x="95" y="1063" on="1"/>
        <pt x="95" y="1138" on="0"/>
        <pt x="164" y="1244" on="0"/>
        <pt x="280" y="1294" on="0"/>
        <pt x="353" y="1294" on="1"/>
        <pt x="448" y="1294" on="0"/>
        <pt x="605" y="1210" on="0"/>
        <pt x="688" y="1059" on="0"/>
        <pt x="688" y="960" on="1"/>
        <pt x="688" y="817" on="0"/>
        <pt x="533" y="623" on="0"/>
        <pt x="373" y="560" on="1"/>
        <pt x="424" y="480" on="0"/>
        <pt x="545" y="415" on="0"/>
        <pt x="643" y="415" on="1"/>
        <pt x="732" y="415" on="0"/>
        <pt x="888" y="484" on="0"/>
        <pt x="967" y="563" on="1"/>
        <pt x="1043" y="420" on="1"/>
        <pt x="311" y="-50" on="1"/>
        <pt x="215" y="84" on="1"/>
        <pt x="565" y="281" on="1"/>
        <pt x="412" y="297" on="0"/>
        <pt x="208" y="490" on="0"/>
        <pt x="169" y="660" on="1"/>
        <pt x="348" y="696" on="0"/>
        <pt x="523" y="836" on="0"/>
        <pt x="523" y="956" on="1"/>
        <pt x="523" y="1022" on="0"/>
        <pt x="478" y="1116" on="0"/>
        <pt x="400" y="1163" on="0"/>
        <pt x="351" y="1163" on="1"/>
        <pt x="298" y="1163" on="0"/>
        <pt x="233" y="1112" on="0"/>
        <pt x="233" y="1068" on="1"/>
        <pt x="233" y="1016" on="0"/>
        <pt x="312" y="954" on="0"/>
        <pt x="399" y="945" on="1"/>
      </contour>
      <contour>
        <pt x="630" y="270" on="1"/>
      </contour>
      <contour>
        <pt x="169" y="514" on="1"/>
      </contour>
      <contour>
        <pt x="785" y="1274" on="1"/>
      </contour>
    </TTGlyph>
    <TTGlyph name="glyph00349" xMin="0" yMin="-548" xMax="1264" yMax="1274">
      <component glyphName="glyph00271" x="0" y="0" flags="0x204"/>
      <component glyphName="uni094D" x="954" y="0" flags="0x4"/>
    </TTGlyph>
    <TTGlyph name="glyph00350" xMin="87" yMin="-88" xMax="988" yMax="1295">
      <contour>
        <pt x="988" y="359" on="1"/>
        <pt x="270" y="-88" on="1"/>
        <pt x="174" y="46" on="1"/>
        <pt x="493" y="226" on="1"/>
        <pt x="368" y="247" on="0"/>
        <pt x="227" y="401" on="0"/>
        <pt x="227" y="515" on="1"/>
        <pt x="227" y="569" on="0"/>
        <pt x="263" y="672" on="0"/>
        <pt x="303" y="712" on="1"/>
        <pt x="196" y="753" on="0"/>
        <pt x="87" y="904" on="0"/>
        <pt x="87" y="1010" on="1"/>
        <pt x="87" y="1090" on="0"/>
        <pt x="162" y="1221" on="0"/>
        <pt x="298" y="1295" on="0"/>
        <pt x="383" y="1295" on="1"/>
        <pt x="454" y="1295" on="0"/>
        <pt x="570" y="1244" on="0"/>
        <pt x="637" y="1148" on="0"/>
        <pt x="637" y="1087" on="1"/>
        <pt x="637" y="1039" on="0"/>
        <pt x="596" y="945" on="0"/>
        <pt x="556" y="908" on="1"/>
        <pt x="431" y="987" on="1"/>
        <pt x="472" y="1027" on="0"/>
        <pt x="472" y="1077" on="1"/>
        <pt x="472" y="1116" on="0"/>
        <pt x="422" y="1163" on="0"/>
        <pt x="376" y="1163" on="1"/>
        <pt x="338" y="1163" on="0"/>
        <pt x="275" y="1121" on="0"/>
        <pt x="238" y="1047" on="0"/>
        <pt x="238" y="1002" on="1"/>
        <pt x="238" y="951" on="0"/>
        <pt x="275" y="883" on="0"/>
        <pt x="337" y="839" on="0"/>
        <pt x="416" y="817" on="0"/>
        <pt x="457" y="813" on="1"/>
        <pt x="515" y="829" on="0"/>
        <pt x="589" y="829" on="1"/>
        <pt x="639" y="829" on="0"/>
        <pt x="681" y="823" on="1"/>
        <pt x="668" y="680" on="1"/>
        <pt x="642" y="683" on="0"/>
        <pt x="610" y="683" on="1"/>
        <pt x="506" y="683" on="0"/>
        <pt x="392" y="598" on="0"/>
        <pt x="392" y="520" on="1"/>
        <pt x="392" y="441" on="0"/>
        <pt x="500" y="355" on="0"/>
        <pt x="597" y="355" on="1"/>
        <pt x="687" y="355" on="0"/>
        <pt x="840" y="425" on="0"/>
        <pt x="912" y="501" on="1"/>
      </contour>
      <contour>
        <pt x="741" y="1274" on="1"/>
      </contour>
      <contour>
        <pt x="580" y="211" on="1"/>
      </contour>
    </TTGlyph>
    <TTGlyph name="glyph00351" xMin="0" yMin="-50" xMax="872" yMax="1274">
      <contour>
        <pt x="0" y="1128" on="1"/>
        <pt x="0" y="1274" on="1"/>
        <pt x="818" y="1274" on="1"/>
        <pt x="818" y="1128" on="1"/>
      </contour>
      <contour>
        <pt x="419" y="610" on="1"/>
        <pt x="419" y="500" on="1"/>
        <pt x="419" y="445" on="0"/>
        <pt x="364" y="386" on="0"/>
        <pt x="314" y="386" on="1"/>
        <pt x="266" y="386" on="0"/>
        <pt x="152" y="471" on="0"/>
        <pt x="76" y="597" on="0"/>
        <pt x="76" y="651" on="1"/>
        <pt x="76" y="756" on="0"/>
        <pt x="200" y="756" on="1"/>
        <pt x="788" y="756" on="1"/>
        <pt x="788" y="610" on="1"/>
      </contour>
      <contour>
        <pt x="872" y="304" on="1"/>
        <pt x="335" y="-50" on="1"/>
        <pt x="237" y="88" on="1"/>
        <pt x="788" y="421" on="1"/>
      </contour>
    </TTGlyph>
    <TTGlyph name="glyph00352" xMin="0" yMin="-26" xMax="893" yMax="1274">
      <contour>
        <pt x="188" y="-26" on="1"/>
        <pt x="92" y="108" on="1"/>
        <pt x="439" y="313" on="1"/>
        <pt x="341" y="329" on="0"/>
        <pt x="219" y="435" on="0"/>
        <pt x="162" y="590" on="0"/>
        <pt x="162" y="734" on="1"/>
        <pt x="162" y="1128" on="1"/>
        <pt x="0" y="1128" on="1"/>
        <pt x="0" y="1274" on="1"/>
        <pt x="660" y="1274" on="1"/>
        <pt x="660" y="1128" on="1"/>
        <pt x="326" y="1128" on="1"/>
        <pt x="326" y="755" on="1"/>
        <pt x="326" y="657" on="0"/>
        <pt x="340" y="561" on="0"/>
        <pt x="371" y="506" on="0"/>
        <pt x="417" y="465" on="0"/>
        <pt x="487" y="445" on="0"/>
        <pt x="536" y="445" on="1"/>
        <pt x="609" y="445" on="0"/>
        <pt x="756" y="515" on="0"/>
        <pt x="817" y="578" on="1"/>
        <pt x="893" y="444" on="1"/>
      </contour>
      <contour>
        <pt x="521" y="300" on="1"/>
      </contour>
    </TTGlyph>
</ttFont>
